<svg width="35" height="35" viewBox="0 0 35 35" fill="none" xmlns="http://www.w3.org/2000/svg">
<path fill-rule="evenodd" clip-rule="evenodd" d="M7.29167 13.125C7.29167 10.4176 8.36718 7.82107 10.2816 5.90664C12.1961 3.9922 14.7926 2.91669 17.5 2.91669C20.2074 2.91669 22.8039 3.9922 24.7184 5.90664C26.6328 7.82107 27.7083 10.4176 27.7083 13.125V18.6142L30.3654 23.9284C30.4877 24.1729 30.5455 24.4447 30.5332 24.7179C30.5209 24.9911 30.439 25.2566 30.2952 25.4893C30.1514 25.7219 29.9506 25.9139 29.7117 26.047C29.4728 26.1802 29.2039 26.2501 28.9304 26.25H23.1496C22.8252 27.5016 22.0944 28.6101 21.0718 29.4014C20.0493 30.1927 18.793 30.622 17.5 30.622C16.207 30.622 14.9507 30.1927 13.9282 29.4014C12.9056 28.6101 12.1748 27.5016 11.8504 26.25H6.06958C5.79611 26.2501 5.52717 26.1802 5.28831 26.047C5.04944 25.9139 4.84858 25.7219 4.7048 25.4893C4.56101 25.2566 4.47909 24.9911 4.4668 24.7179C4.45451 24.4447 4.51227 24.1729 4.63458 23.9284L7.29167 18.6142V13.125ZM14.9742 26.25C15.2302 26.6934 15.5984 27.0615 16.0417 27.3175C16.4851 27.5735 16.988 27.7082 17.5 27.7082C18.012 27.7082 18.5149 27.5735 18.9583 27.3175C19.4016 27.0615 19.7698 26.6934 20.0258 26.25H14.9742ZM17.5 5.83335C15.5661 5.83335 13.7115 6.60158 12.344 7.96903C10.9766 9.33649 10.2083 11.1912 10.2083 13.125V18.6142C10.2083 19.0668 10.103 19.5131 9.90062 19.9179L8.19438 23.3334H26.8071L25.1008 19.9179C24.898 19.5132 24.7921 19.0669 24.7917 18.6142V13.125C24.7917 11.1912 24.0234 9.33649 22.656 7.96903C21.2885 6.60158 19.4339 5.83335 17.5 5.83335Z" fill="#22B1B7"/>
</svg>
