<svg width="200" height="201" viewBox="0 0 200 201" fill="none" xmlns="http://www.w3.org/2000/svg">
<path d="M61.1777 22.9873C61.1777 22.9873 27.9743 39.5505 11.4199 65.0741C-5.13448 90.5976 -3.84237 123.407 16.2867 147.789C36.4158 172.171 74.8777 168.945 107.086 184.393C139.294 199.841 174.848 196.654 190.061 163.947C205.273 131.239 182.326 119.017 178.355 81.1657C174.384 43.3145 139.578 -12.1137 61.1777 22.9873Z" fill="#22B1B7"/>
<path opacity="0.7" d="M61.1777 22.9873C61.1777 22.9873 27.9743 39.5505 11.4199 65.0741C-5.13448 90.5976 -3.84237 123.407 16.2867 147.789C36.4158 172.171 74.8777 168.945 107.086 184.393C139.294 199.841 174.848 196.654 190.061 163.947C205.273 131.239 182.326 119.017 178.355 81.1657C174.384 43.3145 139.578 -12.1137 61.1777 22.9873Z" fill="white"/>
<path d="M103.174 201C152.553 201 192.582 199.175 192.582 196.923C192.582 194.672 152.553 192.846 103.174 192.846C53.795 192.846 13.7656 194.672 13.7656 196.923C13.7656 199.175 53.795 201 103.174 201Z" fill="#263238"/>
<path d="M163.71 9.25369C164.349 10.3027 166.659 11.8409 166.659 11.8453C166.659 11.8497 167.235 10.047 167.257 9.92803C167.501 8.55731 167.154 5.76739 165.749 5.04016C165.512 4.92457 165.253 4.85931 164.988 4.84864C164.723 4.83797 164.459 4.88213 164.213 4.97823C163.967 5.07434 163.745 5.22023 163.56 5.40634C163.376 5.59246 163.233 5.81462 163.143 6.05828C162.724 7.08081 163.165 8.36338 163.71 9.25369Z" fill="#263238"/>
<path d="M186.346 25.8257C186.346 25.8522 187.837 24.6357 187.922 24.5476C188.899 23.5383 190.173 21.0216 189.421 19.6597C189.288 19.4357 189.109 19.2417 188.894 19.0903C188.679 18.9389 188.434 18.8336 188.175 18.7812C187.916 18.7288 187.648 18.7305 187.39 18.7862C187.131 18.8418 186.888 18.9503 186.675 19.1044C185.748 19.7258 185.392 21.0348 185.324 22.075C185.284 23.2914 186.346 25.8257 186.346 25.8257Z" fill="#263238"/>
<path d="M159.788 16.2527C160.653 17.0637 163.102 17.9055 163.296 17.9716C162.801 19.3365 162.401 20.7324 162.098 22.1499C161.913 22.9741 161.756 23.8159 161.607 24.6578C161.607 24.2655 161.607 23.9085 161.607 23.86C161.477 22.4761 160.392 19.8933 158.834 19.5363C158.573 19.4851 158.304 19.4884 158.045 19.5461C157.786 19.6037 157.542 19.7145 157.329 19.871C157.116 20.0274 156.94 20.2262 156.811 20.4541C156.683 20.682 156.605 20.934 156.583 21.1935C156.452 22.2865 157.222 23.3972 157.988 24.1289C158.753 24.8605 160.837 25.6186 161.391 25.8125C161.337 26.1387 161.279 26.4604 161.229 26.7866C160.981 28.3424 160.738 29.8718 160.455 31.4144C160.356 31.9477 160.239 32.4722 160.122 32.9923C160.122 32.6441 160.122 32.3488 160.122 32.3047C159.991 30.9163 158.906 28.338 157.353 27.9766C157.092 27.9261 156.823 27.9299 156.564 27.9879C156.305 28.0458 156.062 28.1566 155.849 28.313C155.637 28.4694 155.46 28.6678 155.332 28.8954C155.203 29.123 155.124 29.3746 155.102 29.6338C154.971 30.7268 155.741 31.8375 156.506 32.5735C157.272 33.3096 159.158 33.9883 159.811 34.2219C159.676 34.7508 159.541 35.2885 159.383 35.7954C159.271 36.1436 159.185 36.483 159.05 36.8267L158.672 37.836C158.411 38.4707 158.145 39.1274 157.87 39.7401C157.686 40.1808 157.501 40.5731 157.317 40.9786C157.42 40.4497 157.605 39.4051 157.609 39.3169C157.695 37.9286 157.024 35.196 155.538 34.6318C155.288 34.5451 155.023 34.511 154.758 34.5318C154.494 34.5527 154.237 34.628 154.004 34.7529C153.772 34.8777 153.569 35.0493 153.409 35.2563C153.249 35.4633 153.135 35.7011 153.076 35.9541C152.774 37.0163 153.364 38.2415 154.008 39.0657C154.719 39.9737 156.916 41.1328 157.191 41.2695C156.88 41.9394 156.574 42.5917 156.29 43.2043C155.426 44.9673 154.624 46.4791 153.985 47.6118L154.854 48.22C155.48 47.0344 156.281 45.4609 157.146 43.5834C157.465 42.9046 157.789 42.1686 158.114 41.4105C158.894 41.5997 159.685 41.7469 160.482 41.8512C160.63 43.0148 161.729 45.0246 161.873 45.2846C161.234 45.6813 160.612 46.0559 160.018 46.4041C158.325 47.4002 156.839 48.2024 155.673 48.8106L156.619 49.4717C157.708 48.8635 159.032 48.1054 160.509 47.1931C161.162 46.792 161.859 46.3557 162.544 45.8973C162.751 46.1176 164.457 47.9071 165.533 48.3522C166.515 48.7577 167.874 49.0045 168.847 48.4536C169.08 48.3311 169.284 48.162 169.446 47.9574C169.607 47.7527 169.724 47.517 169.786 47.2656C169.849 47.0142 169.857 46.7526 169.81 46.4979C169.763 46.2432 169.662 46.001 169.513 45.7871C168.581 44.5222 165.709 44.5794 164.358 45.007C164.277 45.0334 163.458 45.4036 162.922 45.6461C163.21 45.4609 163.485 45.2802 163.777 45.0819C164.354 44.6985 164.921 44.2974 165.529 43.8654L166.398 43.2043C166.69 42.9928 166.974 42.7283 167.271 42.4903C167.937 41.9173 168.586 41.3091 169.225 40.6833C169.572 41.1769 170.828 42.9134 171.737 43.46C172.647 44.0065 173.948 44.4472 174.992 44.0461C175.242 43.9608 175.47 43.8246 175.663 43.6468C175.855 43.4689 176.007 43.2532 176.108 43.0139C176.209 42.7747 176.257 42.5172 176.25 42.2583C176.242 41.9994 176.179 41.7451 176.064 41.5119C175.339 40.1279 172.493 39.7489 171.089 39.9781C171.003 39.9781 170.017 40.2645 169.477 40.4188C169.855 40.0354 170.238 39.6607 170.612 39.2641C171.688 38.1181 172.741 36.9237 173.799 35.7381L174.776 34.6583C174.898 34.8346 176.343 36.9325 177.36 37.5452C178.261 38.0873 179.575 38.5324 180.62 38.1313C180.869 38.0448 181.096 37.908 181.288 37.7299C181.479 37.5518 181.63 37.3364 181.731 37.0975C181.832 36.8586 181.881 36.6016 181.874 36.3431C181.867 36.0846 181.805 35.8305 181.691 35.5971C180.967 34.2087 178.121 33.8341 176.716 34.0633C176.613 34.0633 175.19 34.4732 174.835 34.5922C175.55 33.7988 176.275 33.0187 177.018 32.2738C178.032 31.2675 179.112 30.3267 180.251 29.4575C180.309 29.5412 181.808 31.7361 182.853 32.362C183.753 32.9041 185.063 33.3493 186.112 32.9482C186.362 32.8622 186.59 32.7258 186.782 32.5478C186.973 32.3698 187.125 32.1542 187.226 31.9151C187.327 31.676 187.376 31.4188 187.368 31.1601C187.361 30.9015 187.298 30.6472 187.184 30.4139C186.455 29.0299 183.609 28.6509 182.209 28.8801C182.115 28.8801 181.034 29.1974 180.521 29.3517L180.48 29.2724C181.636 28.4232 182.867 27.6768 184.159 27.0422C184.865 26.6808 185.559 26.3811 186.243 26.099C186.482 26.5397 187.594 28.5187 188.458 29.1842C189.322 29.8497 190.547 30.4051 191.632 30.1186C191.89 30.0607 192.132 29.9501 192.343 29.7941C192.554 29.6382 192.729 29.4403 192.857 29.2136C192.984 28.9868 193.061 28.7362 193.083 28.4782C193.105 28.2202 193.071 27.9607 192.983 27.7165C192.415 26.2577 189.629 25.5833 188.21 25.6582C188.134 25.6582 187.351 25.7861 186.783 25.8874C187.094 25.764 187.414 25.6318 187.715 25.5216C188.836 25.0809 189.894 24.7856 190.831 24.5123C191.366 24.3625 191.853 24.2346 192.307 24.12C192.758 24.433 194.644 25.6582 195.711 25.8522C196.778 26.0461 198.138 25.9932 198.966 25.2484C199.167 25.0803 199.329 24.8726 199.443 24.639C199.556 24.4054 199.618 24.151 199.625 23.8924C199.631 23.6338 199.582 23.3767 199.48 23.138C199.378 22.8993 199.226 22.6843 199.034 22.5069C197.845 21.4712 195.054 22.1279 193.829 22.8331C193.726 22.8948 192.181 24.0319 192.204 24.0495H192.231C191.781 24.1509 191.33 24.2655 190.804 24.3977C189.858 24.6489 188.791 24.9442 187.652 25.3409C186.424 25.7583 185.222 26.2439 184.05 26.7954C182.72 27.4133 181.448 28.1464 180.251 28.9859L180.21 29.0167C180.485 28.6509 181.228 27.5975 181.273 27.5094C181.943 26.2841 182.506 23.5427 181.399 22.4055C181.21 22.2251 180.984 22.0855 180.736 21.9959C180.488 21.9062 180.224 21.8685 179.961 21.8851C179.697 21.9017 179.44 21.9723 179.206 22.0923C178.972 22.2124 178.767 22.3791 178.603 22.5818C177.878 23.4237 177.887 24.7856 178.117 25.7905C178.382 26.9364 179.949 28.9594 180.075 29.1225C178.89 29.9977 177.765 30.9489 176.707 31.9697C176.091 32.5603 175.487 33.1774 174.907 33.7988C175.136 33.4771 175.357 33.1818 175.357 33.1421C176.028 31.9124 176.59 29.1754 175.483 28.0339C175.294 27.8534 175.068 27.7138 174.82 27.6242C174.573 27.5345 174.308 27.4968 174.045 27.5134C173.781 27.53 173.524 27.6006 173.29 27.7206C173.057 27.8407 172.851 28.0074 172.687 28.2102C171.958 29.052 171.971 30.4139 172.201 31.4188C172.43 32.4237 173.741 34.1999 174.092 34.6627C173.862 34.9007 173.641 35.1431 173.407 35.3855C172.327 36.5491 171.251 37.7126 170.157 38.8277C169.774 39.22 169.378 39.5902 168.986 39.9648C169.189 39.674 169.36 39.4315 169.382 39.3919C170.053 38.1622 170.612 35.4252 169.504 34.288C169.316 34.1067 169.09 33.9662 168.843 33.8758C168.595 33.7854 168.331 33.7471 168.067 33.7633C167.803 33.7795 167.546 33.8499 167.312 33.9699C167.078 34.09 166.872 34.2569 166.708 34.4599C165.983 35.3018 165.992 36.6637 166.226 37.6686C166.461 38.6735 167.636 40.2822 168.027 40.8287C167.618 41.1989 167.203 41.5736 166.785 41.9129C166.492 42.1421 166.231 42.3801 165.925 42.5917L165.024 43.2308C164.448 43.6186 163.854 44.0241 163.282 44.3855C162.886 44.6412 162.503 44.8792 162.121 45.1216C162.508 44.7337 163.251 43.9624 163.305 43.8919C164.016 42.8851 164.453 41.7169 164.574 40.4981C164.659 40.3906 164.733 40.2755 164.795 40.1544C164.921 39.9263 164.996 39.675 165.016 39.4165C165.036 39.1581 165.001 38.8984 164.911 38.6544C164.822 38.4104 164.682 38.1875 164.499 38.0001C164.316 37.8128 164.094 37.6653 163.849 37.5672C162.359 37.0207 160 38.6162 159.113 39.7048C159.059 39.7665 158.573 40.529 158.276 41.027C158.406 40.7141 158.537 40.4144 158.672 40.0927C158.933 39.458 159.181 38.8189 159.446 38.1313C159.559 37.7964 159.68 37.457 159.797 37.1132C159.914 36.7694 160.009 36.4036 160.122 36.0422C160.356 35.2092 160.572 34.3497 160.734 33.4815C161.301 33.7063 163.327 34.4776 164.394 34.4423C165.461 34.407 166.834 34.05 167.483 33.1686C167.642 32.9621 167.755 32.7251 167.815 32.4729C167.875 32.2207 167.879 31.9591 167.829 31.705C167.778 31.4509 167.674 31.2101 167.522 30.9983C167.37 30.7864 167.174 30.6084 166.947 30.4756C165.56 29.7087 162.976 30.9163 161.936 31.8816C161.868 31.9433 161.198 32.7014 160.837 33.1289C160.945 32.6044 161.049 32.0843 161.139 31.551C161.391 30.0128 161.589 28.4658 161.81 26.8923C161.873 26.4119 161.945 25.9403 162.012 25.4643C162.215 25.5437 164.601 26.5133 165.799 26.4736C166.857 26.4384 168.198 26.1034 168.847 25.2043C169.006 24.9972 169.118 24.7598 169.178 24.5074C169.237 24.255 169.242 23.9933 169.191 23.7391C169.141 23.4848 169.036 23.2438 168.885 23.0316C168.733 22.8193 168.538 22.6406 168.311 22.5069C166.924 21.7444 164.34 22.9741 163.3 23.9173C163.219 23.9878 162.256 25.0853 162.026 25.3762C162.179 24.3272 162.341 23.2826 162.544 22.2645C162.801 20.883 163.152 19.5196 163.593 18.1832C163.687 18.2229 166.172 19.241 167.397 19.2013C168.455 19.1661 169.797 18.8311 170.445 17.932C170.604 17.7255 170.718 17.4885 170.777 17.2363C170.837 16.9841 170.842 16.7225 170.791 16.4684C170.741 16.2143 170.636 15.9735 170.484 15.7617C170.332 15.5499 170.136 15.3718 169.909 15.239C168.523 14.4765 165.938 15.7018 164.898 16.645C164.831 16.7067 164.092 17.5265 163.755 17.9672L163.674 17.9232C164.157 16.591 164.759 15.3034 165.475 14.0755C165.862 13.3967 166.271 12.7532 166.681 12.1626C167.131 12.4006 169.166 13.4584 170.283 13.5422C171.399 13.6259 172.714 13.432 173.457 12.6078C173.638 12.4194 173.778 12.1958 173.865 11.9514C173.953 11.707 173.987 11.4473 173.965 11.1892C173.943 10.9311 173.866 10.6803 173.739 10.4532C173.612 10.226 173.438 10.0276 173.227 9.87074C171.935 8.96281 169.229 9.906 168.086 10.7522C168.023 10.7963 167.442 11.3208 167.028 11.7131C167.217 11.4442 167.411 11.1621 167.595 10.9065C168.297 9.95008 169 9.11266 169.63 8.38102C169.99 7.96672 170.323 7.5965 170.639 7.25712C171.201 7.25712 173.452 7.25712 174.452 6.86045C175.451 6.46378 176.559 5.66603 176.829 4.59943C176.902 4.35065 176.92 4.08967 176.883 3.83347C176.846 3.57727 176.754 3.3316 176.613 3.11247C176.473 2.89334 176.287 2.70566 176.067 2.56166C175.847 2.41766 175.599 2.32056 175.339 2.2767C173.763 2.05633 171.805 4.1102 171.183 5.36192C171.129 5.4677 170.481 7.25272 170.513 7.25272H170.544C170.233 7.57446 169.905 7.92706 169.549 8.31491C168.905 9.03333 168.198 9.85752 167.456 10.8051C166.663 11.8163 165.931 12.8714 165.263 13.9653C164.508 15.1875 163.868 16.4738 163.35 17.8086C163.347 17.8246 163.347 17.841 163.35 17.8571C163.377 17.4163 163.399 16.1249 163.39 16.0235C163.26 14.6396 162.175 12.0568 160.621 11.6998C160.361 11.6486 160.092 11.6519 159.832 11.7096C159.573 11.7673 159.329 11.878 159.116 12.0345C158.904 12.191 158.727 12.3897 158.599 12.6177C158.47 12.8456 158.392 13.0976 158.37 13.357C158.253 14.406 159.023 15.5387 159.788 16.2527Z" fill="#263238"/>
<path d="M118.067 31.9345C119.238 31.4937 121.219 29.5765 121.219 29.5765C121.219 29.5765 119.521 28.695 119.418 28.6465C118.09 28.1573 115.226 27.9766 114.236 29.1974C114.077 29.404 113.965 29.641 113.906 29.8929C113.847 30.1448 113.843 30.406 113.894 30.6596C113.945 30.9131 114.05 31.1533 114.202 31.3646C114.354 31.5759 114.549 31.7535 114.776 31.886C115.699 32.481 117.072 32.2871 118.067 31.9345Z" fill="#263238"/>
<path d="M138.88 13.216C138.912 13.216 137.98 11.5588 137.89 11.453C137.057 10.3247 134.77 8.62782 133.257 9.10823C133.008 9.19505 132.78 9.33228 132.589 9.51098C132.398 9.68968 132.247 9.90583 132.147 10.1454C132.047 10.3849 131.999 10.6424 132.007 10.9011C132.016 11.1598 132.079 11.414 132.195 11.6469C132.645 12.6562 133.896 13.2424 134.932 13.4804C136.13 13.7757 138.88 13.216 138.88 13.216Z" fill="#263238"/>
<path d="M124.365 36.9986C125.342 36.3155 126.639 34.1161 126.743 33.9398C128.026 34.6689 129.357 35.3138 130.727 35.8703C131.524 36.2009 132.339 36.505 133.158 36.8047C132.762 36.7209 132.406 36.6504 132.357 36.646C130.943 36.5182 128.129 37.0868 127.503 38.5192C127.407 38.7599 127.363 39.0179 127.375 39.2763C127.386 39.5347 127.453 39.7878 127.571 40.0193C127.689 40.2507 127.856 40.4553 128.06 40.6198C128.264 40.7843 128.5 40.905 128.755 40.9741C129.827 41.3003 131.101 40.767 131.965 40.1632C132.83 39.5593 133.987 37.695 134.279 37.2014L135.225 37.5363C136.742 38.0608 138.259 38.5809 139.727 39.1318C140.245 39.3302 140.744 39.5373 141.249 39.7489C140.902 39.6739 140.605 39.6166 140.56 39.6122C139.142 39.4844 136.332 40.053 135.706 41.481C135.608 41.7216 135.563 41.9798 135.574 42.2388C135.584 42.4977 135.651 42.7515 135.768 42.9836C135.886 43.2157 136.052 43.4209 136.257 43.5857C136.461 43.7506 136.698 43.8714 136.953 43.9403C138.03 44.2665 139.299 43.7332 140.164 43.1294C141.028 42.5256 142.072 40.8419 142.415 40.2557C142.923 40.4849 143.437 40.6965 143.918 40.9565C144.242 41.1328 144.571 41.2782 144.891 41.4722L145.836 42.0187C146.426 42.3889 147.034 42.7636 147.597 43.1382C147.993 43.3982 148.366 43.6495 148.74 43.9051C148.227 43.7068 147.214 43.3365 147.124 43.3145C145.746 42.9751 142.878 43.1162 142.036 44.4428C141.903 44.666 141.82 44.9142 141.791 45.1711C141.763 45.428 141.789 45.688 141.87 45.934C141.951 46.1801 142.083 46.4068 142.259 46.5994C142.436 46.792 142.651 46.9462 142.892 47.052C143.905 47.5368 145.242 47.1975 146.192 46.7303C147.232 46.2146 148.803 44.315 148.997 44.0858C149.614 44.5265 150.212 44.9232 150.771 45.3243C152.396 46.4879 153.751 47.528 154.782 48.3566L155.552 47.6382C154.476 46.814 153.044 45.7518 151.32 44.553C150.694 44.1122 150.014 43.6715 149.312 43.2307C149.645 42.5137 149.933 41.7778 150.176 41.027C151.374 41.0975 153.593 40.41 153.882 40.3218C154.161 41.005 154.426 41.6749 154.665 42.314C155.349 44.1255 155.881 45.7033 156.277 46.9374L157.114 46.1485C156.709 44.9893 156.187 43.5745 155.543 41.9834C155.264 41.2871 154.953 40.5466 154.62 39.7797C154.881 39.621 156.993 38.312 157.636 37.3556C158.222 36.4741 158.721 35.2224 158.348 34.1866C158.268 33.9397 158.137 33.712 157.961 33.5183C157.786 33.3245 157.571 33.1692 157.33 33.0623C157.089 32.9554 156.828 32.8994 156.563 32.898C156.299 32.8966 156.037 32.9497 155.795 33.0539C154.354 33.715 153.882 36.4873 154.066 37.8669C154.066 37.9506 154.291 38.8189 154.44 39.3654C154.305 39.0569 154.174 38.7572 154.03 38.4398C153.751 37.814 153.449 37.1969 153.13 36.5314C152.968 36.2141 152.797 35.8967 152.63 35.575C152.463 35.2533 152.256 34.9315 152.072 34.601C151.621 33.8561 151.131 33.12 150.618 32.3972C151.18 32.1548 153.157 31.2689 153.873 30.4932C154.588 29.7175 155.273 28.5495 155.061 27.4697C155.021 27.2137 154.927 26.9687 154.784 26.7509C154.641 26.533 154.453 26.3471 154.231 26.2053C154.01 26.0635 153.761 25.9689 153.499 25.9278C153.238 25.8867 152.971 25.9 152.716 25.9667C151.189 26.4075 150.289 29.0784 150.257 30.4712C150.257 30.5593 150.347 31.5598 150.406 32.1063C150.095 31.6656 149.789 31.2248 149.46 30.7841C148.506 29.5368 147.507 28.3027 146.512 27.0686C146.205 26.6896 145.904 26.3105 145.611 25.9271C145.809 25.8433 148.182 24.8384 148.983 23.9746C149.695 23.2033 150.383 22.0265 150.176 20.9467C150.136 20.6905 150.041 20.4456 149.898 20.2279C149.754 20.0102 149.565 19.8246 149.343 19.6831C149.122 19.5417 148.872 19.4477 148.61 19.4072C148.349 19.3667 148.082 19.3806 147.826 19.4481C146.304 19.8889 145.404 22.5598 145.373 23.9525C145.373 24.0539 145.503 25.4951 145.553 25.861C144.891 25.0236 144.238 24.1817 143.63 23.3311C142.801 22.1827 142.049 20.9828 141.379 19.739C141.469 19.6993 143.954 18.6636 144.774 17.7733C145.485 17.0064 146.174 15.8296 145.967 14.7498C145.926 14.4939 145.83 14.2493 145.687 14.0318C145.543 13.8143 145.354 13.6287 145.133 13.487C144.911 13.3454 144.662 13.2508 144.401 13.2094C144.14 13.1681 143.873 13.1808 143.617 13.2468C142.09 13.6876 141.195 16.3629 141.163 17.7513C141.163 17.8438 141.258 18.9413 141.321 19.4613L141.231 19.4878C140.593 18.2132 140.071 16.8858 139.673 15.5211C139.443 14.7762 139.268 14.0534 139.11 13.3438C139.596 13.1939 141.789 12.4976 142.622 11.7792C143.455 11.0607 144.233 10.0162 144.143 8.90108C144.134 8.64086 144.069 8.38547 143.952 8.15166C143.835 7.91785 143.669 7.71091 143.464 7.54443C143.26 7.37795 143.022 7.25568 142.765 7.18565C142.509 7.11563 142.241 7.09942 141.978 7.1381C140.411 7.41577 139.223 9.97209 139.033 11.3516C139.033 11.4266 139.002 12.2023 138.997 12.7664C138.934 12.4447 138.858 12.1141 138.804 11.8056C138.588 10.642 138.466 9.57102 138.354 8.61901C138.3 8.07248 138.264 7.58325 138.232 7.12488C138.628 6.73702 140.209 5.16356 140.596 4.16748C140.983 3.17139 141.19 1.85797 140.596 0.92359C140.464 0.699204 140.285 0.504542 140.071 0.352296C139.857 0.200049 139.613 0.093635 139.355 0.0399905C139.096 -0.013654 138.828 -0.0133247 138.57 0.0409573C138.311 0.0952392 138.067 0.202254 137.854 0.355028C136.593 1.30704 136.737 4.11459 137.219 5.4236C137.26 5.53379 138.12 7.23066 138.142 7.21303L138.165 7.18658C138.165 7.62733 138.21 8.10774 138.25 8.62341C138.331 9.57983 138.43 10.6641 138.619 11.832C138.807 13.0937 139.071 14.3433 139.412 15.574C139.782 16.9544 140.278 18.2996 140.893 19.5936L140.92 19.6376C140.6 19.3027 139.682 18.3991 139.605 18.3154C138.498 17.4339 135.832 16.3938 134.504 17.2532C134.287 17.4012 134.104 17.5923 133.968 17.814C133.831 18.0358 133.744 18.2833 133.712 18.5403C133.68 18.7973 133.703 19.0581 133.781 19.3057C133.858 19.5532 133.988 19.782 134.162 19.977C134.874 20.8277 136.233 21.0701 137.314 21.0304C138.511 20.9907 140.834 19.858 141.019 19.7655C141.681 21.0687 142.433 22.3262 143.27 23.5294C143.747 24.2346 144.256 24.9266 144.769 25.6186C144.486 25.3365 144.233 25.0897 144.193 25.0588C143.085 24.1773 140.42 23.1372 139.092 23.9966C138.875 24.1446 138.692 24.3357 138.556 24.5574C138.419 24.7792 138.332 25.0267 138.299 25.2837C138.267 25.5407 138.291 25.8015 138.368 26.0491C138.446 26.2966 138.576 26.5254 138.75 26.7204C139.461 27.5711 140.821 27.8135 141.901 27.7782C142.982 27.743 144.976 26.813 145.503 26.5573C145.706 26.8218 145.899 27.0862 146.102 27.3463C147.07 28.6068 148.042 29.8585 148.956 31.1102C149.28 31.551 149.582 31.9917 149.884 32.4325L149.384 31.9433C148.276 31.0618 145.611 30.026 144.283 30.8811C144.066 31.029 143.883 31.2201 143.747 31.4419C143.61 31.6637 143.523 31.9111 143.49 32.1681C143.458 32.4252 143.482 32.686 143.559 32.9335C143.637 33.1811 143.767 33.4098 143.941 33.6049C144.648 34.4599 146.012 34.7023 147.092 34.6627C148.173 34.623 149.974 33.7812 150.6 33.4903C150.897 33.9575 151.194 34.4247 151.459 34.8874C151.63 35.2092 151.82 35.5089 151.977 35.8394C152.135 36.17 152.301 36.4873 152.459 36.8091C152.743 37.4349 153.035 38.0784 153.296 38.6955C153.481 39.1362 153.647 39.5373 153.819 39.9516C153.503 39.5109 152.864 38.6294 152.806 38.5853C151.926 37.7137 150.833 37.0765 149.632 36.7342C149.539 36.6329 149.437 36.5413 149.325 36.4609C149.12 36.298 148.881 36.1794 148.625 36.1129C148.369 36.0465 148.102 36.0336 147.84 36.0752C147.579 36.1168 147.33 36.2119 147.108 36.3543C146.887 36.4967 146.699 36.6832 146.557 36.9016C145.733 38.2239 146.894 40.8022 147.826 41.8512C147.88 41.9129 148.556 42.5211 148.983 42.9002C148.695 42.7151 148.42 42.5344 148.123 42.3493C147.534 41.979 146.935 41.622 146.295 41.243L145.337 40.7141C145.021 40.529 144.661 40.3747 144.324 40.2072C143.527 39.8238 142.703 39.4756 141.865 39.1406C142.194 38.6382 143.342 36.8311 143.504 35.7998C143.666 34.7684 143.576 33.4198 142.793 32.6308C142.616 32.4383 142.4 32.2844 142.158 32.179C141.916 32.0736 141.655 32.0192 141.39 32.0192C141.126 32.0192 140.864 32.0736 140.623 32.179C140.381 32.2844 140.165 32.4383 139.988 32.6308C138.966 33.8252 139.722 36.5358 140.479 37.7126C140.524 37.7875 141.168 38.5941 141.528 38.9952C141.019 38.8013 140.515 38.6029 139.997 38.4178C138.502 37.8933 136.972 37.4041 135.445 36.9105L134.05 36.4697C134.167 36.2934 135.58 34.1734 135.76 33.0143C135.918 31.9873 135.832 30.6342 135.049 29.8497C134.872 29.6572 134.656 29.5033 134.414 29.3979C134.173 29.2925 133.911 29.2381 133.647 29.2381C133.382 29.2381 133.121 29.2925 132.879 29.3979C132.637 29.5033 132.421 29.6572 132.244 29.8497C131.222 31.0441 131.979 33.7591 132.735 34.9359C132.789 35.0241 133.712 36.1524 133.964 36.43C132.938 36.0863 131.92 35.7425 130.934 35.359C129.598 34.8523 128.296 34.2635 127.035 33.5961C127.089 33.5123 128.575 31.3042 128.76 30.123C128.922 29.096 128.832 27.743 128.048 26.954C127.871 26.7615 127.655 26.6076 127.413 26.5022C127.172 26.3968 126.91 26.3424 126.646 26.3424C126.381 26.3424 126.12 26.3968 125.878 26.5022C125.637 26.6076 125.42 26.7615 125.243 26.954C124.221 28.1484 124.978 30.859 125.734 32.0358C125.784 32.1151 126.486 32.9746 126.828 33.358L126.77 33.4286C125.522 32.7144 124.343 31.8929 123.244 30.9736C122.632 30.4756 122.074 29.9643 121.547 29.4575C121.867 29.074 123.307 27.3066 123.591 26.262C123.875 25.2175 123.933 23.9041 123.24 23.0358C123.085 22.8261 122.887 22.6508 122.658 22.5211C122.429 22.3915 122.175 22.3106 121.912 22.2835C121.649 22.2565 121.383 22.284 121.132 22.3643C120.88 22.4445 120.649 22.5757 120.453 22.7493C119.301 23.8291 119.751 26.6058 120.368 27.8575C120.404 27.9237 120.818 28.5804 121.137 29.052C120.903 28.8184 120.656 28.5848 120.435 28.3556C119.602 27.5049 118.891 26.6763 118.274 25.9359C117.923 25.4951 117.617 25.1205 117.329 24.7547C117.446 24.217 117.873 22.0529 117.639 21.0128C117.405 19.9726 116.829 18.765 115.807 18.3066C115.561 18.1883 115.292 18.1239 115.018 18.1176C114.745 18.1114 114.473 18.1636 114.222 18.2705C113.971 18.3775 113.747 18.5366 113.565 18.7369C113.383 18.9372 113.248 19.1739 113.169 19.4305C112.655 20.907 114.357 23.168 115.496 24.001C115.595 24.0715 117.266 25.0236 117.275 24.9971C117.284 24.9707 117.275 24.9707 117.275 24.9618C117.54 25.3233 117.828 25.7067 118.175 26.1166C118.778 26.8703 119.472 27.7165 120.287 28.5892C121.155 29.5405 122.079 30.4411 123.055 31.2865C124.144 32.2369 125.316 33.0908 126.558 33.8385H126.608C126.157 33.7327 124.874 33.4682 124.775 33.4594C123.362 33.3316 120.548 33.9002 119.922 35.3282C119.824 35.5692 119.78 35.8275 119.791 36.0865C119.803 36.3454 119.869 36.5991 119.988 36.8311C120.106 37.063 120.272 37.2681 120.477 37.4329C120.681 37.5977 120.918 37.7185 121.173 37.7875C122.231 38.1357 123.524 37.6024 124.365 36.9986Z" fill="#263238"/>
<path d="M51.417 163.783C52.2544 164.065 53.6681 165.419 53.6681 165.419C53.6681 165.419 52.4705 166.075 52.3894 166.106C51.4485 166.476 49.409 166.648 48.6842 165.793C48.5692 165.648 48.4865 165.48 48.4415 165.301C48.3964 165.122 48.39 164.936 48.4227 164.755C48.4553 164.574 48.5263 164.401 48.631 164.248C48.7357 164.095 48.8719 163.966 49.0308 163.867C49.7197 163.426 50.7011 163.541 51.417 163.783Z" fill="#263238"/>
<path d="M66.5399 176.825C66.5399 176.825 65.9096 178.02 65.86 178.09C65.2838 178.905 63.6765 180.148 62.5915 179.827C62.4134 179.767 62.2499 179.672 62.1115 179.547C61.9732 179.423 61.8629 179.271 61.7879 179.102C61.7129 178.933 61.6748 178.751 61.6759 178.567C61.677 178.383 61.7175 178.201 61.7946 178.033C62.1052 177.31 62.9832 176.874 63.717 176.688C64.5769 176.473 66.5399 176.825 66.5399 176.825Z" fill="#263238"/>
<path d="M55.8291 160.103C56.536 160.575 57.4949 162.126 57.5715 162.25C58.4756 161.71 59.4156 161.23 60.3853 160.813C60.9481 160.57 61.5244 160.337 62.1006 160.116C61.8215 160.178 61.5694 160.235 61.5334 160.235C60.5294 160.35 58.5169 159.989 58.0442 158.975C57.9735 158.805 57.9397 158.622 57.945 158.439C57.9503 158.255 57.9946 158.075 58.0751 157.909C58.1555 157.743 58.2704 157.595 58.4124 157.475C58.5543 157.355 58.7203 157.266 58.8996 157.212C59.6605 156.961 60.5744 157.322 61.2002 157.741C61.826 158.16 62.6814 159.473 62.8975 159.821L63.5683 159.566C64.6398 159.169 65.7113 158.777 66.7513 158.362C67.1205 158.217 67.4762 158.058 67.8319 157.922L67.3411 158.027C66.3326 158.138 64.3202 157.776 63.852 156.762C63.7812 156.592 63.7474 156.41 63.7528 156.226C63.7581 156.043 63.8024 155.862 63.8829 155.696C63.9633 155.531 64.0782 155.383 64.2201 155.263C64.3621 155.143 64.528 155.053 64.7074 154.999C65.4637 154.748 66.3777 155.114 67.0035 155.528C67.6293 155.943 68.3991 157.133 68.6648 157.547C69.0204 157.375 69.3851 157.203 69.7228 157.022C69.9524 156.895 70.173 156.784 70.4071 156.643L71.0734 156.238C71.4876 155.969 71.9198 155.687 72.316 155.414L73.0994 154.814C72.7347 154.964 72.0189 155.255 71.9558 155.255C70.9789 155.515 68.9304 155.453 68.3136 154.523C68.2159 154.366 68.1531 154.189 68.1291 154.006C68.1052 153.823 68.1206 153.637 68.1745 153.461C68.2283 153.284 68.3194 153.12 68.4418 152.98C68.5643 152.839 68.7154 152.726 68.8854 152.646C69.5967 152.289 70.5557 152.509 71.24 152.831C71.9243 153.153 73.1354 154.515 73.2795 154.682C73.7297 154.374 74.1349 154.065 74.5266 153.774C75.6656 152.919 76.6156 152.152 77.3404 151.57L77.8987 152.073C77.1423 152.672 76.1383 153.452 74.9272 154.316C74.477 154.634 74.0268 154.964 73.5181 155.295C73.7649 155.801 73.9814 156.32 74.1664 156.851C75.0668 156.877 75.9591 157.026 76.8181 157.291C77.0072 156.798 77.1873 156.317 77.3449 155.859C77.7951 154.559 78.1643 153.426 78.4254 152.54L79.0332 153.087C78.7631 153.92 78.4119 154.938 77.9797 156.084C77.7906 156.582 77.579 157.115 77.3539 157.661C77.543 157.767 79.0692 158.671 79.542 159.345C80.0147 160.019 80.3478 160.848 80.0957 161.593C80.0418 161.769 79.9508 161.933 79.8287 162.073C79.7065 162.213 79.5558 162.326 79.3863 162.406C79.2168 162.485 79.0321 162.529 78.8442 162.535C78.6563 162.541 78.4691 162.508 78.2949 162.439C77.2594 161.998 76.8767 160.015 76.9847 159.028C76.9847 158.971 77.1333 158.349 77.2323 157.957C77.1378 158.177 77.0523 158.398 76.9532 158.622C76.7641 159.063 76.557 159.504 76.3409 159.997C76.2284 160.222 76.1158 160.438 75.9988 160.685C75.8817 160.932 75.7421 161.152 75.6161 161.386C75.3054 161.928 74.9678 162.457 74.6121 162.986C75.0173 163.153 76.44 163.757 76.9622 164.308C77.4845 164.859 77.9887 165.674 77.8627 166.45C77.8364 166.632 77.7716 166.807 77.6725 166.963C77.5734 167.119 77.4422 167.253 77.2871 167.357C77.132 167.461 76.9566 167.531 76.772 167.565C76.5874 167.599 76.3976 167.594 76.2149 167.552C75.1208 167.261 74.4365 165.37 74.414 164.378C74.414 164.317 74.459 163.603 74.495 163.21C74.2789 163.528 74.0448 163.841 73.8377 164.154C73.1759 165.057 72.4871 165.952 71.7892 166.847C71.5776 167.12 71.3706 167.398 71.1635 167.671C71.3075 167.728 73.0138 168.411 73.5991 169.02C74.1169 169.557 74.6256 170.386 74.4995 171.157C74.4734 171.34 74.4085 171.515 74.3091 171.671C74.2097 171.828 74.078 171.962 73.9224 172.066C73.7669 172.17 73.5908 172.24 73.4057 172.274C73.2205 172.307 73.0303 172.302 72.8473 172.259C71.7532 171.968 71.0734 170.077 71.0464 169.086C71.0464 169.011 71.1139 167.984 71.1454 167.724C70.6952 168.328 70.245 168.936 69.7948 169.553C69.2238 170.384 68.7066 171.25 68.2461 172.144C68.3136 172.171 70.1009 172.876 70.6997 173.497C71.2175 174.035 71.7262 174.864 71.6002 175.64C71.574 175.822 71.5091 175.997 71.4097 176.154C71.3103 176.31 71.1786 176.445 71.023 176.548C70.8675 176.652 70.6915 176.723 70.5063 176.756C70.3211 176.789 70.1309 176.784 69.9479 176.741C68.8538 176.446 68.174 174.538 68.147 173.568C68.147 173.502 68.1965 172.717 68.2326 172.347H68.1695C67.7338 173.261 67.3827 174.211 67.1205 175.186C66.9675 175.719 66.8504 176.239 66.7513 176.75C67.098 176.847 68.6738 177.31 69.2771 177.812C69.8803 178.315 70.4521 179.06 70.4071 179.84C70.4016 180.024 70.3569 180.205 70.2759 180.371C70.1948 180.537 70.0791 180.685 69.9363 180.805C69.7934 180.925 69.6265 181.015 69.4463 181.068C69.2661 181.121 69.0766 181.136 68.8899 181.114C67.7688 180.942 66.8819 179.135 66.7243 178.156C66.7243 178.103 66.6928 177.552 66.6793 177.147C66.6388 177.38 66.5893 177.614 66.5578 177.834C66.4227 178.667 66.3507 179.434 66.2921 180.113C66.2606 180.501 66.2426 180.854 66.2291 181.18C66.5172 181.453 67.6653 182.55 67.9579 183.256C68.2506 183.961 68.4081 184.891 68.0074 185.565C67.9155 185.725 67.7903 185.865 67.64 185.976C67.4896 186.086 67.3174 186.164 67.1344 186.206C66.9513 186.247 66.7615 186.251 66.5769 186.217C66.3923 186.182 66.2171 186.11 66.0625 186.006C65.1621 185.349 65.2071 183.361 65.5313 182.405C65.5628 182.321 66.1481 181.083 66.1616 181.114C66.1616 180.796 66.1616 180.457 66.2021 180.087C66.2426 179.403 66.2966 178.632 66.4137 177.799C66.5314 176.897 66.7013 176.003 66.9224 175.119C67.1665 174.129 67.4995 173.161 67.9174 172.228C67.9189 172.218 67.9189 172.208 67.9174 172.197C67.6968 172.44 67.0575 173.101 67.017 173.145C66.2381 173.784 64.3562 174.569 63.3927 173.978C63.2366 173.875 63.1042 173.74 63.0042 173.584C62.9042 173.428 62.8387 173.252 62.812 173.07C62.7853 172.887 62.7979 172.701 62.8491 172.523C62.9003 172.346 62.9888 172.181 63.1091 172.039C63.6043 171.422 64.5678 171.232 65.3287 171.241C66.1796 171.241 67.8544 172.03 67.9849 172.092C68.4274 171.149 68.9327 170.236 69.4977 169.359C69.8308 168.848 70.182 168.345 70.5377 167.847C70.3396 168.05 70.1595 168.231 70.1325 168.253C69.3581 168.892 67.4717 169.676 66.5307 169.086C66.3746 168.982 66.2422 168.848 66.1422 168.692C66.0422 168.535 65.9767 168.36 65.95 168.178C65.9233 167.995 65.9359 167.809 65.9871 167.631C66.0383 167.454 66.1268 167.288 66.2471 167.146C66.7378 166.529 67.7058 166.34 68.4622 166.349C69.2185 166.357 70.6727 166.992 71.0509 167.164L71.4651 166.595C72.1359 165.683 72.8157 164.775 73.446 163.867C73.6666 163.55 73.8963 163.224 74.0853 162.902C73.9098 163.083 73.7612 163.237 73.7342 163.255C72.9553 163.894 71.0734 164.678 70.1325 164.088C69.977 163.984 69.8452 163.85 69.7457 163.694C69.6461 163.538 69.5809 163.364 69.5542 163.181C69.5275 162.999 69.5399 162.814 69.5906 162.637C69.6414 162.459 69.7293 162.295 69.8488 162.153C70.3396 161.531 71.3075 161.342 72.0639 161.351C72.8202 161.359 74.1304 161.932 74.5806 162.135C74.7877 161.8 74.9903 161.465 75.1749 161.13C75.2919 160.897 75.4225 160.689 75.5305 160.443C75.6386 160.196 75.7511 159.975 75.8592 159.746C76.0483 159.305 76.2509 158.829 76.4265 158.389C76.5525 158.08 76.6651 157.785 76.7776 157.485C76.5615 157.807 76.1203 158.424 76.0753 158.472C75.4653 159.109 74.6976 159.579 73.8467 159.839C73.7803 159.911 73.708 159.977 73.6306 160.037C73.4864 160.156 73.3184 160.243 73.1376 160.294C72.9567 160.345 72.7669 160.359 72.5804 160.334C72.3939 160.309 72.2147 160.246 72.0544 160.15C71.8942 160.053 71.7563 159.925 71.6497 159.773C71.0419 158.834 71.8343 156.987 72.4781 156.22C72.5186 156.176 72.9868 155.735 73.2885 155.458C73.0859 155.594 72.8923 155.727 72.6807 155.863C72.271 156.137 71.8478 156.397 71.3976 156.679L70.7222 157.071C70.5016 157.208 70.245 157.322 70.0064 157.446C69.4481 157.732 68.8629 157.992 68.2686 158.239C68.5117 158.596 69.3581 159.87 69.4887 160.601C69.6192 161.333 69.5787 162.298 69.0384 162.871C68.9137 163.009 68.7609 163.12 68.5898 163.197C68.4188 163.274 68.2332 163.315 68.0449 163.317C67.8567 163.32 67.6701 163.284 67.4969 163.211C67.3238 163.139 67.1679 163.032 67.0395 162.898C66.2966 162.06 66.7919 160.116 67.3141 159.266C67.3456 159.213 67.7913 158.644 68.039 158.336C67.6833 158.486 67.3276 158.631 66.9584 158.777C65.9004 159.173 64.8154 159.543 63.7349 159.918C63.4062 160.028 63.0776 160.147 62.7489 160.266C62.8345 160.39 63.8745 161.879 64.0185 162.704C64.1491 163.431 64.1086 164.396 63.5683 164.969C63.444 165.107 63.2917 165.217 63.1212 165.294C62.9507 165.371 62.7657 165.412 62.578 165.415C62.3904 165.418 62.2042 165.383 62.0313 165.311C61.8584 165.24 61.7026 165.134 61.5739 165C60.8265 164.162 61.3218 162.219 61.844 161.368C61.88 161.302 62.5238 160.487 62.6949 160.284C61.9701 160.544 61.2497 160.804 60.5519 161.095C59.6055 161.474 58.6864 161.916 57.8011 162.417C57.8416 162.474 58.9311 164.026 59.0842 164.868C59.2102 165.595 59.1697 166.56 58.634 167.133C58.5096 167.271 58.357 167.383 58.1861 167.46C58.0152 167.537 57.8297 167.579 57.6415 167.582C57.4532 167.584 57.2665 167.549 57.0932 167.477C56.9198 167.405 56.7638 167.298 56.635 167.164C55.8877 166.327 56.3829 164.383 56.9051 163.532C56.9412 163.475 57.4274 162.853 57.666 162.563L57.621 162.514C56.7426 163.04 55.914 163.642 55.1448 164.312C54.7171 164.678 54.3299 165.048 53.9607 165.419C54.1904 165.687 55.2439 166.926 55.4645 167.666C55.6851 168.407 55.7436 169.346 55.2664 169.972C55.158 170.122 55.0186 170.25 54.8571 170.345C54.6955 170.44 54.5155 170.5 54.3285 170.523C54.1415 170.546 53.9517 170.53 53.7713 170.477C53.5909 170.424 53.4238 170.334 53.2809 170.214C52.4435 169.465 52.7181 167.481 53.1413 166.578C53.1639 166.529 53.4565 166.058 53.6726 165.696C53.5105 165.864 53.3349 166.036 53.1819 166.203C52.6011 166.82 52.1104 167.424 51.6782 167.966C51.435 168.27 51.2279 168.557 51.0253 168.821C51.1154 169.2 51.453 170.738 51.3 171.466C51.1469 172.193 50.7597 173.079 50.0349 173.418C49.8682 173.503 49.6853 173.553 49.4979 173.564C49.3105 173.576 49.1227 173.549 48.9464 173.486C48.7702 173.422 48.6094 173.323 48.4743 173.196C48.3393 173.068 48.2329 172.914 48.162 172.744C47.7748 171.699 48.9544 170.06 49.7512 169.451C49.8233 169.399 50.9983 168.698 51.0028 168.715C51.1874 168.455 51.39 168.178 51.6151 167.882C52.0338 167.336 52.5155 166.719 53.0828 166.089C53.689 165.399 54.3354 164.744 55.0187 164.127C55.7677 163.453 56.5752 162.844 57.4319 162.307H57.4634C57.1438 162.391 56.2343 162.598 56.1668 162.607C55.1583 162.717 53.1459 162.355 52.6776 161.342C52.6068 161.172 52.5728 160.99 52.5779 160.806C52.5829 160.623 52.6268 160.443 52.7068 160.277C52.7869 160.111 52.9012 159.963 53.0427 159.843C53.1842 159.723 53.3496 159.633 53.5285 159.579C54.2894 159.301 55.2033 159.662 55.8291 160.103Z" fill="#263238"/>
<path d="M78.6912 170.086C79.5196 169.764 81.5096 169.879 81.5096 169.879C81.5096 169.879 81.0323 171.139 80.9918 171.201C80.5416 172.083 79.0874 173.506 77.9664 173.317C77.7825 173.279 77.6088 173.204 77.4562 173.097C77.3036 172.99 77.1756 172.852 77.0803 172.694C76.9849 172.535 76.9244 172.359 76.9026 172.177C76.8807 171.994 76.898 171.809 76.9534 171.633C77.1515 170.893 77.9889 170.355 78.6912 170.086Z" fill="#263238"/>
<path d="M98.8428 170.373C98.8428 170.373 99.1579 171.695 99.1669 171.765C99.2705 172.753 98.8788 174.718 97.8163 175.163C97.6414 175.232 97.4537 175.265 97.2653 175.258C97.0769 175.252 96.8919 175.207 96.7223 175.127C96.5527 175.046 96.4021 174.932 96.2804 174.791C96.1587 174.65 96.0684 174.486 96.0154 174.308C95.7678 173.564 96.1505 172.669 96.5827 172.065C97.1185 171.351 98.8428 170.373 98.8428 170.373Z" fill="#263238"/>
<path d="M79.587 164.462C80.4379 164.374 82.1938 164.943 82.3333 164.987C82.6636 164.001 83.0607 163.038 83.5219 162.104C83.783 161.562 84.0712 161.02 84.3593 160.482C84.1927 160.707 84.0351 160.923 84.0126 160.923C83.3193 161.646 81.55 162.655 80.5235 162.184C80.3553 162.1 80.2069 161.983 80.0878 161.84C79.9687 161.697 79.8815 161.531 79.8319 161.352C79.7823 161.174 79.7713 160.988 79.7997 160.806C79.8281 160.623 79.8952 160.448 79.9967 160.293C80.4064 159.623 81.3474 159.314 82.0947 159.235C82.8421 159.156 84.3683 159.605 84.769 159.733L85.1067 159.116C85.6604 158.129 86.2142 157.15 86.7274 156.172C86.912 155.828 87.0741 155.484 87.2407 155.136C87.0921 155.339 86.9615 155.506 86.939 155.528C86.2502 156.255 84.4764 157.26 83.4499 156.789C83.2823 156.705 83.1345 156.588 83.0158 156.445C82.8972 156.303 82.8102 156.137 82.7607 155.96C82.7111 155.782 82.6999 155.596 82.7279 155.414C82.7559 155.232 82.8224 155.058 82.9231 154.902C83.3373 154.228 84.2738 153.924 85.0256 153.845C85.7775 153.765 87.1506 154.171 87.6234 154.321C87.7809 153.959 87.943 153.602 88.0736 153.245C88.1636 153.003 88.2672 152.774 88.3392 152.522C88.4112 152.271 88.5013 152.033 88.5778 151.791C88.7129 151.319 88.8524 150.839 88.974 150.376C89.0595 150.054 89.1316 149.746 89.2081 149.437C89.0325 149.781 88.6724 150.451 88.6363 150.504C88.0646 151.324 86.4708 152.58 85.3813 152.267C85.2026 152.209 85.0382 152.115 84.8988 151.991C84.7593 151.867 84.6479 151.716 84.5716 151.548C84.4953 151.379 84.4558 151.197 84.4557 151.013C84.4556 150.828 84.4948 150.646 84.5709 150.477C84.8725 149.755 85.7505 149.309 86.4843 149.12C87.2902 148.908 89.0415 149.19 89.2621 149.226C89.3882 148.714 89.5053 148.216 89.6043 147.745C89.9059 146.37 90.1175 145.184 90.2706 144.263L91.027 144.294C90.8559 145.228 90.6083 146.458 90.2616 147.886C90.1356 148.406 89.996 148.961 89.8429 149.53C90.3658 149.754 90.874 150.011 91.3646 150.297C92.0699 149.753 92.8487 149.308 93.6787 148.974C93.4942 148.476 93.3096 148 93.1295 147.551C92.6162 146.268 92.1345 145.18 91.7428 144.338L92.5712 144.369C92.9179 145.175 93.3276 146.167 93.7553 147.317C93.9489 147.815 94.138 148.357 94.3316 148.913C94.5477 148.877 96.3035 148.591 97.1094 148.798C97.8432 148.988 98.7211 149.428 99.0273 150.156C99.1034 150.324 99.1426 150.506 99.1425 150.691C99.1424 150.875 99.1029 151.057 99.0266 151.226C98.9503 151.394 98.8388 151.545 98.6994 151.669C98.56 151.793 98.3956 151.887 98.2169 151.945C97.1274 152.262 95.5156 151.006 94.9619 150.182C94.9258 150.134 94.6197 149.569 94.4351 149.212C94.5116 149.437 94.5882 149.653 94.6647 149.896C94.8178 150.358 94.9619 150.826 95.1149 151.328C95.178 151.575 95.2455 151.822 95.3085 152.068C95.3716 152.315 95.4256 152.589 95.4841 152.849C95.6057 153.452 95.7047 154.074 95.7857 154.7C96.1999 154.567 97.6812 154.122 98.4375 154.202C99.1939 154.281 100.126 154.585 100.54 155.259C100.641 155.415 100.708 155.589 100.736 155.77C100.764 155.952 100.754 156.138 100.704 156.315C100.655 156.493 100.569 156.659 100.451 156.802C100.332 156.945 100.185 157.062 100.018 157.146C98.9913 157.622 97.2174 156.617 96.5286 155.894C96.4836 155.846 96.0469 155.273 95.8128 154.951C95.8578 155.33 95.9073 155.705 95.9433 156.088C96.0424 157.194 96.1054 158.318 96.1774 159.438C96.1774 159.781 96.2225 160.121 96.245 160.465C96.3935 160.416 98.1449 159.848 98.9913 159.936C99.7431 160.015 100.68 160.319 101.094 160.989C101.195 161.144 101.263 161.319 101.292 161.501C101.32 161.683 101.31 161.87 101.26 162.048C101.211 162.226 101.125 162.392 101.006 162.535C100.887 162.679 100.739 162.796 100.572 162.88C99.545 163.351 97.7712 162.351 97.0779 161.624C97.0283 161.571 96.398 160.742 96.2495 160.526C96.3035 161.28 96.362 162.029 96.4521 162.765C96.5705 163.76 96.7524 164.746 96.9968 165.718C97.0689 165.696 98.8922 165.097 99.7566 165.189C100.509 165.264 101.445 165.573 101.859 166.243C101.961 166.398 102.028 166.573 102.057 166.755C102.086 166.937 102.075 167.123 102.026 167.301C101.977 167.48 101.89 167.646 101.771 167.789C101.653 167.932 101.505 168.05 101.337 168.134C100.31 168.605 98.5366 167.605 97.8477 166.877C97.8027 166.829 97.321 166.199 97.1004 165.895L97.0418 165.921C97.3166 166.895 97.6813 167.842 98.1314 168.751C98.37 169.253 98.6266 169.72 98.8877 170.17C99.2164 170.024 100.725 169.372 101.512 169.372C102.3 169.372 103.237 169.57 103.719 170.196C103.836 170.34 103.922 170.505 103.971 170.683C104.019 170.86 104.029 171.046 104.001 171.228C103.972 171.409 103.905 171.583 103.803 171.738C103.702 171.893 103.569 172.025 103.412 172.127C102.444 172.709 100.572 171.902 99.8107 171.245C99.7702 171.21 99.3605 170.805 99.1083 170.509C99.2299 170.708 99.3515 170.919 99.473 171.109C99.9232 171.827 100.373 172.453 100.783 173.008C101.017 173.321 101.233 173.599 101.445 173.859C101.841 173.859 103.444 173.982 104.146 174.33C104.849 174.679 105.578 175.287 105.717 176.058C105.755 176.239 105.753 176.425 105.713 176.605C105.672 176.785 105.594 176.955 105.482 177.104C105.371 177.252 105.229 177.376 105.065 177.468C104.902 177.56 104.721 177.617 104.533 177.636C103.403 177.715 102.116 176.155 101.738 175.234C101.706 175.155 101.341 173.854 101.364 173.854H101.386C101.179 173.612 100.963 173.348 100.734 173.052C100.31 172.506 99.8332 171.884 99.383 171.175C98.8727 170.416 98.4082 169.629 97.9918 168.817C97.5196 167.909 97.1309 166.962 96.8303 165.987C96.8303 165.987 96.8303 165.961 96.8303 165.952C96.8303 166.278 96.7762 167.186 96.7627 167.274C96.5961 168.253 95.6867 170.046 94.5657 170.209C94.3785 170.23 94.1889 170.213 94.0091 170.158C93.8294 170.103 93.6633 170.011 93.5217 169.89C93.3801 169.768 93.266 169.619 93.1869 169.452C93.1077 169.284 93.0651 169.103 93.0619 168.918C93.0259 168.134 93.6337 167.371 94.2145 166.9C94.8718 166.366 96.6592 165.89 96.8032 165.851C96.5221 164.852 96.3101 163.836 96.1684 162.809C96.0829 162.21 96.0154 161.606 95.9523 160.998C95.9523 161.28 95.9253 161.531 95.9163 161.566C95.7497 162.545 94.8403 164.339 93.7193 164.502C93.5282 164.527 93.3337 164.512 93.1491 164.457C92.9645 164.403 92.7939 164.31 92.6489 164.186C92.5039 164.061 92.3878 163.908 92.3084 163.736C92.229 163.564 92.1881 163.377 92.1885 163.188C92.1525 162.408 92.7603 161.646 93.3411 161.17C93.9219 160.694 95.4481 160.257 95.8488 160.147C95.8488 159.914 95.8083 159.68 95.7857 159.447C95.6912 158.327 95.6012 157.212 95.4796 156.119C95.4391 155.731 95.3806 155.352 95.3265 154.977C95.3265 155.224 95.2995 155.418 95.295 155.467C95.1284 156.445 94.219 158.243 93.0935 158.402C92.9067 158.422 92.7176 158.404 92.5383 158.349C92.3591 158.293 92.1936 158.202 92.0525 158.08C91.9114 157.959 91.7977 157.81 91.7188 157.643C91.6399 157.476 91.5975 157.295 91.5943 157.111C91.5582 156.33 92.166 155.568 92.7468 155.096C93.3276 154.625 94.7052 154.215 95.1825 154.087C95.1149 153.704 95.0474 153.316 94.9619 152.946C94.8988 152.694 94.8538 152.447 94.7773 152.196L94.5612 151.46C94.4081 150.993 94.255 150.513 94.111 150.063C94.0029 149.75 93.8903 149.455 93.7823 149.155C93.8273 149.539 93.9039 150.292 93.9039 150.354C93.8592 151.225 93.5863 152.071 93.1115 152.809C93.1118 152.906 93.1028 153.004 93.0845 153.1C93.0533 153.282 92.9836 153.455 92.8798 153.609C92.776 153.763 92.6405 153.894 92.4819 153.994C92.3233 154.093 92.1452 154.159 91.959 154.188C91.7728 154.216 91.5826 154.206 91.4007 154.158C90.3156 153.831 89.6898 151.923 89.6763 150.931C89.6763 150.874 89.7349 150.239 89.7844 149.838C89.7169 150.067 89.6583 150.279 89.5908 150.53C89.4602 151.002 89.3117 151.469 89.1406 151.971C89.0595 152.209 88.974 152.452 88.8885 152.694C88.8029 152.937 88.6949 153.188 88.5958 153.435C88.3572 154.008 88.0871 154.576 87.8034 155.145C88.2221 155.259 89.7124 155.687 90.2976 156.163C90.8829 156.639 91.4907 157.393 91.4547 158.177C91.4521 158.362 91.4101 158.543 91.3315 158.711C91.2528 158.878 91.1393 159.028 90.9981 159.15C90.8569 159.272 90.6912 159.364 90.5117 159.419C90.3321 159.475 90.1427 159.493 89.9555 159.473C88.8299 159.31 87.9205 157.52 87.7494 156.542C87.7494 156.48 87.6999 155.762 87.6864 155.37C87.5108 155.709 87.3397 156.048 87.1506 156.388C86.6104 157.362 86.0341 158.336 85.4578 159.305L84.9401 160.187C85.0886 160.227 86.8715 160.698 87.5243 161.227C88.1771 161.756 88.7174 162.461 88.6859 163.246C88.6827 163.43 88.6401 163.612 88.561 163.779C88.4818 163.946 88.3677 164.096 88.2261 164.217C88.0845 164.339 87.9185 164.43 87.7387 164.485C87.5589 164.54 87.3693 164.558 87.1821 164.537C86.0611 164.378 85.1472 162.585 84.9806 161.606C84.9806 161.531 84.9086 160.504 84.9086 160.24C84.5304 160.897 84.1567 161.562 83.8145 162.219C83.3534 163.113 82.9489 164.035 82.6035 164.978C82.6755 164.978 84.5349 165.48 85.2057 166.022C85.791 166.498 86.3988 167.257 86.3628 168.041C86.3595 168.225 86.3171 168.406 86.2382 168.573C86.1593 168.74 86.0456 168.889 85.9045 169.011C85.7634 169.132 85.5979 169.224 85.4187 169.279C85.2394 169.335 85.0504 169.353 84.8635 169.332C83.7425 169.174 82.8286 167.38 82.6575 166.401C82.6575 166.34 82.6035 165.555 82.5945 165.181H82.5269C82.2099 166.14 81.9809 167.125 81.8426 168.125C81.7571 168.676 81.7075 169.205 81.676 169.72C82.0317 169.778 83.6525 170.046 84.3143 170.47C84.9761 170.893 85.6379 171.567 85.6919 172.352C85.7095 172.535 85.6876 172.721 85.6277 172.895C85.5677 173.07 85.471 173.231 85.3438 173.367C85.2166 173.504 85.0617 173.612 84.889 173.686C84.7164 173.76 84.5298 173.798 84.3413 173.797C83.2067 173.758 82.0902 172.074 81.8201 171.122C81.8201 171.069 81.712 170.522 81.649 170.126C81.649 170.359 81.6175 170.602 81.613 170.822C81.5815 171.664 81.613 172.435 81.6355 173.118C81.6355 173.506 81.6805 173.854 81.7075 174.181C82.0272 174.414 83.3058 175.366 83.684 176.032C84.0622 176.697 84.3458 177.601 84.0216 178.319C83.9512 178.49 83.8451 178.644 83.7102 178.772C83.5754 178.901 83.4146 179 83.2384 179.064C83.0621 179.128 82.8741 179.155 82.6865 179.143C82.4988 179.132 82.3157 179.083 82.1487 178.998C81.1583 178.451 80.9692 176.455 81.1718 175.472C81.1718 175.388 81.622 174.106 81.622 174.115C81.5905 173.797 81.559 173.458 81.5319 173.092C81.4869 172.409 81.4419 171.633 81.4554 170.791C81.4561 169.882 81.5118 168.974 81.622 168.072C81.7421 167.06 81.9515 166.06 82.2478 165.084V165.048C82.0587 165.317 81.5049 166.049 81.4554 166.102C80.7666 166.829 78.9972 167.834 77.9708 167.362C77.8032 167.279 77.6554 167.162 77.5367 167.019C77.418 166.876 77.3311 166.711 77.2815 166.533C77.232 166.355 77.2208 166.17 77.2488 165.988C77.2767 165.806 77.3432 165.631 77.444 165.476C77.8987 164.85 78.8352 164.546 79.587 164.462Z" fill="#263238"/>
<path d="M182.123 35.0329H56.3918C54.6836 35.0329 53.2988 36.3885 53.2988 38.0608V157.719C53.2988 159.391 54.6836 160.747 56.3918 160.747H182.123C183.832 160.747 185.216 159.391 185.216 157.719V38.0608C185.216 36.3885 183.832 35.0329 182.123 35.0329Z" fill="white" stroke="#263238" stroke-linecap="round" stroke-linejoin="round"/>
<path d="M182.209 35.0329H56.3153C55.516 35.0329 54.7495 35.3434 54.1839 35.8962C53.6183 36.4491 53.3 37.199 53.2988 37.9815V43.1867H185.203V37.9815C185.202 37.2028 184.886 36.4562 184.326 35.904C183.765 35.3518 183.004 35.0387 182.209 35.0329Z" fill="#22B1B7" stroke="#263238" stroke-linecap="round" stroke-linejoin="round"/>
<path d="M59.629 38.9688C59.6299 39.2095 59.5577 39.4452 59.4218 39.6458C59.2858 39.8464 59.092 40.003 58.865 40.0958C58.6381 40.1885 58.3881 40.2132 58.1467 40.1668C57.9054 40.1203 57.6836 40.0048 57.5093 39.8349C57.3351 39.6649 57.2163 39.4482 57.168 39.2121C57.1197 38.976 57.144 38.7312 57.238 38.5087C57.3319 38.2861 57.4911 38.0959 57.6956 37.962C57.9 37.8282 58.1404 37.7567 58.3864 37.7567C58.7148 37.7579 59.0295 37.8858 59.2621 38.1127C59.4948 38.3397 59.6266 38.6473 59.629 38.9688Z" fill="white" stroke="#263238" stroke-linecap="round" stroke-linejoin="round"/>
<path d="M64.838 38.9688C64.8388 39.2095 64.7667 39.4452 64.6307 39.6458C64.4947 39.8464 64.301 40.003 64.074 40.0958C63.847 40.1885 63.5971 40.2132 63.3557 40.1668C63.1144 40.1203 62.8926 40.0048 62.7183 39.8349C62.5441 39.6649 62.4253 39.4482 62.377 39.2121C62.3287 38.976 62.353 38.7312 62.4469 38.5087C62.5409 38.2861 62.7001 38.0959 62.9046 37.962C63.109 37.8282 63.3494 37.7567 63.5954 37.7567C63.9241 37.7567 64.2395 37.8843 64.4724 38.1114C64.7053 38.3386 64.8368 38.6469 64.838 38.9688Z" fill="white" stroke="#263238" stroke-linecap="round" stroke-linejoin="round"/>
<path d="M70.0469 38.9688C70.0478 39.2097 69.9756 39.4455 69.8394 39.6463C69.7032 39.847 69.5092 40.0036 69.282 40.0962C69.0547 40.1888 68.8045 40.2133 68.563 40.1665C68.3216 40.1197 68.0998 40.0037 67.9257 39.8333C67.7517 39.6629 67.6332 39.4458 67.5854 39.2094C67.5376 38.973 67.5626 38.7281 67.6572 38.5056C67.7518 38.2832 67.9118 38.0932 68.1168 37.9599C68.3219 37.8266 68.5627 37.7559 68.8089 37.7567C69.1369 37.7579 69.4511 37.886 69.683 38.113C69.9149 38.3401 70.0458 38.6477 70.0469 38.9688Z" fill="white" stroke="#263238" stroke-linecap="round" stroke-linejoin="round"/>
<path d="M121.272 58.031V49.7758H119.543V48.8459H124.046V49.7758H122.317V58.031H121.272Z" fill="#263238"/>
<path d="M124.694 51.0628C124.694 49.6569 125.405 48.7533 126.837 48.7533C128.269 48.7533 128.998 49.6348 128.998 51.0628V55.8097C128.998 57.2024 128.287 58.1192 126.837 58.1192C125.387 58.1192 124.694 57.2024 124.694 55.8097V51.0628ZM125.725 55.8626C125.725 56.7044 126.09 57.1848 126.837 57.1848C127.584 57.1848 127.949 56.7 127.949 55.8626V51.0144C127.949 50.1858 127.602 49.6921 126.837 49.6921C126.072 49.6921 125.725 50.1902 125.725 51.0144V55.8626Z" fill="#263238"/>
<path d="M132.186 48.8459C133.644 48.8459 134.315 49.7273 134.315 51.1289V55.7611C134.315 57.1627 133.644 58.031 132.186 58.031H129.989V48.8459H132.186ZM132.186 57.0966C132.937 57.0966 133.298 56.6559 133.298 55.8008V51.076C133.298 50.2342 132.937 49.7758 132.172 49.7758H131.047V57.0966H132.186Z" fill="#263238"/>
<path d="M136.337 56.1799L135.976 58.031H135.013L136.814 48.8459H138.327L140.127 58.031H139.083L138.718 56.1799H136.337ZM136.472 55.2984H138.565L137.503 50.0094L136.472 55.2984Z" fill="#263238"/>
<path d="M141.942 54.7342L139.956 48.8459H141.041L142.505 53.3591L143.977 48.8459H144.967L142.973 54.7342V58.031H141.942V54.7342Z" fill="#263238"/>
<path d="M61.5288 49.0971V49.2293H61.0021V49.0662C61.0021 48.6255 60.831 48.3699 60.4303 48.3699C60.0296 48.3699 59.863 48.6299 59.863 49.0618C59.863 50.1549 61.5333 50.2607 61.5333 51.6314C61.5333 52.3674 61.1732 52.8478 60.4123 52.8478C59.6514 52.8478 59.2913 52.3674 59.2913 51.6314V51.3537H59.8135V51.6799C59.8135 52.1206 59.9981 52.3762 60.3943 52.3762C60.7905 52.3762 60.9796 52.1206 60.9796 51.6799C60.9796 50.5956 59.3138 50.4898 59.3138 49.1191C59.3138 48.3654 59.6694 47.8983 60.4168 47.8983C61.1642 47.8983 61.5288 48.3566 61.5288 49.0971Z" fill="#263238"/>
<path d="M64.2167 49.1015V49.5422H63.6899V49.075C63.6899 48.6343 63.5143 48.3698 63.1092 48.3698C62.704 48.3698 62.5239 48.6343 62.5239 49.075V51.6534C62.5239 52.0941 62.7085 52.3542 63.1092 52.3542C63.5098 52.3542 63.6899 52.0897 63.6899 51.6534V51.0187H64.2167V51.6225C64.2167 52.363 63.861 52.8478 63.0956 52.8478C62.3303 52.8478 61.9746 52.363 61.9746 51.6225V49.1015C61.9746 48.3654 62.3303 47.8762 63.0956 47.8762C63.861 47.8762 64.2167 48.3654 64.2167 49.1015Z" fill="#263238"/>
<path d="M65.2791 50.6088V52.8126H64.7253V47.9247H65.2791V50.1284H66.5037V47.9247H67.0575V52.7993H66.5037V50.5956L65.2791 50.6088Z" fill="#263238"/>
<path d="M69.3985 50.0843V50.5736H68.1829V52.3057H69.6776V52.7993H67.6292V47.9247H69.6776V48.4183H68.1829V50.0843H69.3985Z" fill="#263238"/>
<path d="M71.357 47.9247C72.1313 47.9247 72.487 48.3654 72.487 49.1367V51.5961C72.487 52.3409 72.1313 52.7993 71.357 52.7993H70.1909V47.9247H71.357ZM71.357 52.3057C71.7577 52.3057 71.9468 52.0633 71.9468 51.6181V49.1103C71.9468 48.6695 71.7577 48.4183 71.3525 48.4183H70.7537V52.3057H71.357Z" fill="#263238"/>
<path d="M73.5495 51.6534C73.5495 52.0941 73.7251 52.3542 74.1303 52.3542C74.5355 52.3542 74.7066 52.0897 74.7066 51.6534V47.9247H75.2288V51.6225C75.2288 52.363 74.8776 52.8566 74.1123 52.8566C73.3469 52.8566 73.0002 52.363 73.0002 51.6225V47.9247H73.5495V51.6534Z" fill="#263238"/>
<path d="M75.7603 52.7993V47.9247H76.3185V52.3057H77.7412V52.7993H75.7603Z" fill="#263238"/>
<path d="M79.9338 50.0843V50.5736H78.7137V52.3057H80.2084V52.7993H78.1599V47.9247H80.2084V48.4183H78.7137V50.0843H79.9338Z" fill="#263238"/>
<path d="M93.6292 63.7298V63.8753C93.6552 64.0703 93.6168 64.2683 93.5196 64.4404C93.4224 64.6125 93.2715 64.7496 93.0889 64.8317C93.2737 64.9171 93.4258 65.0581 93.523 65.2342C93.6202 65.4102 93.6574 65.612 93.6292 65.8101V66.1539C93.6292 66.4462 93.5106 66.7264 93.2995 66.9331C93.0885 67.1397 92.8022 67.2558 92.5037 67.2558C92.2052 67.2558 91.9189 67.1397 91.7078 66.9331C91.4967 66.7264 91.3781 66.4462 91.3781 66.1539V65.8101C91.3492 65.6108 91.387 65.4077 91.4861 65.2312C91.5851 65.0548 91.74 64.9146 91.9274 64.8317C91.7418 64.7528 91.5877 64.6166 91.4885 64.4439C91.3893 64.2712 91.3506 64.0715 91.3781 63.8753V63.7298C91.3781 63.4376 91.4967 63.1573 91.7078 62.9507C91.9189 62.7441 92.2052 62.628 92.5037 62.628C92.8022 62.628 93.0885 62.7441 93.2995 62.9507C93.5106 63.1573 93.6292 63.4376 93.6292 63.7298ZM91.9184 63.7298V63.9546C91.9184 64.3954 92.139 64.6069 92.5127 64.6069C92.8863 64.6069 93.107 64.4042 93.107 63.9546V63.7298C93.107 63.2538 92.8863 63.0379 92.5127 63.0379C92.139 63.0379 91.9184 63.267 91.9184 63.743V63.7298ZM91.9184 65.7352V66.1275C91.9184 66.6035 92.1345 66.8283 92.5127 66.8283C92.8908 66.8283 93.1024 66.6035 93.107 66.1275V65.7352C93.107 65.2945 92.9044 65.0697 92.5127 65.0697C92.121 65.0697 91.9184 65.2989 91.9184 65.7484V65.7352Z" fill="#263238"/>
<path d="M94.6152 64.1V64.7435H94.1064V64.1H94.6152ZM94.6152 66.6255V67.2646H94.1064V66.6255H94.6152Z" fill="#263238"/>
<path d="M95.1147 63.7519C95.1147 63.0423 95.4749 62.5839 96.1998 62.5839C96.9246 62.5839 97.2848 63.0246 97.2848 63.7519V66.1407C97.2848 66.8503 96.9291 67.3131 96.1998 67.3131C95.4704 67.3131 95.1147 66.8503 95.1147 66.1407V63.7519ZM95.637 66.1716C95.637 66.6123 95.8171 66.8415 96.1998 66.8415C96.5824 66.8415 96.758 66.5903 96.758 66.1716V63.7254C96.758 63.2847 96.5824 63.0511 96.1998 63.0511C95.8171 63.0511 95.637 63.3023 95.637 63.7254V66.1716Z" fill="#263238"/>
<path d="M97.7441 63.7519C97.7441 63.0423 98.1043 62.5839 98.8292 62.5839C99.554 62.5839 99.9142 63.0246 99.9142 63.7519V66.1407C99.9142 66.8503 99.5585 67.3131 98.8292 67.3131C98.0998 67.3131 97.7441 66.8503 97.7441 66.1407V63.7519ZM98.2664 66.1716C98.2664 66.6123 98.4465 66.8415 98.8292 66.8415C99.2118 66.8415 99.3874 66.5903 99.3874 66.1716V63.7254C99.3874 63.2847 99.2118 63.0511 98.8292 63.0511C98.4465 63.0511 98.2664 63.3023 98.2664 63.7254V66.1716Z" fill="#263238"/>
<path d="M105.429 63.4742C105.23 63.5923 105.004 63.6604 104.772 63.6725V63.2318C104.959 63.2364 105.142 63.1774 105.29 63.0649C105.437 62.9524 105.541 62.7934 105.582 62.6147H105.965V67.247H105.443L105.429 63.4742Z" fill="#263238"/>
<path d="M106.708 63.7519C106.708 63.0423 107.064 62.5839 107.789 62.5839C108.513 62.5839 108.878 63.0246 108.878 63.7519V66.1407C108.878 66.8503 108.518 67.3131 107.789 67.3131C107.059 67.3131 106.708 66.8503 106.708 66.1407V63.7519ZM107.226 66.1716C107.226 66.6123 107.41 66.8415 107.789 66.8415C108.167 66.8415 108.351 66.5903 108.351 66.1716V63.7254C108.351 63.2847 108.176 63.0511 107.789 63.0511C107.401 63.0511 107.226 63.3023 107.226 63.7254V66.1716Z" fill="#263238"/>
<path d="M109.882 64.1V64.7435H109.378V64.1H109.882ZM109.882 66.6255V67.2646H109.378V66.6255H109.882Z" fill="#263238"/>
<path d="M110.386 63.7519C110.386 63.0423 110.742 62.5839 111.467 62.5839C112.192 62.5839 112.556 63.0246 112.556 63.7519V66.1407C112.556 66.8503 112.196 67.3131 111.467 67.3131C110.737 67.3131 110.386 66.8503 110.386 66.1407V63.7519ZM110.904 66.1716C110.904 66.6123 111.089 66.8415 111.467 66.8415C111.845 66.8415 112.03 66.5903 112.03 66.1716V63.7254C112.03 63.2847 111.849 63.0511 111.467 63.0511C111.084 63.0511 110.904 63.3023 110.904 63.7254V66.1716Z" fill="#263238"/>
<path d="M113.015 63.7519C113.015 63.0423 113.371 62.5839 114.096 62.5839C114.821 62.5839 115.185 63.0246 115.185 63.7519V66.1407C115.185 66.8503 114.825 67.3131 114.096 67.3131C113.367 67.3131 113.015 66.8503 113.015 66.1407V63.7519ZM113.533 66.1716C113.533 66.6123 113.718 66.8415 114.096 66.8415C114.474 66.8415 114.659 66.5903 114.659 66.1716V63.7254C114.659 63.2847 114.483 63.0511 114.096 63.0511C113.709 63.0511 113.533 63.3023 113.533 63.7254V66.1716Z" fill="#263238"/>
<path d="M121.034 63.4742C120.835 63.5923 120.609 63.6604 120.376 63.6725V63.2318C120.564 63.2364 120.746 63.1774 120.894 63.0649C121.042 62.9524 121.145 62.7934 121.187 62.6147H121.556V67.247H121.034V63.4742Z" fill="#263238"/>
<path d="M124.482 63.7563C124.482 65.1535 122.88 65.6559 122.871 66.7225V66.7974H124.424V67.2646H122.353V66.868C122.353 65.3738 123.956 65.0829 123.956 63.7827C123.956 63.3067 123.793 63.0555 123.397 63.0555C123.001 63.0555 122.844 63.3244 122.844 63.7343V64.1441H122.353V63.7695C122.353 63.0599 122.681 62.5883 123.415 62.5883C124.149 62.5883 124.482 63.0511 124.482 63.7563Z" fill="#263238"/>
<path d="M125.477 64.1V64.7435H124.969V64.1H125.477ZM125.477 66.6255V67.2646H124.969V66.6255H125.477Z" fill="#263238"/>
<path d="M125.977 63.7519C125.977 63.0423 126.333 62.5839 127.058 62.5839C127.782 62.5839 128.147 63.0246 128.147 63.7519V66.1407C128.147 66.8503 127.787 67.3131 127.058 67.3131C126.328 67.3131 125.977 66.8503 125.977 66.1407V63.7519ZM126.495 66.1716C126.495 66.6123 126.679 66.8415 127.058 66.8415C127.436 66.8415 127.62 66.5903 127.62 66.1716V63.7254C127.62 63.2847 127.44 63.0511 127.058 63.0511C126.675 63.0511 126.495 63.3023 126.495 63.7254V66.1716Z" fill="#263238"/>
<path d="M128.606 63.7519C128.606 63.0423 128.962 62.5839 129.687 62.5839C130.412 62.5839 130.776 63.0246 130.776 63.7519V66.1407C130.776 66.8503 130.416 67.3131 129.687 67.3131C128.958 67.3131 128.606 66.8503 128.606 66.1407V63.7519ZM129.124 66.1716C129.124 66.6123 129.309 66.8415 129.687 66.8415C130.065 66.8415 130.25 66.5903 130.25 66.1716V63.7254C130.25 63.2847 130.074 63.0511 129.687 63.0511C129.3 63.0511 129.124 63.3023 129.124 63.7254V66.1716Z" fill="#263238"/>
<path d="M138.38 63.7563C138.38 65.1535 136.778 65.6559 136.769 66.7225V66.7974H138.326V67.2646H136.251V66.868C136.251 65.3738 137.849 65.0829 137.849 63.7827C137.849 63.3067 137.687 63.0555 137.295 63.0555C136.904 63.0555 136.742 63.3244 136.742 63.7343V64.1441H136.251V63.7695C136.251 63.0599 136.58 62.5883 137.309 62.5883C138.038 62.5883 138.38 63.0511 138.38 63.7563Z" fill="#263238"/>
<path d="M139.371 64.1V64.7435H138.867V64.1H139.371ZM139.371 66.6255V67.2646H138.867V66.6255H139.371Z" fill="#263238"/>
<path d="M139.871 63.7519C139.871 63.0423 140.231 62.5839 140.956 62.5839C141.681 62.5839 142.041 63.0246 142.041 63.7519V66.1407C142.041 66.8503 141.685 67.3131 140.956 67.3131C140.227 67.3131 139.871 66.8503 139.871 66.1407V63.7519ZM140.393 66.1716C140.393 66.6123 140.578 66.8415 140.956 66.8415C141.334 66.8415 141.514 66.5903 141.514 66.1716V63.7254C141.514 63.2847 141.339 63.0511 140.956 63.0511C140.573 63.0511 140.393 63.3023 140.393 63.7254V66.1716Z" fill="#263238"/>
<path d="M142.5 63.7519C142.5 63.0423 142.86 62.5839 143.585 62.5839C144.31 62.5839 144.675 63.0246 144.675 63.7519V66.1407C144.675 66.8503 144.314 67.3131 143.585 67.3131C142.856 67.3131 142.5 66.8503 142.5 66.1407V63.7519ZM143.022 66.1716C143.022 66.6123 143.207 66.8415 143.585 66.8415C143.963 66.8415 144.143 66.5903 144.143 66.1716V63.7254C144.143 63.2847 143.968 63.0511 143.585 63.0511C143.202 63.0511 143.022 63.3023 143.022 63.7254V66.1716Z" fill="#263238"/>
<path d="M153.197 66.3302V67.2646H152.679V66.3302H151.153V65.863L152.621 62.6324H153.197V65.863H153.575V66.3302H153.197ZM151.639 65.863H152.679V63.58L151.639 65.863Z" fill="#263238"/>
<path d="M154.485 64.1V64.7435H153.98V64.1H154.485ZM154.485 66.6255V67.2646H153.98V66.6255H154.485Z" fill="#263238"/>
<path d="M154.984 63.7519C154.984 63.0423 155.345 62.5839 156.069 62.5839C156.794 62.5839 157.154 63.0246 157.154 63.7519V66.1407C157.154 66.8503 156.799 67.3131 156.069 67.3131C155.34 67.3131 154.984 66.8503 154.984 66.1407V63.7519ZM155.507 66.1716C155.507 66.6123 155.691 66.8415 156.069 66.8415C156.448 66.8415 156.628 66.5903 156.628 66.1716V63.7254C156.628 63.2847 156.452 63.0511 156.069 63.0511C155.687 63.0511 155.507 63.3023 155.507 63.7254V66.1716Z" fill="#263238"/>
<path d="M157.618 63.7519C157.618 63.0423 157.974 62.5839 158.699 62.5839C159.424 62.5839 159.788 63.0246 159.788 63.7519V66.1407C159.788 66.8503 159.428 67.3131 158.699 67.3131C157.969 67.3131 157.618 66.8503 157.618 66.1407V63.7519ZM158.136 66.1716C158.136 66.6123 158.32 66.8415 158.699 66.8415C159.077 66.8415 159.261 66.5903 159.261 66.1716V63.7254C159.261 63.2847 159.081 63.0511 158.699 63.0511C158.316 63.0511 158.136 63.3023 158.136 63.7254V66.1716Z" fill="#263238"/>
<path d="M169.292 63.743V63.8312H168.797V63.7122C168.797 63.2715 168.621 63.0511 168.239 63.0511C167.856 63.0511 167.662 63.3023 167.662 63.7959V64.8361C167.717 64.6827 167.822 64.5511 167.96 64.4612C168.098 64.3713 168.262 64.328 168.428 64.3381C169.036 64.3381 169.306 64.7788 169.306 65.4399V66.1407C169.306 66.8503 168.946 67.3131 168.221 67.3131C167.496 67.3131 167.136 66.8503 167.136 66.1407V63.7783C167.136 63.0423 167.473 62.5839 168.221 62.5839C168.968 62.5839 169.292 63.0379 169.292 63.743ZM167.644 65.4796V66.1716C167.644 66.6123 167.82 66.8415 168.203 66.8415C168.585 66.8415 168.766 66.5903 168.766 66.1716V65.4796C168.766 65.0609 168.585 64.8097 168.203 64.8097C167.82 64.8097 167.644 65.0609 167.644 65.4796Z" fill="#263238"/>
<path d="M170.305 64.1V64.7435H169.797V64.1H170.305ZM170.305 66.6255V67.2646H169.797V66.6255H170.305Z" fill="#263238"/>
<path d="M170.796 63.7519C170.796 63.0423 171.156 62.5839 171.877 62.5839C172.597 62.5839 172.966 63.0246 172.966 63.7519V66.1407C172.966 66.8503 172.611 67.3131 171.877 67.3131C171.143 67.3131 170.796 66.8503 170.796 66.1407V63.7519ZM171.318 66.1716C171.318 66.6123 171.498 66.8415 171.877 66.8415C172.255 66.8415 172.439 66.5903 172.439 66.1716V63.7254C172.439 63.2847 172.264 63.0511 171.877 63.0511C171.489 63.0511 171.318 63.3023 171.318 63.7254V66.1716Z" fill="#263238"/>
<path d="M173.434 63.7519C173.434 63.0423 173.794 62.5839 174.519 62.5839C175.244 62.5839 175.604 63.0246 175.604 63.7519V66.1407C175.604 66.8503 175.249 67.3131 174.519 67.3131C173.79 67.3131 173.434 66.8503 173.434 66.1407V63.7519ZM173.957 66.1716C173.957 66.6123 174.137 66.8415 174.519 66.8415C174.902 66.8415 175.078 66.5903 175.078 66.1716V63.7254C175.078 63.2847 174.902 63.0511 174.519 63.0511C174.137 63.0511 173.957 63.3023 173.957 63.7254V66.1716Z" fill="#263238"/>
<path d="M103.493 118.916H89.0774V132.213H103.493V118.916Z" stroke="#ADADAD" stroke-miterlimit="10"/>
<path d="M118.328 118.916H103.912V132.213H118.328V118.916Z" stroke="#ADADAD" stroke-miterlimit="10"/>
<path d="M133.162 118.916H118.747V132.213H133.162V118.916Z" stroke="#ADADAD" stroke-miterlimit="10"/>
<path d="M148.002 118.916H133.586V132.213H148.002V118.916Z" stroke="#ADADAD" stroke-miterlimit="10"/>
<path d="M162.836 118.916H148.42V132.213H162.836V118.916Z" stroke="#ADADAD" stroke-miterlimit="10"/>
<path d="M177.734 118.916H163.318V132.213H177.734V118.916Z" stroke="#ADADAD" stroke-miterlimit="10"/>
<path d="M59.4353 70.0589H82.7789" stroke="#ADADAD" stroke-miterlimit="10"/>
<path d="M59.4353 72.5668H82.7789" stroke="#ADADAD" stroke-miterlimit="10"/>
<path d="M59.4353 75.0703H82.7789" stroke="#ADADAD" stroke-miterlimit="10"/>
<path d="M59.4353 77.5737H82.7789" stroke="#ADADAD" stroke-miterlimit="10"/>
<path d="M59.4353 80.0771H82.7789" stroke="#ADADAD" stroke-miterlimit="10"/>
<path d="M59.4353 82.5849H82.7789" stroke="#ADADAD" stroke-miterlimit="10"/>
<path d="M59.4353 85.0883H82.7789" stroke="#ADADAD" stroke-miterlimit="10"/>
<path d="M59.4353 87.5918H82.7789" stroke="#ADADAD" stroke-miterlimit="10"/>
<path d="M59.4353 125.84H82.7789" stroke="#ADADAD" stroke-miterlimit="10"/>
<path d="M59.4353 128.343H82.7789" stroke="#ADADAD" stroke-miterlimit="10"/>
<path d="M59.4353 130.847H82.7789" stroke="#ADADAD" stroke-miterlimit="10"/>
<path d="M59.4353 133.35H82.7789" stroke="#ADADAD" stroke-miterlimit="10"/>
<path d="M59.4353 135.858H82.7789" stroke="#ADADAD" stroke-miterlimit="10"/>
<path d="M59.4353 138.361H82.7789" stroke="#ADADAD" stroke-miterlimit="10"/>
<path d="M59.4353 140.865H82.7789" stroke="#ADADAD" stroke-miterlimit="10"/>
<path d="M59.4353 143.368H82.7789" stroke="#ADADAD" stroke-miterlimit="10"/>
<path d="M103.493 70.0722H89.0774V83.3695H103.493V70.0722Z" stroke="#ADADAD" stroke-miterlimit="10"/>
<path d="M118.328 70.0722H103.912V83.3695H118.328V70.0722Z" fill="#22B1B7" stroke="#ADADAD" stroke-miterlimit="10"/>
<path d="M133.162 70.0722H118.747V83.3695H133.162V70.0722Z" fill="#22B1B7" stroke="#ADADAD" stroke-miterlimit="10"/>
<path d="M148.002 70.0722H133.586V83.3695H148.002V70.0722Z" stroke="#ADADAD" stroke-miterlimit="10"/>
<path d="M162.836 70.0722H148.42V83.3695H162.836V70.0722Z" stroke="#ADADAD" stroke-miterlimit="10"/>
<path d="M177.734 70.0722H163.318V83.3695H177.734V70.0722Z" stroke="#ADADAD" stroke-miterlimit="10"/>
<path d="M106.442 73.8625H116.523" stroke="#ADADAD" stroke-miterlimit="10"/>
<path d="M106.442 75.3655H116.523" stroke="#ADADAD" stroke-miterlimit="10"/>
<path d="M106.442 76.8685H116.523" stroke="#ADADAD" stroke-miterlimit="10"/>
<path d="M106.442 78.367H116.523" stroke="#ADADAD" stroke-miterlimit="10"/>
<path d="M106.442 79.8699H116.523" stroke="#ADADAD" stroke-miterlimit="10"/>
<path d="M103.493 86.3401H89.0774V99.6373H103.493V86.3401Z" stroke="#ADADAD" stroke-miterlimit="10"/>
<path d="M118.328 86.3401H103.912V99.6373H118.328V86.3401Z" fill="#22B1B7" stroke="#ADADAD" stroke-miterlimit="10"/>
<path d="M133.162 86.3401H118.747V99.6373H133.162V86.3401Z" stroke="#ADADAD" stroke-miterlimit="10"/>
<path d="M148.002 86.3401H133.586V99.6373H148.002V86.3401Z" stroke="#ADADAD" stroke-miterlimit="10"/>
<path d="M162.836 86.3401H148.42V99.6373H162.836V86.3401Z" stroke="#ADADAD" stroke-miterlimit="10"/>
<path d="M177.734 86.3401H163.318V99.6373H177.734V86.3401Z" stroke="#ADADAD" stroke-miterlimit="10"/>
<path d="M106.442 89.9542H116.523" stroke="#ADADAD" stroke-miterlimit="10"/>
<path d="M106.442 91.4527H116.523" stroke="#ADADAD" stroke-miterlimit="10"/>
<path d="M106.442 92.9556H116.523" stroke="#ADADAD" stroke-miterlimit="10"/>
<path d="M106.442 94.4586H116.523" stroke="#ADADAD" stroke-miterlimit="10"/>
<path d="M106.442 95.9615H116.523" stroke="#ADADAD" stroke-miterlimit="10"/>
<path d="M103.493 102.604H89.0774V115.901H103.493V102.604Z" stroke="#ADADAD" stroke-miterlimit="10"/>
<path d="M118.328 102.604H103.912V115.901H118.328V102.604Z" stroke="#ADADAD" stroke-miterlimit="10"/>
<path d="M133.162 102.604H118.747V115.901H133.162V102.604Z" stroke="#ADADAD" stroke-miterlimit="10"/>
<path d="M148.002 102.604H133.586V115.901H148.002V102.604Z" stroke="#ADADAD" stroke-miterlimit="10"/>
<path d="M162.836 102.604H148.42V115.901H162.836V102.604Z" fill="#22B1B7" stroke="#ADADAD" stroke-miterlimit="10"/>
<path d="M177.734 102.604H163.318V115.901H177.734V102.604Z" stroke="#ADADAD" stroke-miterlimit="10"/>
<path d="M151.144 106.257H161.224" stroke="#ADADAD" stroke-miterlimit="10"/>
<path d="M151.144 107.76H161.224" stroke="#ADADAD" stroke-miterlimit="10"/>
<path d="M151.144 109.259H161.224" stroke="#ADADAD" stroke-miterlimit="10"/>
<path d="M151.144 110.762H161.224" stroke="#ADADAD" stroke-miterlimit="10"/>
<path d="M151.144 112.265H161.224" stroke="#ADADAD" stroke-miterlimit="10"/>
<path d="M103.493 135.223H89.0774V148.52H103.493V135.223Z" stroke="#ADADAD" stroke-miterlimit="10"/>
<path d="M118.328 135.223H103.912V148.52H118.328V135.223Z" stroke="#ADADAD" stroke-miterlimit="10"/>
<path d="M133.162 135.223H118.747V148.52H133.162V135.223Z" fill="#22B1B7" stroke="#ADADAD" stroke-miterlimit="10"/>
<path d="M148.002 135.223H133.586V148.52H148.002V135.223Z" fill="#22B1B7" stroke="#ADADAD" stroke-miterlimit="10"/>
<path d="M162.836 135.223H148.42V148.52H162.836V135.223Z" fill="#22B1B7" stroke="#ADADAD" stroke-miterlimit="10"/>
<path d="M177.734 135.223H163.318V148.52H177.734V135.223Z" stroke="#ADADAD" stroke-miterlimit="10"/>
<path d="M121.124 138.864H131.204" stroke="#ADADAD" stroke-miterlimit="10"/>
<path d="M121.124 140.367H131.204" stroke="#ADADAD" stroke-miterlimit="10"/>
<path d="M121.124 141.87H131.204" stroke="#ADADAD" stroke-miterlimit="10"/>
<path d="M121.124 143.368H131.204" stroke="#ADADAD" stroke-miterlimit="10"/>
<path d="M121.124 144.871H131.204" stroke="#ADADAD" stroke-miterlimit="10"/>
<path d="M135.805 138.864H145.886" stroke="#ADADAD" stroke-miterlimit="10"/>
<path d="M135.805 140.367H145.886" stroke="#ADADAD" stroke-miterlimit="10"/>
<path d="M135.805 141.87H145.886" stroke="#ADADAD" stroke-miterlimit="10"/>
<path d="M135.805 143.368H145.886" stroke="#ADADAD" stroke-miterlimit="10"/>
<path d="M135.805 144.871H145.886" stroke="#ADADAD" stroke-miterlimit="10"/>
<path d="M150.487 138.864H160.567" stroke="#ADADAD" stroke-miterlimit="10"/>
<path d="M150.487 140.367H160.567" stroke="#ADADAD" stroke-miterlimit="10"/>
<path d="M150.487 141.87H160.567" stroke="#ADADAD" stroke-miterlimit="10"/>
<path d="M150.487 143.368H160.567" stroke="#ADADAD" stroke-miterlimit="10"/>
<path d="M150.487 144.871H160.567" stroke="#ADADAD" stroke-miterlimit="10"/>
<path d="M49.184 42.2259C45.105 39.2685 39.7295 39.5814 36.5014 41.5603C33.2734 43.5393 32.2739 47.1005 31.369 49.5378C29.5681 54.386 25.7008 57.2685 21.5138 60.0673C17.4618 62.7867 12.1988 66.771 14.9767 72.2054C16.2328 74.6692 17.804 76.3616 15.4269 80.3636C13.0497 84.3656 10.551 86.2167 12.2754 90.06C13.9997 93.9033 16.2057 99.9151 25.4847 97.7598C34.7636 95.6046 37.5954 85.2867 38.5409 81.4522C39.4863 77.6177 44.029 76.0443 47.3471 73.2896C50.6652 70.535 50.3365 66.2068 49.3911 63.439C48.6707 61.3146 47.8603 58.291 50.341 55.8846L50.6652 55.9815C50.6652 55.9815 55.6491 53.7778 56.4775 52.4335C57.3059 51.0893 53.2584 45.1789 49.184 42.2259Z" fill="#263238" stroke="#263238" stroke-linecap="round" stroke-linejoin="round"/>
<path d="M56.4413 68.2122C56.4413 68.2122 66.1479 75.5506 68.6782 77.0976C71.2084 78.6446 77.3358 81.5403 78.7044 82.5761C80.0731 83.6118 77.9661 88.0501 75.0127 89.7029C72.0593 91.3557 69.313 89.4958 67.7327 88.6672C66.1525 87.8386 55.5769 81.126 55.5769 81.126L56.4413 68.2122Z" fill="#919191" stroke="#263238" stroke-linecap="round" stroke-linejoin="round"/>
<path d="M58.6068 72.58L56.959 81.8313L60.7093 74.4884" stroke="#263238" stroke-linecap="round" stroke-linejoin="round"/>
<path d="M59.701 116.469C59.701 116.469 57.1708 116.571 54.2985 113.988C51.4261 111.405 50.6967 110.268 50.6967 110.268C50.6967 110.268 49.238 95.8998 49.238 94.5556C49.238 93.2113 50.4176 86.4987 51.4891 83.1931C52.5606 79.8876 54.5506 83.8146 54.5506 83.8146C54.5506 83.8146 56.9772 106.954 57.4004 109.228C57.8236 111.502 59.701 116.469 59.701 116.469Z" fill="#787878" stroke="#263238" stroke-linecap="round" stroke-linejoin="round"/>
<path d="M51.2279 141.826C51.2279 141.826 48.3465 148.842 48.234 152.232C48.1214 155.621 48.8328 160.734 46.163 166.468C43.4932 172.202 40.99 180.607 40.5713 183.176C40.1526 185.746 42.5523 192.78 43.7949 195.076C45.0375 197.373 44.5512 197.201 43.2321 197.157C42.2464 197.159 41.2776 196.906 40.4238 196.424C39.57 195.942 38.8614 195.247 38.3698 194.411C36.9651 192.101 37.5054 190.665 36.5689 189.827L35.6055 188.985L34.7771 193.97L33.6245 193.772L34.6735 187.341C34.6735 187.341 34.5565 185.882 35.2363 185.257C35.9161 184.631 36.9741 182.727 36.9741 182.727C36.9741 182.727 38.1087 173.713 37.825 167.561C37.5414 161.408 37.3433 157.525 38.0906 154.964C38.838 152.403 38.865 151.592 38.9551 149.01C39.0451 146.427 38.9821 143.355 38.9956 142.87C39.0091 142.385 51.2279 141.826 51.2279 141.826Z" fill="white"/>
<mask id="mask0_84_2277" style="mask-type:luminance" maskUnits="userSpaceOnUse" x="33" y="141" width="19" height="57">
<path d="M51.2279 141.826C51.2279 141.826 48.3465 148.842 48.234 152.232C48.1214 155.621 48.8328 160.734 46.163 166.468C43.4932 172.202 40.99 180.607 40.5713 183.176C40.1526 185.746 42.5523 192.78 43.7949 195.076C45.0375 197.373 44.5512 197.201 43.2321 197.157C42.2464 197.159 41.2776 196.906 40.4238 196.424C39.57 195.942 38.8614 195.247 38.3698 194.411C36.9651 192.101 37.5054 190.665 36.5689 189.827L35.6055 188.985L34.7771 193.97L33.6245 193.772L34.6735 187.341C34.6735 187.341 34.5565 185.882 35.2363 185.257C35.9161 184.631 36.9741 182.727 36.9741 182.727C36.9741 182.727 38.1087 173.713 37.825 167.561C37.5414 161.408 37.3433 157.525 38.0906 154.964C38.838 152.403 38.865 151.592 38.9551 149.01C39.0451 146.427 38.9821 143.355 38.9956 142.87C39.0091 142.385 51.2279 141.826 51.2279 141.826Z" fill="white"/>
</mask>
<g mask="url(#mask0_84_2277)">
<path opacity="0.2" d="M38.9731 142.879C38.9731 143.232 38.9731 144.977 38.9731 146.899C40.4093 147.189 43.9254 147.577 49.6297 146.185C50.413 143.813 51.2279 141.826 51.2279 141.826C51.2279 141.826 38.9911 142.394 38.9731 142.879Z" fill="black"/>
</g>
<path d="M51.2279 141.826C51.2279 141.826 48.3465 148.842 48.234 152.232C48.1214 155.621 48.8328 160.734 46.163 166.468C43.4932 172.202 40.99 180.607 40.5713 183.176C40.1526 185.746 42.5523 192.78 43.7949 195.076C45.0375 197.373 44.5512 197.201 43.2321 197.157C42.2464 197.159 41.2776 196.906 40.4238 196.424C39.57 195.942 38.8614 195.247 38.3698 194.411C36.9651 192.101 37.5054 190.665 36.5689 189.827L35.6055 188.985L34.7771 193.97L33.6245 193.772L34.6735 187.341C34.6735 187.341 34.5565 185.882 35.2363 185.257C35.9161 184.631 36.9741 182.727 36.9741 182.727C36.9741 182.727 38.1087 173.713 37.825 167.561C37.5414 161.408 37.3433 157.525 38.0906 154.964C38.838 152.403 38.865 151.592 38.9551 149.01C39.0451 146.427 38.9821 143.355 38.9956 142.87C39.0091 142.385 51.2279 141.826 51.2279 141.826Z" stroke="#263238" stroke-linecap="round" stroke-linejoin="round"/>
<path d="M43.7947 195.085L43.6641 194.83C40.8368 195.658 39.6122 192.864 38.149 189.541C37.4499 187.945 36.5122 186.459 35.3667 185.133C35.3126 185.186 35.2631 185.239 35.2136 185.283C34.5338 185.909 34.6508 187.368 34.6508 187.368L33.6018 193.798L34.7544 193.997L35.5828 189.012L36.5462 189.854C37.5052 190.691 36.9649 192.128 38.3471 194.437C38.8387 195.274 39.5473 195.968 40.4011 196.45C41.2549 196.932 42.2237 197.185 43.2094 197.183C44.551 197.21 45.0373 197.386 43.7947 195.085Z" fill="#22B1B7" stroke="#263238" stroke-linecap="round" stroke-linejoin="round"/>
<path d="M33.3679 191.026L33.539 196.857L34.3629 196.883L34.8041 192.524L33.3679 191.026Z" fill="#22B1B7" stroke="#263238" stroke-linecap="round" stroke-linejoin="round"/>
<path d="M28.6452 140.763C28.6452 140.763 30.4911 144.699 28.9649 150.795C27.4386 156.89 28.9244 166.472 31.2159 172.528C33.5075 178.584 33.2959 184.071 33.5841 185.371C33.8722 186.671 33.2869 189.241 33.3905 191.026C33.494 192.811 36.542 195.817 37.1543 196.804C37.7666 197.791 42.3993 197.946 43.5563 197.985C44.7134 198.025 44.907 196.897 44.1056 196.385C43.3042 195.874 41.5799 192.908 41.5799 192.908C41.5799 192.908 38.9732 187.178 38.7075 185.217C38.4419 183.256 37.5145 171.761 37.9286 169.35C38.3428 166.939 39.788 153.571 40.2383 150.032C40.6885 146.493 41.0261 141.491 41.0261 141.491L28.6452 140.763Z" fill="white"/>
<mask id="mask1_84_2277" style="mask-type:luminance" maskUnits="userSpaceOnUse" x="28" y="140" width="17" height="58">
<path d="M28.6452 140.763C28.6452 140.763 30.4911 144.699 28.9649 150.795C27.4386 156.89 28.9244 166.472 31.2159 172.528C33.5075 178.584 33.2959 184.071 33.5841 185.371C33.8722 186.671 33.2869 189.241 33.3905 191.026C33.494 192.811 36.542 195.817 37.1543 196.804C37.7666 197.791 42.3993 197.946 43.5563 197.985C44.7134 198.025 44.907 196.897 44.1056 196.385C43.3042 195.874 41.5799 192.908 41.5799 192.908C41.5799 192.908 38.9732 187.178 38.7075 185.217C38.4419 183.256 37.5145 171.761 37.9286 169.35C38.3428 166.939 39.788 153.571 40.2383 150.032C40.6885 146.493 41.0261 141.491 41.0261 141.491L28.6452 140.763Z" fill="white"/>
</mask>
<g mask="url(#mask1_84_2277)">
<path opacity="0.2" d="M40.6028 146.467C40.8459 143.844 41.0035 141.491 41.0035 141.491L28.6451 140.763C29.1965 142.151 29.501 143.621 29.5455 145.109C31.5805 145.819 35.2002 146.661 40.6028 146.467Z" fill="black"/>
</g>
<path d="M28.6452 140.763C28.6452 140.763 30.4911 144.699 28.9649 150.795C27.4386 156.89 28.9244 166.472 31.2159 172.528C33.5075 178.584 33.2959 184.071 33.5841 185.371C33.8722 186.671 33.2869 189.241 33.3905 191.026C33.494 192.811 36.542 195.817 37.1543 196.804C37.7666 197.791 42.3993 197.946 43.5563 197.985C44.7134 198.025 44.907 196.897 44.1056 196.385C43.3042 195.874 41.5799 192.908 41.5799 192.908C41.5799 192.908 38.9732 187.178 38.7075 185.217C38.4419 183.256 37.5145 171.761 37.9287 169.35C38.3428 166.939 39.788 153.571 40.2383 150.032C40.6885 146.493 41.0261 141.491 41.0261 141.491L28.6452 140.763Z" stroke="#263238" stroke-linecap="round" stroke-linejoin="round"/>
<path d="M44.0831 196.385C43.7234 196.097 43.4106 195.757 43.1556 195.376C40.9406 195.27 38.2753 195.024 37.3884 194.226C36.3484 193.296 33.8812 188.866 33.5165 188.205C33.3986 189.141 33.3489 190.083 33.368 191.026C33.4715 192.789 36.5195 195.817 37.1318 196.804C37.7441 197.791 42.3768 197.946 43.5338 197.985C44.6909 198.025 44.889 196.897 44.0831 196.385Z" fill="#22B1B7" stroke="#263238" stroke-linecap="round" stroke-linejoin="round"/>
<path d="M26.5651 96.4155C26.5651 96.4155 20.8699 113.164 21.2886 120.383C21.7073 127.603 25.9348 141.874 25.9348 141.874C25.9348 141.874 35.4299 144.351 42.1831 144.351C46.4875 144.297 50.7583 143.6 54.8476 142.284C54.8476 142.284 58.2242 118.924 56.7475 110.674C55.8177 105.637 53.8026 100.851 50.8362 96.6359L26.5651 96.4155Z" fill="#263238" stroke="#263238" stroke-linecap="round" stroke-linejoin="round"/>
<path d="M31.423 67.5952C31.423 67.5952 36.9066 65.2196 39.653 65.2196C42.3993 65.2196 48.4096 69.7637 49.3596 70.5923C50.3095 71.4209 53.6861 80.8176 54.2129 83.4003C54.7397 85.9831 50.8363 97.3455 50.8363 97.3455C50.8363 97.3455 43.7679 98.7911 38.4914 98.5884C33.2149 98.3857 30.8918 97.7598 30.8918 97.7598C30.8918 97.7598 28.7848 87.4287 27.7403 81.3332C26.6958 75.2377 25.5252 71.1961 26.4752 69.6623C27.4251 68.1285 31.423 67.5952 31.423 67.5952Z" fill="white"/>
<mask id="mask2_84_2277" style="mask-type:luminance" maskUnits="userSpaceOnUse" x="26" y="65" width="29" height="34">
<path d="M31.423 67.5952C31.423 67.5952 36.9066 65.2196 39.653 65.2196C42.3993 65.2196 48.4096 69.7637 49.3596 70.5923C50.3095 71.4209 53.6861 80.8176 54.2129 83.4003C54.7397 85.9831 50.8363 97.3455 50.8363 97.3455C50.8363 97.3455 43.7679 98.7911 38.4914 98.5884C33.2149 98.3857 30.8918 97.7598 30.8918 97.7598C30.8918 97.7598 28.7848 87.4287 27.7403 81.3332C26.6958 75.2377 25.5252 71.1961 26.4752 69.6623C27.4251 68.1285 31.423 67.5952 31.423 67.5952Z" fill="white"/>
</mask>
<g mask="url(#mask2_84_2277)">
<path opacity="0.3" d="M50.8362 97.3455C50.8362 97.3455 54.7441 85.9831 54.2128 83.4003C53.6816 80.8175 50.3095 71.4164 49.3595 70.5922C49.0714 70.3366 48.306 69.7372 47.3065 69.0276L46.6267 69.9928C46.6267 69.9928 50.1384 79.8876 50.2554 83.7265C50.368 87.3097 47.1039 96.8166 46.6537 98.0419C49.0849 97.7069 50.8362 97.3455 50.8362 97.3455Z" fill="black"/>
</g>
<path d="M31.423 67.5952C31.423 67.5952 36.9066 65.2196 39.653 65.2196C42.3993 65.2196 48.4096 69.7637 49.3596 70.5923C50.3095 71.4209 53.6862 80.8176 54.2129 83.4003C54.7397 85.9831 50.8363 97.3455 50.8363 97.3455C50.8363 97.3455 43.7679 98.7911 38.4914 98.5884C33.2149 98.3857 30.8918 97.7598 30.8918 97.7598C30.8918 97.7598 28.7848 87.4287 27.7403 81.3332C26.6958 75.2377 25.5252 71.1961 26.4752 69.6623C27.4251 68.1285 31.423 67.5952 31.423 67.5952Z" stroke="#263238" stroke-linecap="round" stroke-linejoin="round"/>
<path d="M44.6096 66.7666C44.6096 66.7666 50.0977 76.3749 51.6825 82.369C53.2672 88.3631 55.901 113.464 57.0626 114.601C57.8493 115.338 58.7373 115.964 59.7008 116.461C59.7008 116.461 56.5493 99.5184 56.5493 94.4542C56.5493 89.3901 57.3957 69.5565 56.8645 68.4194C56.3332 67.2823 54.5459 67.9037 50.8496 67.4894C47.1533 67.0751 44.6096 66.7666 44.6096 66.7666Z" fill="#919191" stroke="#263238" stroke-linecap="round" stroke-linejoin="round"/>
<path d="M35.592 64.6907L18.0336 71.2093C18.0336 71.2093 18.6639 91.25 18.8755 93.8328C19.0871 96.4155 20.1451 97.7598 21.6218 98.7911C23.0985 99.8225 23.6253 98.5884 23.6253 98.5884C23.6253 98.5884 20.6719 109.435 18.8755 113.133C17.0791 116.831 18.0336 117.06 18.0336 117.06C18.0336 117.06 24.8904 119.951 29.8517 118.404C34.8131 116.857 36.2898 113.34 36.2898 113.34L33.53 81.6506C33.53 81.6506 33.53 72.558 34.0568 70.4909C34.5835 68.4238 35.592 64.6907 35.592 64.6907Z" fill="#919191" stroke="#263238" stroke-linecap="round" stroke-linejoin="round"/>
<path d="M23.2156 104.001C23.2156 104.001 28.4651 104.146 31.6121 102.974V104.882C29.2769 105.191 26.9225 105.338 24.5662 105.323" stroke="#263238" stroke-linecap="round" stroke-linejoin="round"/>
<path d="M21.7163 71.2578C21.7163 71.2578 26.367 74.343 27.8662 79.1912" stroke="#263238" stroke-linecap="round" stroke-linejoin="round"/>
<path d="M35.592 64.6907C35.1219 65.0674 34.692 65.4897 34.3089 65.9512C33.7056 66.6873 32.0578 70.0898 31.0628 71.1212C30.0678 72.1525 30.6126 72.3773 30.9908 72.3068C31.369 72.2362 34.9887 70.9845 35.6685 70.6804C36.2362 70.4521 36.8163 70.255 37.4064 70.0898L42.8404 75.3347L44.3532 70.0149C44.3532 70.0149 50.0124 70.4556 50.6922 70.5306C51.372 70.6055 51.8988 70.2353 51.372 70.2353C50.8453 70.2353 46.4647 68.0932 45.8614 67.7979C45.2581 67.5026 44.4252 65.7264 42.6153 64.5452C40.8055 63.364 36.8796 62.9938 35.592 64.6907Z" fill="white" stroke="#263238" stroke-linecap="round" stroke-linejoin="round"/>
<path d="M43.2185 66.4669L42.8403 75.3347C42.8403 75.3347 37.3297 68.534 36.6319 67.723C36.1524 67.0305 35.8187 66.2514 35.6504 65.4311L36.2537 57.7445C36.2537 57.7445 39.8014 63.364 40.7108 63.9546C41.6202 64.5452 43.142 65.7264 43.2185 66.4669Z" fill="white" stroke="#263238" stroke-linecap="round" stroke-linejoin="round"/>
<path d="M40.7289 63.9546C39.8284 63.364 36.2717 57.7445 36.2717 57.7445L35.8215 63.5007C36.5149 64.8714 41.8409 67.939 42.7278 68.08C42.866 68.1051 43.006 68.1198 43.1465 68.1241L43.2186 66.4669C43.142 65.7264 41.6338 64.5452 40.7289 63.9546Z" fill="#263238" stroke="#263238" stroke-linecap="round" stroke-linejoin="round"/>
<path d="M49.7106 48.4315C49.7106 48.4315 41.6338 53.0902 39.2161 54.1965L37.8655 54.5667C37.8655 54.5667 36.1276 52.1294 35.2947 52.6451C34.4618 53.1607 34.0116 54.4918 34.4664 55.6774C34.8699 56.5099 35.4912 57.2231 36.2672 57.7445C36.2672 57.7445 36.3437 61.2925 36.875 62.6236C37.4063 63.9546 42.9349 67.1324 43.8353 67.2778C44.7358 67.4233 45.5732 67.2778 46.0279 66.4669C46.4826 65.6559 49.346 62.3283 50.6291 57.7445C51.9122 53.1607 51.1468 49.172 49.7106 48.4315Z" fill="white" stroke="#263238" stroke-linecap="round" stroke-linejoin="round"/>
<path d="M47.9008 55.8978L48.1259 60.1862L45.7083 59.6662" stroke="#263238" stroke-linecap="round" stroke-linejoin="round"/>
<path d="M42.6919 60.1863C42.6919 60.1863 43.2186 60.8474 45.3932 61.5878" stroke="#263238" stroke-linecap="round" stroke-linejoin="round"/>
<path d="M42.3135 55.3821C42.3135 55.3821 42.9168 56.6382 45.1048 56.1931" stroke="#263238" stroke-linecap="round" stroke-linejoin="round"/>
<path d="M48.7292 57.079C48.8902 57.3328 49.1366 57.5236 49.4259 57.6186C49.7152 57.7135 50.0293 57.7066 50.314 57.5991" stroke="#263238" stroke-linecap="round" stroke-linejoin="round"/>
<path d="M42.9348 53.3106C43.4957 53.0769 44.0991 52.9564 44.7087 52.9564C45.3183 52.9564 45.9216 53.0769 46.4825 53.3106" stroke="#263238" stroke-linecap="round" stroke-linejoin="round"/>
<path d="M50.9173 55.0119C50.6156 54.1965 49.2605 53.9012 49.2605 53.9012" stroke="#263238" stroke-linecap="round" stroke-linejoin="round"/>
<path d="M64.6488 87.0277L57.8956 88.513C57.8956 88.513 49.5171 88.156 48.8913 88.394C48.2655 88.632 48.8327 91.0693 48.8327 91.0693C47.923 91.134 47.0097 91.134 46.0999 91.0693C45.0689 90.9503 44.5827 91.131 44.8258 91.7833C45.0689 92.4356 46.0999 93.0306 47.0769 93.0306C48.0763 92.9629 49.0693 92.8244 50.0483 92.6163C50.0483 92.6163 52.538 93.4978 53.4519 93.4978C54.3659 93.4978 55.703 92.7265 55.703 92.7265C55.703 92.7265 57.3418 92.7838 58.1927 92.8455C59.0436 92.9072 60.1331 91.8318 60.1331 91.8318L66.7513 91.6555L64.6488 87.0277Z" fill="white" stroke="#263238" stroke-linecap="round" stroke-linejoin="round"/>
<path d="M47.7702 87.9797C47.7702 87.9797 46.1899 88.0987 46.1899 88.5747C46.1899 89.0507 47.4686 92.6163 47.4686 92.6163L50.0168 92.8543C50.0168 92.8543 50.3814 92.7353 50.0753 92.2593C49.7218 91.8165 49.3152 91.417 48.8642 91.0693L48.9227 88.394L47.7702 87.9797Z" fill="white" stroke="#263238" stroke-linecap="round" stroke-linejoin="round"/>
<path d="M50.3724 87.561C50.3724 87.561 47.6216 87.3274 47.518 87.6315C47.4145 87.9356 47.9682 92.4797 47.9682 92.4797C47.9682 92.4797 50.7506 93.0659 51.1197 93.0394C51.215 93.0284 51.3052 92.9914 51.3801 92.9327C51.455 92.874 51.5115 92.796 51.5434 92.7074C51.5753 92.6189 51.5812 92.5233 51.5604 92.4317C51.5396 92.34 51.493 92.2558 51.4259 92.1888C50.9758 91.8484 50.4862 91.5614 49.9672 91.3337L50.3724 87.561Z" fill="white" stroke="#263238" stroke-linecap="round" stroke-linejoin="round"/>
<path d="M51.9616 87.2657C51.9616 87.2657 49.2288 86.8249 49.1073 87.1467C48.9857 87.4684 49.2288 92.0213 49.2288 92.0213C49.2288 92.0213 51.9616 92.7926 52.3218 92.7926C52.4177 92.787 52.5101 92.7554 52.5887 92.7013C52.6673 92.6472 52.729 92.5728 52.7668 92.4863C52.8047 92.3999 52.8172 92.3048 52.803 92.2118C52.7888 92.1188 52.7485 92.0315 52.6865 91.9596C52.2608 91.5913 51.7924 91.2732 51.2908 91.012L51.9616 87.2657Z" fill="white" stroke="#263238" stroke-linecap="round" stroke-linejoin="round"/>
<path d="M59.0032 89.0462C59.0032 89.0462 52.2004 86.5516 51.8403 86.4326C51.4801 86.3136 51.2325 86.4943 51.2325 86.7323C51.2325 86.9703 50.1385 91.3469 50.5031 91.6643C50.8678 91.9816 53.0514 92.6163 53.0514 92.6163C53.0514 92.6163 53.6591 92.1976 53.7222 92.0213C53.7852 91.845 53.0514 91.3646 53.0514 91.3646L53.1729 90.0423L54.7532 90.5756" fill="white"/>
<path d="M59.0032 89.0462C59.0032 89.0462 52.2004 86.5516 51.8403 86.4326C51.4801 86.3136 51.2325 86.4943 51.2325 86.7323C51.2325 86.9703 50.1385 91.3469 50.5031 91.6643C50.8678 91.9816 53.0514 92.6163 53.0514 92.6163C53.0514 92.6163 53.6591 92.1976 53.7222 92.0213C53.7852 91.845 53.0514 91.3646 53.0514 91.3646L53.1729 90.0423L54.7532 90.5756" stroke="#263238" stroke-linecap="round" stroke-linejoin="round"/>
<path d="M59.6694 88.037C59.6694 88.037 61.1912 89.8 60.4618 91.6643H62.0376C62.0376 91.6643 62.6454 88.6937 61.2497 87.8607L59.6694 88.037Z" fill="#263238" stroke="#263238" stroke-linecap="round" stroke-linejoin="round"/>
<path d="M62.0376 87.1466C62.0376 87.1466 63.1136 88.5218 63.3882 93.1364C63.4423 93.9914 74.7742 92.4973 77.9302 91.9023C81.0862 91.3073 82.3018 90.1393 82.5449 87.561C82.788 84.9826 79.8706 82.391 77.6871 81.5007C75.5035 80.6104 62.0376 87.1466 62.0376 87.1466Z" fill="#919191" stroke="#263238" stroke-linecap="round" stroke-linejoin="round"/>
<path d="M33.223 50.3655L29.2536 52.3012C28.8196 52.5128 28.643 53.0288 28.8592 53.4537L34.0685 63.6912C34.2847 64.116 34.8118 64.2889 35.2458 64.0772L39.2152 62.1415C39.6492 61.9298 39.8257 61.4138 39.6095 60.989L34.4002 50.7515C34.184 50.3267 33.657 50.1538 33.223 50.3655Z" fill="#22B1B7" stroke="#263238" stroke-linecap="round" stroke-linejoin="round"/>
<path d="M30.0813 71.1212L31.1393 66.912L28.8882 59.9615C28.8882 59.9615 30.9277 54.8621 31.3058 54.3464C31.684 53.8307 32.6565 53.3106 33.0392 53.4649C33.4218 53.6192 33.4173 54.1304 32.8906 54.4257C32.5187 54.6852 32.2298 55.0429 32.0577 55.4571L30.9277 59.2298L31.4409 60.054L32.8771 55.7656C32.8771 55.7656 37.0281 55.2499 37.2532 55.2499C37.4783 55.2499 38.3877 55.3248 37.933 55.9154C37.6805 56.2598 37.304 56.4976 36.8795 56.581H38.6128C38.6128 56.581 39.2161 56.8763 38.8379 57.3214C38.4598 57.7666 35.898 58.4277 35.898 58.4277L34.9166 61.46L36.803 59.3136L38.6894 59.0183C38.6894 59.0183 39.9725 59.3136 39.7474 59.8337C39.5223 60.3537 38.3967 60.054 38.3967 60.054L37.2622 60.6446L35.5289 63.7299V67.5732C35.5289 68.534 33.791 72.0115 33.791 72.0115L30.0813 71.1212Z" fill="white" stroke="#263238" stroke-linecap="round" stroke-linejoin="round"/>
<path d="M36.8795 56.5633L34.3088 57.1539L32.9536 61.4424" stroke="#263238" stroke-linecap="round" stroke-linejoin="round"/>
<path d="M29.2035 69.7504L36.0648 72.0247C36.0648 72.0247 30.6262 95.5252 29.7618 97.6761C28.3841 101.149 23.4993 100.431 21.4913 99.8137C19.4834 99.1966 18.3398 95.371 18.8531 93.8195C19.3663 92.2681 29.2035 69.7504 29.2035 69.7504Z" fill="#919191" stroke="#263238" stroke-linecap="round" stroke-linejoin="round"/>
</svg>
