<svg width="35" height="35" viewBox="0 0 35 35" fill="none" xmlns="http://www.w3.org/2000/svg">
<path d="M5.83335 26.25C5.03127 26.25 4.34488 25.9647 3.77419 25.394C3.20349 24.8233 2.91766 24.1364 2.91669 23.3333V7.29167C2.91669 6.48958 3.20252 5.80319 3.77419 5.2325C4.34585 4.66181 5.03224 4.37597 5.83335 4.375H29.1667C29.9688 4.375 30.6556 4.66083 31.2273 5.2325C31.799 5.80417 32.0843 6.49056 32.0834 7.29167V23.3333C32.0834 24.1354 31.798 24.8223 31.2273 25.394C30.6566 25.9656 29.9697 26.251 29.1667 26.25H24.7917L25.8125 27.2708C25.9584 27.4167 26.0677 27.581 26.1406 27.7638C26.2136 27.9465 26.25 28.1347 26.25 28.3281V29.1667C26.25 29.5799 26.11 29.926 25.83 30.205C25.55 30.484 25.2039 30.624 24.7917 30.625H10.2084C9.79516 30.625 9.44905 30.485 9.17002 30.205C8.89099 29.925 8.75099 29.5789 8.75002 29.1667V28.3281C8.75002 28.1337 8.78648 27.9456 8.8594 27.7638C8.93231 27.5819 9.04169 27.4176 9.18752 27.2708L10.2084 26.25H5.83335ZM5.83335 23.3333H29.1667V7.29167H5.83335V23.3333Z" fill="#22B1B7"/>
</svg>
