<svg preserveAspectRatio="none" width="100%" height="100%" overflow="visible" style="display: block;" viewBox="0 0 121.373 30.1137" fill="none" xmlns="http://www.w3.org/2000/svg">
<g id="Vector">
<path d="M22.4566 22.4253C22.4566 22.8738 21.6878 23.098 20.1501 23.098H19.3812L18.5964 23.082C17.1655 23.082 16.1777 23.0286 15.6331 22.9219C15.0885 22.8151 14.8162 22.5855 14.8162 22.2331C14.8162 22.137 14.9924 21.8807 15.3448 21.4643C15.7079 21.0478 15.9802 20.4925 16.1617 19.7984C16.3432 19.1043 16.434 17.8817 16.434 16.1304C16.434 14.3792 16.2418 13.3327 15.8574 12.991C15.4836 12.6386 13.962 12.4624 11.2924 12.4624C8.63346 12.4624 7.0851 12.6706 6.64729 13.0871C6.35897 13.354 6.21481 14.4165 6.21481 16.2746C6.21481 18.1326 6.27888 19.3499 6.40702 19.9266C6.54584 20.5032 6.72737 20.9517 6.95162 21.272L7.27197 21.6404C7.603 22.0142 7.76851 22.2331 7.76851 22.2972C7.76851 22.6816 7.43215 22.9112 6.75941 22.9859C6.46041 23.018 5.2591 23.034 3.15546 23.034C1.0625 23.034 0.0160176 22.7937 0.0160176 22.3132C0.0160176 22.0569 0.427135 21.6565 1.24937 21.1119C1.79397 20.7488 2.11966 20.2629 2.22644 19.6543C2.33322 19.0349 2.38662 16.4614 2.38662 11.9338C2.38662 7.40618 2.30653 4.78464 2.14635 4.06919C1.98618 3.35374 1.58574 2.81448 0.945036 2.45142C0.315012 2.07767 0 1.73597 0 1.42629C0 1.00984 1.3348 0.801608 4.00439 0.801608H5.55809C7.05306 0.801608 7.80055 1.05255 7.80055 1.55443C7.80055 1.59715 7.61902 1.84809 7.25595 2.30726C6.89289 2.75575 6.63661 3.31102 6.48711 3.97308C6.34829 4.62446 6.27888 5.69764 6.27888 7.19261C6.27888 8.68758 6.45508 9.60058 6.80746 9.93161C7.15985 10.2626 8.65482 10.4282 11.2924 10.4282C13.9406 10.4282 15.4516 10.2466 15.8253 9.88356C16.0923 9.62728 16.2258 8.68225 16.2258 7.04845C16.2258 5.40399 16.1671 4.35751 16.0496 3.90901C15.9428 3.46052 15.772 3.08144 15.537 2.77177L15.2007 2.40336C14.8696 2.05098 14.7041 1.81605 14.7041 1.69859C14.7041 1.29281 14.9978 1.05255 15.5851 0.977801C16.1724 0.903053 17.4805 0.865678 19.5094 0.865678C21.5383 0.865678 22.5527 1.08458 22.5527 1.5224C22.5527 1.85343 22.3605 2.15242 21.9761 2.41938C21.1111 3.00669 20.6413 3.38577 20.5665 3.55663C20.385 3.97308 20.2942 5.9913 20.2942 9.61126L20.1821 17.5239C20.1821 19.0082 20.2622 19.9639 20.4224 20.3911C20.5826 20.8182 20.8495 21.1439 21.2233 21.3681C22.0455 21.87 22.4566 22.2224 22.4566 22.4253Z" fill="#22B1B7"/>
<path d="M33.8131 15.6018H33.5408C32.1419 15.6018 30.9726 15.9168 30.0329 16.5469C29.1039 17.1662 28.6394 17.9404 28.6394 18.8694V19.1898C28.6394 19.7344 28.8049 20.2256 29.1359 20.6634C29.4776 21.0905 29.9155 21.3041 30.4494 21.3041L30.6416 21.3361H31.1221C32.2327 21.3361 33.1403 20.8823 33.8451 19.9746C34.1548 19.5795 34.3096 18.768 34.3096 17.54C34.3096 17.4438 34.3096 17.3477 34.3096 17.2516L34.3256 16.8672V16.4828C34.3256 15.8955 34.1548 15.6018 33.8131 15.6018ZM26.0285 10.4282C26.0285 9.63796 26.6532 8.93319 27.9026 8.31384C29.1626 7.68382 30.4654 7.36881 31.8109 7.36881C31.8536 7.36881 31.8963 7.36881 31.939 7.36881C33.2204 7.36881 34.2455 7.52364 35.0144 7.83331C36.5734 8.45266 37.4651 9.7661 37.6893 11.7736C37.7107 11.9765 37.7213 13.322 37.7213 15.8101C37.7213 18.2874 37.7854 19.7397 37.9136 20.1668C38.0524 20.594 38.4154 20.909 39.0028 21.1119C39.6007 21.3148 39.8997 21.507 39.8997 21.6885C39.8997 22.0729 39.7075 22.3666 39.3231 22.5695C38.5543 22.9752 37.7961 23.1781 37.0486 23.1781C36.3118 23.1781 35.7619 23.0073 35.3988 22.6656C34.7474 22.0569 34.4004 21.7526 34.3577 21.7526C34.3149 21.7526 33.7116 22.0249 32.5477 22.5695C31.3837 23.1034 30.3639 23.3703 29.4883 23.3703C28.1749 23.3703 27.1444 23.0073 26.3969 22.2811C25.6494 21.555 25.2757 20.6741 25.2757 19.6383V19.2378C25.2757 18.1273 25.7562 17.1502 26.7173 16.3066C27.6783 15.463 29.4082 14.8063 31.907 14.3364C32.8146 14.1656 33.3859 14.0054 33.6209 13.8559C34.0907 13.5569 34.3256 12.9483 34.3256 12.0299C34.3256 11.1116 34.08 10.4068 33.5888 9.9156C33.0976 9.42439 32.4409 9.17879 31.6187 9.17879C30.7964 9.17879 30.0009 9.65932 29.232 10.6204C28.4739 11.5707 27.7798 12.0459 27.1498 12.0459C26.4023 12.0459 26.0285 11.5067 26.0285 10.4282Z" fill="#22B1B7"/>
<path d="M47.2678 9.75542C47.2678 10.898 48.1541 13.6103 49.9267 17.8923C50.1723 18.4903 50.3699 18.7893 50.5194 18.7893C50.6689 18.7893 50.9465 18.3568 51.3523 17.4919C52.8259 14.3738 53.5627 12.0192 53.5627 10.4282C53.5627 9.96899 53.488 9.59525 53.3385 9.30693L53.1623 9.01861C52.906 8.67691 52.7779 8.43664 52.7779 8.29782C52.7779 7.88137 53.4559 7.67314 54.8121 7.67314H55.8372C57.1293 7.67314 57.7753 7.91874 57.7753 8.40995C57.7753 8.68758 57.5084 9.11472 56.9744 9.69135C56.4512 10.2573 56.0721 10.8072 55.8372 11.3412C55.6023 11.8751 54.7427 14.1069 53.2584 18.0365C51.7848 21.9555 50.6422 24.6304 49.8306 26.0613C49.0191 27.5029 48.2609 28.5387 47.5561 29.1687C46.862 29.7987 46.1466 30.1137 45.4098 30.1137H44.9933C44.438 30.1137 43.9629 29.9536 43.5678 29.6332C43.1833 29.3235 42.9911 28.9978 42.9911 28.6561C42.9911 28.3251 43.1246 28.0528 43.3916 27.8392C43.6692 27.6364 44.0323 27.5349 44.4808 27.5349L44.8492 27.5669C45.0093 27.5776 45.2549 27.583 45.586 27.583C46.3335 27.583 47.0222 27.1024 47.6522 26.1414C48.2823 25.1803 48.5973 24.2086 48.5973 23.2262C48.5973 22.2438 47.0756 18.533 44.0323 12.094C43.7546 11.5067 43.3435 10.898 42.7989 10.268C42.265 9.63796 41.998 9.20015 41.998 8.95454C41.998 8.54877 42.281 8.26579 42.847 8.10561C43.4129 7.93476 44.3206 7.84933 45.57 7.84933C46.83 7.84933 47.46 8.12163 47.46 8.66623C47.3319 9.2215 47.2678 9.58457 47.2678 9.75542Z" fill="#22B1B7"/>
<path d="M65.1434 9.75542C65.1434 10.898 66.0297 13.6103 67.8023 17.8923C68.0479 18.4903 68.2455 18.7893 68.395 18.7893C68.5445 18.7893 68.8221 18.3568 69.2279 17.4919C70.7015 14.3738 71.4383 12.0192 71.4383 10.4282C71.4383 9.96899 71.3636 9.59525 71.2141 9.30693L71.0379 9.01861C70.7816 8.67691 70.6534 8.43664 70.6534 8.29782C70.6534 7.88137 71.3315 7.67314 72.6877 7.67314H73.7128C75.0049 7.67314 75.6509 7.91874 75.6509 8.40995C75.6509 8.68758 75.384 9.11472 74.85 9.69135C74.3268 10.2573 73.9477 10.8072 73.7128 11.3412C73.4779 11.8751 72.6183 14.1069 71.134 18.0365C69.6604 21.9555 68.5178 24.6304 67.7062 26.0613C66.8947 27.5029 66.1365 28.5387 65.4317 29.1687C64.7376 29.7987 64.0222 30.1137 63.2854 30.1137H62.8689C62.3136 30.1137 61.8385 29.9536 61.4434 29.6332C61.0589 29.3235 60.8667 28.9978 60.8667 28.6561C60.8667 28.3251 61.0002 28.0528 61.2672 27.8392C61.5448 27.6364 61.9079 27.5349 62.3563 27.5349L62.7248 27.5669C62.8849 27.5776 63.1305 27.583 63.4616 27.583C64.209 27.583 64.8978 27.1024 65.5278 26.1414C66.1579 25.1803 66.4729 24.2086 66.4729 23.2262C66.4729 22.2438 64.9512 18.533 61.9079 12.094C61.6302 11.5067 61.2191 10.898 60.6745 10.268C60.1406 9.63796 59.8736 9.20015 59.8736 8.95454C59.8736 8.54877 60.1566 8.26579 60.7226 8.10561C61.2885 7.93476 62.1962 7.84933 63.4455 7.84933C64.7056 7.84933 65.3356 8.12163 65.3356 8.66623C65.2075 9.2215 65.1434 9.58457 65.1434 9.75542Z" fill="#22B1B7"/>
<path d="M79.5752 23.4024C79.02 23.4024 78.5127 23.2048 78.0536 22.8097C77.5944 22.4146 77.3648 21.8967 77.3648 21.256V21.1119C77.3648 20.4925 77.5997 19.98 78.0696 19.5742C78.5501 19.1684 79.036 18.9655 79.5272 18.9655H79.8155C79.9757 18.9976 80.0931 19.0136 80.1679 19.0136C80.5416 19.0136 80.9314 19.2165 81.3372 19.6222C81.7429 20.028 81.9458 20.4979 81.9458 21.0318V21.256C81.9458 21.7472 81.7483 22.2224 81.3532 22.6816C80.9688 23.1301 80.5256 23.3543 80.0237 23.3543L79.6553 23.4024H79.5752Z" fill="#22B1B7"/>
<path d="M115.299 8.15214L112.431 6.02231V2.42364C112.431 1.30732 111.359 0.342776 110.823 4.52464e-05H117.536C117.536 4.52464e-05 115.718 1.1996 115.299 1.90955V8.15214Z" fill="#22B1B7"/>
<path d="M95.8001 0L85.4076 22.5381H88.473L95.4263 5.78089L97.1459 9.43968L99.3141 7.53711L95.8001 0Z" fill="#22B1B7"/>
<path d="M102.365 22.9927H106.824C105.947 22.5239 105.387 21.9185 105.216 21.6743L101.049 12.3725L107.117 7.90474L112.527 11.7866C112.575 13.9839 112.644 18.7886 112.527 20.4292C112.38 22.48 110.772 22.6265 109.895 22.9927C109.76 23.049 117.864 22.9927 117.864 22.9927C115.956 22.515 115.548 20.9663 115.524 20.4292V14.2036L116.255 14.7163H121.373L107.117 4.31586L93.0801 14.7163H97.9052L98.7825 14.2036L102.365 22.9927Z" fill="#22B1B7"/>
<path d="M105.137 13.153H106.781V14.7971H105.137V13.153Z" fill="#22B1B7"/>
<path d="M105.137 16.4412H106.781V18.0853H105.137V16.4412Z" fill="#22B1B7"/>
<path d="M108.425 13.153H110.069V14.7971H108.425V13.153Z" fill="#22B1B7"/>
<path d="M108.425 16.4412H110.069V18.0853H108.425V16.4412Z" fill="#22B1B7"/>
</g>
</svg>
