<svg width="35" height="35" viewBox="0 0 35 35" fill="none" xmlns="http://www.w3.org/2000/svg">
<path d="M20.4167 21.875C20.4167 23.4937 19.1187 24.7916 17.5 24.7916C16.7264 24.7916 15.9846 24.4844 15.4376 23.9374C14.8906 23.3904 14.5833 22.6485 14.5833 21.875C14.5833 20.2562 15.8812 18.9583 17.5 18.9583C18.2735 18.9583 19.0154 19.2656 19.5624 19.8126C20.1094 20.3596 20.4167 21.1014 20.4167 21.875ZM19.0896 29.1666C19.2646 30.2166 19.6292 31.1937 20.1396 32.0833H8.74999C7.97645 32.0833 7.23458 31.776 6.6876 31.229C6.14062 30.6821 5.83333 29.9402 5.83333 29.1666V14.5833C5.83333 12.9646 7.13124 11.6666 8.74999 11.6666H10.2083V8.74998C10.2083 4.72498 13.475 1.45831 17.5 1.45831C21.525 1.45831 24.7917 4.72498 24.7917 8.74998V11.6666H26.25C27.0235 11.6666 27.7654 11.9739 28.3124 12.5209C28.8594 13.0679 29.1667 13.8098 29.1667 14.5833V19.0896C28.6854 19.0166 28.2042 18.9583 27.7083 18.9583C27.2125 18.9583 26.7312 19.0166 26.25 19.0896V14.5833H8.74999V29.1666H19.0896ZM13.125 11.6666H21.875V8.74998C21.875 6.32915 19.9208 4.37498 17.5 4.37498C15.0792 4.37498 13.125 6.32915 13.125 8.74998V11.6666ZM31.1208 23.1L25.8854 28.3354L23.5667 26.0166L21.875 27.7083L25.8854 32.0833L32.8125 25.1562L31.1208 23.1Z" fill="#22B1B7"/>
</svg>
