<svg preserveAspectRatio="none" width="100%" height="100%" overflow="visible" style="display: block;" viewBox="0 0 128.975 32" fill="none" xmlns="http://www.w3.org/2000/svg">
<g id="Vector">
<path d="M23.8633 23.83C23.8633 24.3066 23.0463 24.5449 21.4123 24.5449H20.5952L19.7612 24.5278C18.2407 24.5278 17.1911 24.4711 16.6124 24.3576C16.0337 24.2442 15.7443 24.0002 15.7443 23.6257C15.7443 23.5236 15.9315 23.2513 16.306 22.8087C16.6918 22.3662 16.9812 21.7761 17.1741 21.0386C17.367 20.301 17.4634 19.0017 17.4634 17.1408C17.4634 15.2798 17.2592 14.1678 16.8507 13.8047C16.4535 13.4302 14.8365 13.243 11.9997 13.243C9.17425 13.243 7.5289 13.4643 7.06366 13.9068C6.75728 14.1905 6.6041 15.3196 6.6041 17.294C6.6041 19.2684 6.67218 20.562 6.80835 21.1747C6.95586 21.7875 7.14876 22.2641 7.38706 22.6045L7.72747 22.996C8.07924 23.3931 8.25512 23.6257 8.25512 23.6938C8.25512 24.1023 7.89768 24.3463 7.18281 24.4257C6.86508 24.4598 5.58852 24.4768 3.35311 24.4768C1.12905 24.4768 0.0170209 24.2215 0.0170209 23.7108C0.0170209 23.4385 0.45389 23.013 1.32763 22.4343C1.90634 22.0485 2.25243 21.5322 2.3659 20.8854C2.47937 20.2272 2.53611 17.4926 2.53611 12.6813C2.53611 7.87009 2.451 5.08434 2.2808 4.32408C2.11059 3.56381 1.68507 2.99077 1.00423 2.60497C0.334744 2.20781 0 1.8447 0 1.51563C0 1.07309 1.41841 0.851819 4.25522 0.851819H5.90624C7.49485 0.851819 8.28916 1.11848 8.28916 1.6518C8.28916 1.69719 8.09626 1.96385 7.71045 2.45178C7.32465 2.92836 7.05231 3.51842 6.89345 4.22195C6.74594 4.91413 6.67218 6.05453 6.67218 7.64314C6.67218 9.23176 6.85941 10.2019 7.23387 10.5537C7.60833 10.9055 9.19694 11.0814 11.9997 11.0814C14.8138 11.0814 16.4195 10.8885 16.8166 10.5026C17.1003 10.2303 17.2421 9.22608 17.2421 7.48996C17.2421 5.74248 17.1797 4.63045 17.0549 4.15387C16.9414 3.67728 16.7599 3.27446 16.5102 2.94539L16.1528 2.55391C15.801 2.17945 15.6252 1.92981 15.6252 1.80499C15.6252 1.37379 15.9372 1.11848 16.5613 1.03905C17.1854 0.959618 18.5754 0.919903 20.7314 0.919903C22.8874 0.919903 23.9654 1.15252 23.9654 1.61776C23.9654 1.96952 23.7611 2.28725 23.3526 2.57093C22.4335 3.19502 21.9342 3.59785 21.8548 3.77941C21.6619 4.22195 21.5654 6.36658 21.5654 10.2133L21.4463 18.6216C21.4463 20.1989 21.5314 21.2144 21.7016 21.6683C21.8718 22.1222 22.1555 22.4683 22.5526 22.7066C23.4264 23.2399 23.8633 23.6144 23.8633 23.83Z" fill="var(--fill-0, #22B1B7)"/>
<path d="M35.931 16.5791H35.6417C34.1552 16.5791 32.9127 16.9138 31.9141 17.5833C30.9269 18.2415 30.4333 19.0641 30.4333 20.0514V20.3918C30.4333 20.9705 30.6092 21.4925 30.961 21.9577C31.3241 22.4116 31.7893 22.6385 32.3567 22.6385L32.5609 22.6726H33.0715C34.2517 22.6726 35.2162 22.1903 35.9651 21.2258C36.2942 20.8059 36.4587 19.9436 36.4587 18.6386C36.4587 18.5365 36.4587 18.4344 36.4587 18.3322L36.4757 17.9237V17.5152C36.4757 16.8911 36.2942 16.5791 35.931 16.5791ZM27.6589 11.0814C27.6589 10.2417 28.3227 9.49275 29.6503 8.83461C30.9893 8.16512 32.3737 7.83037 33.8034 7.83037C33.8488 7.83037 33.8942 7.83037 33.9396 7.83037C35.3013 7.83037 36.3906 7.99491 37.2076 8.32398C38.8643 8.98212 39.8118 10.3778 40.0501 12.5111C40.0728 12.7267 40.0841 14.1565 40.0841 16.8004C40.0841 19.4329 40.1522 20.9762 40.2884 21.43C40.4359 21.8839 40.8217 22.2187 41.4458 22.4343C42.0813 22.6499 42.399 22.8541 42.399 23.047C42.399 23.4555 42.1947 23.7676 41.7862 23.9832C40.9692 24.4144 40.1636 24.63 39.3693 24.63C38.5863 24.63 38.0019 24.4484 37.6161 24.0853C36.9239 23.4385 36.5551 23.1151 36.5098 23.1151C36.4644 23.1151 35.8232 23.4045 34.5864 23.9832C33.3496 24.5505 32.2659 24.8342 31.3354 24.8342C29.9397 24.8342 28.8447 24.4484 28.0504 23.6768C27.2561 22.9052 26.8589 21.969 26.8589 20.8684V20.4428C26.8589 19.2627 27.3696 18.2244 28.3908 17.328C29.4121 16.4316 31.2503 15.7337 33.9056 15.2344C34.8701 15.0529 35.4772 14.8827 35.7268 14.7238C36.2261 14.4061 36.4757 13.7593 36.4757 12.7834C36.4757 11.8076 36.2147 11.0587 35.6928 10.5367C35.1708 10.0147 34.4729 9.75373 33.5992 9.75373C32.7255 9.75373 31.8801 10.2644 31.0631 11.2856C30.2574 12.2955 29.5199 12.8005 28.8504 12.8005C28.0561 12.8005 27.6589 12.2274 27.6589 11.0814Z" fill="var(--fill-0, #22B1B7)"/>
<path d="M50.2286 10.3665C50.2286 11.5806 51.1704 14.4628 53.054 19.0131C53.315 19.6485 53.525 19.9663 53.6838 19.9663C53.8427 19.9663 54.1377 19.5067 54.5689 18.5876C56.1348 15.2742 56.9178 12.7721 56.9178 11.0814C56.9178 10.5934 56.8383 10.1963 56.6795 9.8899L56.4923 9.58352C56.2199 9.22041 56.0838 8.9651 56.0838 8.81758C56.0838 8.37504 56.8043 8.15377 58.2454 8.15377H59.3347C60.7078 8.15377 61.3943 8.41476 61.3943 8.93673C61.3943 9.23176 61.1106 9.68565 60.5432 10.2984C59.9872 10.8998 59.5844 11.4842 59.3347 12.0515C59.0851 12.6189 58.1716 14.9905 56.5944 19.1663C55.0285 23.3307 53.8143 26.1732 52.9519 27.6937C52.0895 29.2256 51.2839 30.3263 50.535 30.9958C49.7974 31.6653 49.0371 32 48.2542 32H47.8116C47.2216 32 46.7166 31.8298 46.2968 31.4894C45.8883 31.1603 45.684 30.8142 45.684 30.4511C45.684 30.0993 45.8258 29.81 46.1095 29.583C46.4046 29.3674 46.7904 29.2596 47.2669 29.2596L47.6584 29.2937C47.8286 29.305 48.0896 29.3107 48.4414 29.3107C49.2357 29.3107 49.9676 28.8001 50.6371 27.7788C51.3066 26.7576 51.6413 25.725 51.6413 24.681C51.6413 23.6371 50.0243 19.6939 46.7904 12.8515C46.4953 12.2274 46.0585 11.5806 45.4798 10.9112C44.9124 10.2417 44.6287 9.77643 44.6287 9.51544C44.6287 9.08424 44.9294 8.78354 45.5308 8.61333C46.1322 8.43178 47.0967 8.341 48.4244 8.341C49.7633 8.341 50.4328 8.63035 50.4328 9.20906C50.2967 9.79912 50.2286 10.1849 50.2286 10.3665Z" fill="var(--fill-0, #22B1B7)"/>
<path d="M69.2239 10.3665C69.2239 11.5806 70.1657 14.4628 72.0493 19.0131C72.3103 19.6485 72.5202 19.9663 72.6791 19.9663C72.838 19.9663 73.133 19.5067 73.5642 18.5876C75.1301 15.2742 75.9131 12.7721 75.9131 11.0814C75.9131 10.5934 75.8336 10.1963 75.6748 9.8899L75.4875 9.58352C75.2152 9.22041 75.079 8.9651 75.079 8.81758C75.079 8.37504 75.7996 8.15377 77.2407 8.15377H78.33C79.703 8.15377 80.3896 8.41476 80.3896 8.93673C80.3896 9.23176 80.1059 9.68565 79.5385 10.2984C78.9825 10.8998 78.5797 11.4842 78.33 12.0515C78.0804 12.6189 77.1669 14.9905 75.5897 19.1663C74.0238 23.3307 72.8096 26.1732 71.9472 27.6937C71.0848 29.2256 70.2792 30.3263 69.5302 30.9958C68.7927 31.6653 68.0324 32 67.2494 32H66.8069C66.2168 32 65.7119 31.8298 65.292 31.4894C64.8835 31.1603 64.6793 30.8142 64.6793 30.4511C64.6793 30.0993 64.8211 29.81 65.1048 29.583C65.3998 29.3674 65.7856 29.2596 66.2622 29.2596L66.6537 29.2937C66.8239 29.305 67.0849 29.3107 67.4367 29.3107C68.231 29.3107 68.9629 28.8001 69.6324 27.7788C70.3019 26.7576 70.6366 25.725 70.6366 24.681C70.6366 23.6371 69.0196 19.6939 65.7857 12.8515C65.4906 12.2274 65.0538 11.5806 64.475 10.9112C63.9077 10.2417 63.624 9.77643 63.624 9.51544C63.624 9.08424 63.9247 8.78354 64.5261 8.61333C65.1275 8.43178 66.092 8.341 67.4197 8.341C68.7586 8.341 69.4281 8.63035 69.4281 9.20906C69.2919 9.79912 69.2239 10.1849 69.2239 10.3665Z" fill="var(--fill-0, #22B1B7)"/>
<path d="M84.5597 24.8683C83.9696 24.8683 83.4306 24.6583 82.9427 24.2385C82.4548 23.8186 82.2108 23.2683 82.2108 22.5875V22.4343C82.2108 21.7761 82.4604 21.2315 82.9597 20.8003C83.4703 20.3691 83.9866 20.1535 84.5086 20.1535H84.815C84.9852 20.1875 85.11 20.2045 85.1894 20.2045C85.5866 20.2045 86.0008 20.4201 86.432 20.8513C86.8632 21.2825 87.0788 21.7818 87.0788 22.3492V22.5875C87.0788 23.1094 86.8688 23.6144 86.449 24.1023C86.0405 24.5789 85.5696 24.8172 85.0363 24.8172L84.6448 24.8683H84.5597Z" fill="var(--fill-0, #22B1B7)"/>
<path d="M122.521 8.66277L119.474 6.39954V2.57545C119.474 1.38921 118.334 0.364247 117.765 4.80806e-05H124.899C124.899 4.80806e-05 122.967 1.27474 122.521 2.02916V8.66277Z" fill="var(--fill-0, #22B1B7)"/>
<path d="M101.801 0L90.7573 23.9499H94.0148L101.404 6.14299L103.231 10.031L105.535 8.00922L101.801 0Z" fill="var(--fill-0, #22B1B7)"/>
<path d="M108.777 24.4329H113.516C112.583 23.9348 111.988 23.2914 111.806 23.032L107.378 13.1475L113.826 8.39988L119.575 12.5249C119.627 14.8598 119.699 19.9655 119.575 21.7088C119.42 23.8881 117.711 24.0438 116.778 24.4329C116.635 24.4928 125.246 24.4329 125.246 24.4329C123.219 23.9253 122.786 22.2796 122.76 21.7088V15.0933L123.537 15.6381H128.975L113.826 4.5862L98.9105 15.6381H104.038L104.97 15.0933L108.777 24.4329Z" fill="var(--fill-0, #22B1B7)"/>
<path d="M111.723 13.9769H113.47V15.724H111.723V13.9769Z" fill="var(--fill-0, #22B1B7)"/>
<path d="M111.723 17.471H113.47V19.2181H111.723V17.471Z" fill="var(--fill-0, #22B1B7)"/>
<path d="M115.217 13.9769H116.964V15.724H115.217V13.9769Z" fill="var(--fill-0, #22B1B7)"/>
<path d="M115.217 17.471H116.964V19.2181H115.217V17.471Z" fill="var(--fill-0, #22B1B7)"/>
</g>
</svg>
