<svg preserveAspectRatio="none" width="100%" height="100%" overflow="visible" style="display: block;" viewBox="0 0 317 317" fill="none" xmlns="http://www.w3.org/2000/svg">
<g id="Group 1078">
<g id="Ellipse 24" filter="url(#filter0_f_0_172)">
<circle cx="158.5" cy="158.5" r="144.5" fill="var(--fill-0, white)" fill-opacity="0.4"/>
</g>
<g id="hayyai_bot 1">
<g id="Vector" filter="url(#filter1_d_0_172)">
<path d="M105.288 178.8C101.453 181.73 97.2848 185.278 93.0424 189.54C87.5683 195.039 83.2404 200.449 79.86 205.257C79.86 205.257 93.9212 230.676 125.829 240.951C139.112 245.229 152.956 245.945 164.593 245.324C176.508 244.688 183.705 258.32 176.565 267.879C172.634 273.141 168.308 278.02 163.957 281.242C163.957 281.242 189.646 271.237 235.886 205.798C234.376 202.976 232.475 199.92 230.072 196.807C223.452 188.229 215.878 182.907 210.265 179.719C205.043 184.061 186.859 198.085 159.729 198.555C129.957 199.071 110.061 182.907 105.288 178.8Z" fill="url(#paint0_linear_0_172)"/>
</g>
<path id="Vector_2" d="M116.962 217.291C120.62 217.291 123.587 214.325 123.587 210.666C123.587 207.008 120.62 204.041 116.962 204.041C113.303 204.041 110.337 207.008 110.337 210.666C110.337 214.325 113.303 217.291 116.962 217.291Z" fill="var(--fill-0, #191A2E)"/>
<path id="Vector_3" d="M193.757 217.291C197.416 217.291 200.382 214.325 200.382 210.666C200.382 207.008 197.416 204.041 193.757 204.041C190.098 204.041 187.132 207.008 187.132 210.666C187.132 214.325 190.098 217.291 193.757 217.291Z" fill="var(--fill-0, #191A2E)"/>
<g id="Group">
<path id="Vector_4" d="M151.02 217.173L153.084 215.023L149.3 207.455C149.3 207.455 137.777 230.76 137.777 230.932C137.777 231.104 141.561 230.932 141.561 230.932L149.042 213.475L151.02 217.173Z" fill="var(--fill-0, #191A2E)"/>
<path id="Vector_5" d="M170.799 228.095C170.649 226.452 170.702 224.065 170.772 222.341L171.745 223.059C171.745 223.059 176.646 222.677 176.99 222.677C177.334 222.677 161.683 212.014 161.683 212.014C161.683 212.014 146.72 222.935 146.29 223.021C145.86 223.107 151.708 223.021 151.708 223.021L152.977 222.143C154.024 224.796 156.696 231.706 156.696 231.706H161.632C161.632 231.706 160.221 230.846 159.705 230.158C159.292 229.608 156.346 223.165 155.187 220.615L162.027 215.883L167.617 220.011V228.697C167.617 228.697 166.499 231.19 164.177 231.706H173.636C173.636 231.706 171.057 230.932 170.799 228.095Z" fill="var(--fill-0, #191A2E)"/>
<path id="Vector_6" d="M167.36 209.004C167.876 209.864 167.532 213.82 167.532 213.82L170.714 216.313C170.714 216.313 170.284 210.208 170.714 209.262C171.144 208.316 173.294 207.37 172.95 207.456C172.606 207.542 165.554 207.456 165.554 207.456C165.554 207.456 166.844 208.144 167.36 209.004Z" fill="var(--fill-0, #191A2E)"/>
<path id="Vector_7" d="M161.633 221.295H159.558V223.369H161.633V221.295Z" fill="var(--fill-0, #191A2E)"/>
<path id="Vector_8" d="M165.215 221.295H163.14V223.369H165.215V221.295Z" fill="var(--fill-0, #191A2E)"/>
<path id="Vector_9" d="M161.633 224.607H159.558V226.682H161.633V224.607Z" fill="var(--fill-0, #191A2E)"/>
<path id="Vector_10" d="M165.215 224.607H163.14V226.682H165.215V224.607Z" fill="var(--fill-0, #191A2E)"/>
</g>
<g id="Group_2">
<path id="Vector_11" d="M89.984 147.638C88.8813 147.271 87.7786 146.904 86.6759 146.537C78.2262 129.04 81.3657 103.29 81.3657 103.29L84.2464 101.748C83.2182 107.253 82.5309 114.238 83.2067 122.218C83.8361 129.65 85.4292 135.367 86.3286 138.245C87.5178 142.05 88.8458 145.216 89.984 147.638Z" fill="var(--fill-0, #2B3056)"/>
<path id="Vector_12" d="M86.6759 146.536C86.6759 146.536 72.8796 144.679 70.9129 127.015C68.9534 109.343 81.3657 103.29 81.3657 103.29C81.3657 103.29 81.2127 104.521 81.0671 106.634C81.0671 106.634 72.3624 113.007 73.6153 125.784C74.8464 138.371 85.2555 143.914 85.5832 144.082L85.5905 144.089C85.9256 144.919 86.2898 145.735 86.6759 146.536Z" fill="url(#paint1_linear_0_172)"/>
<path id="Vector_13" d="M85.5833 144.082C85.2555 143.915 74.8464 138.372 73.6153 125.785C72.3625 113.008 81.0671 106.634 81.0671 106.634C80.579 113.729 80.1347 130.716 85.5833 144.082Z" fill="url(#paint2_linear_0_172)"/>
</g>
<g id="Group_3">
<path id="Vector_14" d="M225.934 147.638C227.037 147.271 228.14 146.904 229.243 146.537C237.692 129.04 234.553 103.29 234.553 103.29L231.672 101.748C232.7 107.253 233.388 114.238 232.712 122.218C232.082 129.65 230.489 135.367 229.59 138.245C228.401 142.05 227.073 145.216 225.934 147.638Z" fill="var(--fill-0, #2B3056)"/>
<path id="Vector_15" d="M229.243 146.536C229.243 146.536 243.039 144.679 245.006 127.015C246.965 109.343 234.553 103.29 234.553 103.29C234.553 103.29 234.706 104.521 234.851 106.634C234.851 106.634 243.556 113.007 242.303 125.784C241.072 138.371 230.663 143.914 230.335 144.082L230.328 144.089C229.993 144.919 229.629 145.735 229.243 146.536Z" fill="url(#paint3_linear_0_172)"/>
<path id="Vector_16" d="M230.335 144.082C230.663 143.915 241.072 138.372 242.303 125.785C243.556 113.008 234.851 106.634 234.851 106.634C235.339 113.729 235.783 130.716 230.335 144.082Z" fill="url(#paint4_linear_0_172)"/>
</g>
<path id="Vector_17" d="M157.864 190.782C199.253 190.782 232.805 157.23 232.805 115.841C232.805 74.4514 199.253 40.8989 157.864 40.8989C116.474 40.8989 82.9219 74.4514 82.9219 115.841C82.9219 157.23 116.474 190.782 157.864 190.782Z" fill="url(#paint5_linear_0_172)"/>
<path id="Vector_18" d="M228.723 115.842C228.723 117.612 228.657 119.374 228.533 121.108C226.632 113.86 222.618 107.414 216.806 102.825C203.06 91.9786 186.081 96.9391 182.555 97.9662C166.406 102.679 158.641 115.528 156.93 118.529C155.699 116.359 145.297 98.7237 125.178 96.3928C121.711 95.9921 110.18 94.8339 99.3554 102.511C92.3481 107.479 88.7788 113.919 87.0452 118.078C87.0234 117.335 87.0088 116.592 87.0088 115.842C87.0088 76.7109 118.731 44.9883 157.862 44.9883C197 44.9883 228.723 76.7109 228.723 115.842Z" fill="var(--fill-0, #191A2E)"/>
<path id="Vector_19" d="M228.533 121.107C227.593 133.92 223.237 145.786 216.383 155.802V155.809C203.621 174.457 182.169 186.694 157.862 186.694C133.562 186.694 112.124 174.464 99.3625 155.816C99.3625 155.812 99.3601 155.807 99.3552 155.802C91.9546 145.007 87.4748 132.048 87.045 118.077C88.7786 113.918 92.3479 107.479 99.3552 102.511C110.18 94.8332 121.71 95.9914 125.178 96.392C145.297 98.723 155.698 116.358 156.929 118.529C158.641 115.528 166.406 102.678 182.555 97.9654C186.081 96.9383 203.06 91.9778 216.805 102.824C222.618 107.413 226.632 113.86 228.533 121.107Z" fill="url(#paint6_linear_0_172)"/>
<g id="Group_4">
<path id="Vector_20" d="M122.464 143.982C131.855 143.982 139.469 136.368 139.469 126.977C139.469 117.585 131.855 109.972 122.464 109.972C113.072 109.972 105.459 117.585 105.459 126.977C105.459 136.368 113.072 143.982 122.464 143.982Z" fill="var(--fill-0, #242136)"/>
<path id="Vector_21" d="M127.598 126.179C129.047 126.427 130.564 127.293 130.871 128.73C131.137 129.973 130.376 131.262 129.318 131.967C127.638 133.085 125.451 132.969 123.444 132.755C121.159 132.512 118.796 132.164 116.872 130.908C115.243 129.843 113.923 127.881 114.109 125.867C114.238 124.471 115.586 121.806 117.305 122.014C118.576 122.167 119.65 124.131 120.664 124.812C122.818 126.259 125.188 125.767 127.598 126.179Z" fill="url(#paint7_linear_0_172)"/>
<path id="Vector_22" d="M121.707 126.153C124.114 126.153 126.066 124.202 126.066 121.795C126.066 119.387 124.114 117.436 121.707 117.436C119.3 117.436 117.349 119.387 117.349 121.795C117.349 124.202 119.3 126.153 121.707 126.153Z" fill="var(--fill-0, #FCFDFF)"/>
<path id="Vector_23" d="M130.947 126.521C130.844 126.205 130.668 125.931 130.42 125.7C130.189 125.452 129.915 125.276 129.599 125.173C129.295 125.014 128.968 124.94 128.617 124.954C128.391 124.984 128.165 125.014 127.939 125.045C127.507 125.166 127.132 125.384 126.814 125.7C126.681 125.872 126.548 126.044 126.416 126.216C126.185 126.614 126.069 127.043 126.067 127.503V127.662C126.054 128.013 126.128 128.34 126.287 128.644C126.39 128.96 126.566 129.234 126.814 129.464C127.045 129.713 127.319 129.889 127.635 129.992C127.939 130.151 128.266 130.224 128.617 130.211C128.843 130.181 129.069 130.15 129.295 130.12C129.727 129.999 130.102 129.78 130.42 129.464C130.553 129.292 130.685 129.12 130.818 128.948C131.049 128.551 131.165 128.122 131.166 127.662V127.503C131.18 127.152 131.106 126.825 130.947 126.521Z" fill="var(--fill-0, #A4D7F6)"/>
</g>
<g id="Group_5">
<path id="Vector_24" d="M193.846 143.982C203.238 143.982 210.851 136.368 210.851 126.977C210.851 117.585 203.238 109.972 193.846 109.972C184.455 109.972 176.841 117.585 176.841 126.977C176.841 136.368 184.455 143.982 193.846 143.982Z" fill="var(--fill-0, #242136)"/>
<path id="Vector_25" d="M198.982 126.18C200.431 126.427 201.948 127.293 202.255 128.731C202.52 129.974 201.76 131.263 200.702 131.967C199.022 133.085 196.834 132.969 194.827 132.756C192.543 132.512 190.18 132.165 188.256 130.908C186.627 129.843 185.306 127.881 185.492 125.867C185.621 124.471 186.97 121.806 188.688 122.014C189.96 122.168 191.034 124.131 192.048 124.812C194.202 126.259 196.571 125.767 198.982 126.18Z" fill="url(#paint8_linear_0_172)"/>
<path id="Vector_26" d="M193.09 126.153C195.497 126.153 197.449 124.202 197.449 121.795C197.449 119.387 195.497 117.436 193.09 117.436C190.683 117.436 188.731 119.387 188.731 121.795C188.731 124.202 190.683 126.153 193.09 126.153Z" fill="var(--fill-0, #FCFDFF)"/>
<path id="Vector_27" d="M202.33 126.521C202.227 126.205 202.051 125.931 201.803 125.7C201.572 125.452 201.298 125.276 200.982 125.173C200.678 125.014 200.351 124.94 200 124.954C199.774 124.984 199.548 125.014 199.322 125.045C198.89 125.166 198.515 125.384 198.197 125.7C198.064 125.872 197.931 126.044 197.798 126.216C197.568 126.614 197.452 127.043 197.45 127.503V127.662C197.437 128.013 197.51 128.34 197.67 128.644C197.773 128.96 197.948 129.234 198.197 129.464C198.428 129.713 198.701 129.889 199.017 129.992C199.321 130.151 199.649 130.224 200 130.211C200.226 130.181 200.452 130.15 200.678 130.12C201.109 129.999 201.484 129.78 201.803 129.464C201.935 129.292 202.068 129.12 202.201 128.948C202.432 128.551 202.548 128.122 202.549 127.662V127.503C202.562 127.152 202.489 126.825 202.33 126.521Z" fill="var(--fill-0, #A4D7F6)"/>
</g>
<path id="Vector_28" d="M216.383 155.808C203.622 174.456 182.17 186.693 157.862 186.693C133.562 186.693 112.125 174.463 99.363 155.815C102.546 159.377 123.678 182.272 158.307 182.082C192.44 181.893 213.164 159.414 216.383 155.808Z" fill="url(#paint9_linear_0_172)"/>
<path id="Vector_29" d="M93.2439 88.8398C95.9767 89.2718 98.1977 91.0649 99.1633 93.2587C97.5869 91.453 95.1917 90.6858 93.1949 91.0074C91.4784 91.1897 91.5363 88.5832 93.2439 88.8398Z" fill="var(--fill-0, white)"/>
<path id="Vector_30" d="M97.742 78.4657C100.944 75.6506 105.283 74.5556 109.167 75.2912C109.343 75.3225 109.316 75.6 109.134 75.5907C105.277 75.4799 101.545 77.2272 99.2928 79.9808C98.2748 81.1559 96.5886 79.5149 97.742 78.4657Z" fill="var(--fill-0, white)"/>
<path id="Vector_31" d="M183.929 49.9969C187.785 52.5768 189.52 57.6857 188.775 62.1126C188.756 62.2089 188.664 62.2722 188.568 62.254C188.48 62.2374 188.419 62.1564 188.423 62.0695C188.522 59.9457 187.935 57.8552 186.967 56.0441C186 54.247 184.567 52.6516 182.9 51.9055C181.52 51.2304 182.601 49.2148 183.929 49.9969Z" fill="var(--fill-0, white)"/>
<path id="Vector_32" d="M215.709 78.8132C214.293 76.8774 212.034 75.485 209.738 74.7206C207.369 73.9377 204.687 73.9304 202.227 74.7614C202.025 74.8376 201.89 74.5193 202.092 74.4308C207.071 72.0138 213.579 73.3951 217.392 77.4459C218.38 78.5841 216.624 80.0174 215.709 78.8132Z" fill="var(--fill-0, white)"/>
<path id="Vector_33" d="M222.175 91.7627C220.893 90.8482 218.427 91.0101 216.977 91.8957C215.023 92.9684 213.685 94.9406 211.641 96.1084C211.461 96.2208 211.225 96.0204 211.305 95.8246C212.167 93.4167 213.527 91.3154 215.728 89.8433C218.099 88.2978 221.732 88.0407 223.786 90.3105C224.627 91.3823 223.149 92.6956 222.175 91.7627Z" fill="var(--fill-0, white)"/>
<path id="Vector_34" d="M157.205 114.749V52.8322C157.205 52.8322 152.935 46.6264 143.814 47.5645" stroke="var(--stroke-0, white)" stroke-width="1.47776" stroke-linecap="round" stroke-linejoin="round"/>
<path id="Vector_35" d="M157.204 57.254V52.8314C157.204 52.8314 162.254 46.0584 173.018 47.7896" stroke="var(--stroke-0, white)" stroke-width="1.47776" stroke-linecap="round" stroke-linejoin="round"/>
<path id="Vector_36" d="M157.204 101.883C157.885 101.481 190.832 69.9866 190.832 69.9866" stroke="var(--stroke-0, white)" stroke-width="1.47776" stroke-linecap="round" stroke-linejoin="round"/>
<path id="Vector_37" d="M157.205 96.9243L123.711 62.1069C123.283 61.6619 122.958 61.129 122.781 60.5374C122.322 59.0028 122.72 56.0442 125.824 54.0385" stroke="var(--stroke-0, white)" stroke-width="1.47776" stroke-linecap="round" stroke-linejoin="round"/>
<path id="Vector_38" d="M132.971 62.8832L133.498 72.2807" stroke="var(--stroke-0, white)" stroke-width="1.47776" stroke-linecap="round" stroke-linejoin="round"/>
<path id="Vector_39" d="M129.432 82.8513C129.432 82.8513 132.699 91.8839 132.971 91.5892C133.244 91.2945 150.484 89.9363 150.484 89.9363" stroke="var(--stroke-0, white)" stroke-width="1.47776" stroke-linecap="round" stroke-linejoin="round"/>
<path id="Vector_40" d="M146.722 70.6556C147.267 70.7896 157.205 70.6556 157.205 70.6556" stroke="var(--stroke-0, white)" stroke-width="1.47776" stroke-linecap="round" stroke-linejoin="round"/>
<path id="Vector_41" d="M131.71 81.128C131.589 80.6961 131.371 80.3211 131.055 80.003L130.747 79.6956C130.516 79.447 130.243 79.2713 129.927 79.1685C129.623 79.0088 129.295 78.9357 128.944 78.9489C128.593 78.9357 128.266 79.0088 127.962 79.1685C127.646 79.2713 127.373 79.447 127.142 79.6956C127.009 79.8676 126.876 80.0396 126.743 80.2116C126.512 80.6092 126.396 81.0382 126.395 81.4984C126.425 81.7243 126.456 81.9502 126.486 82.1761C126.607 82.608 126.826 82.983 127.142 83.3011C127.244 83.4036 127.347 83.506 127.449 83.6085C127.68 83.8571 127.954 84.0329 128.27 84.1357C128.573 84.2953 128.901 84.3685 129.252 84.3552C129.603 84.3685 129.93 84.2953 130.234 84.1357C130.55 84.0329 130.824 83.8571 131.055 83.6085C131.187 83.4365 131.32 83.2645 131.453 83.0926C131.684 82.6949 131.8 82.266 131.801 81.8058C131.771 81.5798 131.741 81.3539 131.71 81.128Z" fill="var(--fill-0, white)"/>
<path id="Vector_42" d="M132.94 58.9691C129.659 58.9691 129.654 64.068 132.94 64.068C136.221 64.068 136.227 58.9691 132.94 58.9691Z" fill="var(--fill-0, white)"/>
<path id="Vector_43" d="M168.291 82.0511C168.17 81.6192 167.951 81.2442 167.636 80.9261C167.464 80.7932 167.292 80.6603 167.12 80.5275C166.722 80.2968 166.293 80.1808 165.833 80.1794H165.525C165.174 80.1661 164.847 80.2393 164.543 80.399C164.227 80.5018 163.954 80.6775 163.723 80.9261C163.474 81.157 163.298 81.4305 163.196 81.7466C163.036 82.0504 162.963 82.3778 162.976 82.7288C163.006 82.9547 163.037 83.1807 163.067 83.4066C163.188 83.8385 163.407 84.2135 163.723 84.5316L164.239 84.9302C164.636 85.1608 165.065 85.2769 165.525 85.2783H165.833C166.184 85.2916 166.511 85.2183 166.815 85.0587C167.131 84.9559 167.405 84.7802 167.636 84.5316C167.884 84.3007 168.06 84.0272 168.163 83.7111C168.322 83.4072 168.396 83.0798 168.382 82.7288C168.352 82.5029 168.322 82.277 168.291 82.0511Z" fill="var(--fill-0, white)"/>
<path id="Vector_44" d="M193.806 68.833C193.685 68.4011 193.467 68.0261 193.151 67.708C193.048 67.6056 192.946 67.5031 192.843 67.4006C192.612 67.152 192.339 66.9763 192.023 66.8734C191.719 66.7138 191.392 66.6407 191.041 66.6539C190.69 66.6407 190.362 66.7138 190.058 66.8734C189.742 66.9763 189.469 67.152 189.238 67.4006C189.105 67.5726 188.972 67.7446 188.839 67.9166C188.609 68.3142 188.493 68.7431 188.491 69.2033C188.521 69.4293 188.552 69.6552 188.582 69.8811C188.703 70.313 188.922 70.688 189.238 71.0061L189.545 71.3135C189.776 71.5621 190.05 71.7378 190.366 71.8406C190.67 72.0003 190.997 72.0735 191.348 72.0602C191.699 72.0735 192.026 72.0003 192.33 71.8406C192.646 71.7378 192.92 71.5621 193.151 71.3135C193.284 71.1415 193.416 70.9695 193.549 70.7975C193.78 70.3999 193.896 69.971 193.897 69.5108C193.867 69.2848 193.837 69.0589 193.806 68.833Z" fill="var(--fill-0, white)"/>
<path id="Vector_45" d="M182.125 86.3288H181.935C178.654 86.3288 178.648 91.4278 181.935 91.4278H182.125C185.406 91.4278 185.411 86.3288 182.125 86.3288Z" fill="var(--fill-0, white)"/>
<path id="Vector_46" d="M146.721 60.2841C148.799 60.2841 150.483 58.5999 150.483 56.5224C150.483 54.4449 148.799 52.7607 146.721 52.7607C144.644 52.7607 142.96 54.4449 142.96 56.5224C142.96 58.5999 144.644 60.2841 146.721 60.2841Z" fill="var(--fill-0, white)"/>
<path id="Vector_47" d="M106.703 87.8569C107.547 87.8569 108.231 87.1726 108.231 86.3284C108.231 85.4843 107.547 84.8 106.703 84.8C105.859 84.8 105.174 85.4843 105.174 86.3284C105.174 87.1726 105.859 87.8569 106.703 87.8569Z" fill="var(--fill-0, white)"/>
<path id="Vector_48" d="M109.608 86.3288H112.275" stroke="var(--stroke-0, #E7FDFA)" stroke-width="0.496476" stroke-linecap="round" stroke-linejoin="round"/>
<g id="Group_6">
<path id="Vector_49" d="M190.657 81.6526H194.957" stroke="var(--stroke-0, #E7FDFA)" stroke-width="0.992953" stroke-linecap="round" stroke-linejoin="round"/>
<path id="Vector_50" d="M192.807 79.5016V83.8015" stroke="var(--stroke-0, #E7FDFA)" stroke-width="0.992953" stroke-linecap="round" stroke-linejoin="round"/>
</g>
<path id="Vector_51" d="M108.156 83.8107L109.49 81.5012" stroke="var(--stroke-0, #E7FDFA)" stroke-width="0.496476" stroke-linecap="round" stroke-linejoin="round"/>
<path id="Vector_52" d="M105.251 83.8107L103.918 81.5012" stroke="var(--stroke-0, #E7FDFA)" stroke-width="0.496476" stroke-linecap="round" stroke-linejoin="round"/>
<path id="Vector_53" d="M103.798 86.3288H101.131" stroke="var(--stroke-0, #E7FDFA)" stroke-width="0.496476" stroke-linecap="round" stroke-linejoin="round"/>
<path id="Vector_54" d="M105.251 88.8438L103.918 91.1533" stroke="var(--stroke-0, #E7FDFA)" stroke-width="0.496476" stroke-linecap="round" stroke-linejoin="round"/>
<path id="Vector_55" d="M108.156 88.8438L109.49 91.1533" stroke="var(--stroke-0, #E7FDFA)" stroke-width="0.496476" stroke-linecap="round" stroke-linejoin="round"/>
<path id="Vector_56" d="M119.522 68.343H114.093C113.089 68.343 112.275 69.157 112.275 70.1611V71.8836C112.275 72.8877 113.089 73.7017 114.093 73.7017H119.522C120.526 73.7017 121.34 72.8877 121.34 71.8836V70.1611C121.34 69.157 120.526 68.343 119.522 68.343Z" stroke="var(--stroke-0, white)" stroke-width="0.992953" stroke-miterlimit="10"/>
<path id="Vector_57" d="M145.49 73.1766C146.881 73.1766 148.009 72.0485 148.009 70.6569C148.009 69.2654 146.881 68.1373 145.49 68.1373C144.098 68.1373 142.97 69.2654 142.97 70.6569C142.97 72.0485 144.098 73.1766 145.49 73.1766Z" fill="var(--fill-0, white)"/>
<g id="Group_7">
<path id="Vector_58" d="M145.489 70.7975C145.412 70.7975 145.35 70.7349 145.35 70.6582C145.35 70.5815 145.412 70.5193 145.489 70.5193C145.566 70.5193 145.628 70.5815 145.628 70.6582C145.628 70.7349 145.566 70.7975 145.489 70.7975Z" fill="url(#paint10_linear_0_172)"/>
<path id="Vector_59" d="M145.49 69.4252C144.809 69.4252 144.257 69.977 144.257 70.6578C144.257 71.3386 144.809 71.8905 145.49 71.8905C146.17 71.8905 146.722 71.3386 146.722 70.6578C146.722 69.977 146.17 69.4252 145.49 69.4252Z" fill="var(--fill-0, #2B3056)"/>
</g>
<g id="Group_8">
<path id="Vector_60" d="M203.376 89.6966C206.427 89.6966 208.9 87.2235 208.9 84.1729C208.9 81.1222 206.427 78.6491 203.376 78.6491C200.326 78.6491 197.853 81.1222 197.853 84.1729C197.853 87.2235 200.326 89.6966 203.376 89.6966Z" fill="var(--fill-0, white)"/>
<g id="Group_9">
<path id="Vector_61" d="M203.378 84.6219C203.625 84.6219 203.826 84.4213 203.826 84.1738C203.826 83.9263 203.625 83.7256 203.378 83.7256C203.13 83.7256 202.929 83.9263 202.929 84.1738C202.929 84.4213 203.13 84.6219 203.378 84.6219Z" fill="url(#paint11_linear_0_172)"/>
<path id="Vector_62" d="M203.377 80.2277C201.198 80.2277 199.432 81.9941 199.432 84.1732C199.432 86.3522 201.198 88.1187 203.377 88.1187C205.556 88.1187 207.323 86.3522 207.323 84.1732C207.323 81.9941 205.556 80.2277 203.377 80.2277Z" fill="var(--fill-0, #2B3056)"/>
</g>
<path id="Vector_63" d="M203.376 86.2128C204.502 86.2128 205.416 85.2996 205.416 84.1731C205.416 83.0466 204.502 82.1334 203.376 82.1334C202.249 82.1334 201.336 83.0466 201.336 84.1731C201.336 85.2996 202.249 86.2128 203.376 86.2128Z" fill="var(--fill-0, white)"/>
</g>
<g id="Group_10">
<path id="Vector_64" d="M163.234 65.2289C163.485 64.9775 171.363 57.6865 171.363 57.6865L179.66 65.2289" stroke="var(--stroke-0, #F5FFFE)" stroke-width="1.63554" stroke-linecap="round" stroke-linejoin="round"/>
<path id="Vector_65" d="M165.287 67.6161L163.737 66.0657L171.447 58.9423L178.989 65.8981L177.984 67.8256L171.363 62.8811L165.287 67.6161Z" fill="var(--fill-0, #2C3252)"/>
<path id="Vector_66" d="M171.447 61.459L165.287 67.6186V72.4374C165.287 73.4094 166.075 74.1973 167.047 74.1973H169.184V69.169C169.184 67.8731 170.234 66.8225 171.53 66.8225C172.826 66.8225 173.877 67.8731 173.877 69.169V74.1973H176.223C177.195 74.1973 177.983 73.4094 177.983 72.4374V67.8281L171.447 61.459Z" fill="var(--fill-0, white)"/>
</g>
<path id="Vector_67" d="M138.582 157.482C139.561 158.699 145.976 166.405 157.012 166.916C168.721 167.458 176.045 159.457 176.996 158.38" stroke="var(--stroke-0, #02001D)" stroke-width="2.71106" stroke-miterlimit="10" stroke-linecap="round"/>
</g>
</g>
<defs>
<filter id="filter0_f_0_172" x="0" y="0" width="317" height="317" filterUnits="userSpaceOnUse" color-interpolation-filters="sRGB">
<feFlood flood-opacity="0" result="BackgroundImageFix"/>
<feBlend mode="normal" in="SourceGraphic" in2="BackgroundImageFix" result="shape"/>
<feGaussianBlur stdDeviation="7" result="effect1_foregroundBlur_0_172"/>
</filter>
<filter id="filter1_d_0_172" x="78.0215" y="177.881" width="159.703" height="106.119" filterUnits="userSpaceOnUse" color-interpolation-filters="sRGB">
<feFlood flood-opacity="0" result="BackgroundImageFix"/>
<feColorMatrix in="SourceAlpha" type="matrix" values="0 0 0 0 0 0 0 0 0 0 0 0 0 0 0 0 0 0 127 0" result="hardAlpha"/>
<feOffset dy="0.919226"/>
<feGaussianBlur stdDeviation="0.919226"/>
<feComposite in2="hardAlpha" operator="out"/>
<feColorMatrix type="matrix" values="0 0 0 0 0 0 0 0 0 0 0 0 0 0 0 0 0 0 0.14 0"/>
<feBlend mode="normal" in2="BackgroundImageFix" result="effect1_dropShadow_0_172"/>
<feBlend mode="normal" in="SourceGraphic" in2="effect1_dropShadow_0_172" result="shape"/>
</filter>
<linearGradient id="paint0_linear_0_172" x1="157.873" y1="281.242" x2="157.873" y2="178.8" gradientUnits="userSpaceOnUse">
<stop offset="5e-07" stop-color="#23B1B7"/>
<stop offset="0.216539" stop-color="#48BEC4"/>
<stop offset="0.69594" stop-color="#A5DFE5"/>
<stop offset="1" stop-color="#E4F5FC"/>
</linearGradient>
<linearGradient id="paint1_linear_0_172" x1="78.6895" y1="146.536" x2="78.6895" y2="103.29" gradientUnits="userSpaceOnUse">
<stop offset="5e-07" stop-color="#23B1B7"/>
<stop offset="0.216539" stop-color="#48BEC4"/>
<stop offset="0.69594" stop-color="#A5DFE5"/>
<stop offset="1" stop-color="#E4F5FC"/>
</linearGradient>
<linearGradient id="paint2_linear_0_172" x1="79.5377" y1="144.082" x2="79.5377" y2="106.634" gradientUnits="userSpaceOnUse">
<stop offset="5e-07" stop-color="#23B1B7"/>
<stop offset="0.216539" stop-color="#48BEC4"/>
<stop offset="0.69594" stop-color="#A5DFE5"/>
<stop offset="1" stop-color="#E4F5FC"/>
</linearGradient>
<linearGradient id="paint3_linear_0_172" x1="237.229" y1="146.536" x2="237.229" y2="103.29" gradientUnits="userSpaceOnUse">
<stop offset="5e-07" stop-color="#23B1B7"/>
<stop offset="0.216539" stop-color="#48BEC4"/>
<stop offset="0.69594" stop-color="#A5DFE5"/>
<stop offset="1" stop-color="#E4F5FC"/>
</linearGradient>
<linearGradient id="paint4_linear_0_172" x1="236.38" y1="144.082" x2="236.38" y2="106.634" gradientUnits="userSpaceOnUse">
<stop offset="5e-07" stop-color="#23B1B7"/>
<stop offset="0.216539" stop-color="#48BEC4"/>
<stop offset="0.69594" stop-color="#A5DFE5"/>
<stop offset="1" stop-color="#E4F5FC"/>
</linearGradient>
<linearGradient id="paint5_linear_0_172" x1="157.864" y1="190.782" x2="157.864" y2="40.8989" gradientUnits="userSpaceOnUse">
<stop offset="5e-07" stop-color="#23B1B7"/>
<stop offset="0.216539" stop-color="#48BEC4"/>
<stop offset="0.69594" stop-color="#A5DFE5"/>
<stop offset="1" stop-color="#E4F5FC"/>
</linearGradient>
<linearGradient id="paint6_linear_0_172" x1="157.789" y1="186.694" x2="157.789" y2="95.9422" gradientUnits="userSpaceOnUse">
<stop offset="5e-07" stop-color="#23B1B7"/>
<stop offset="0.216539" stop-color="#48BEC4"/>
<stop offset="0.69594" stop-color="#A5DFE5"/>
<stop offset="1" stop-color="#E4F5FC"/>
</linearGradient>
<linearGradient id="paint7_linear_0_172" x1="114.091" y1="127.449" x2="130.924" y2="127.449" gradientUnits="userSpaceOnUse">
<stop stop-color="#485D7C"/>
<stop offset="0.558438" stop-color="#353D57"/>
<stop offset="1" stop-color="#252237"/>
</linearGradient>
<linearGradient id="paint8_linear_0_172" x1="185.475" y1="32.0631" x2="202.308" y2="32.0631" gradientUnits="userSpaceOnUse">
<stop stop-color="#485D7C"/>
<stop offset="0.558438" stop-color="#353D57"/>
<stop offset="1" stop-color="#252237"/>
</linearGradient>
<linearGradient id="paint9_linear_0_172" x1="99.363" y1="171.251" x2="216.383" y2="171.251" gradientUnits="userSpaceOnUse">
<stop stop-color="#E4F5FC" stop-opacity="0.2"/>
<stop offset="0.5" stop-color="white" stop-opacity="0.5"/>
<stop offset="0.739313" stop-color="#F2FAFD" stop-opacity="0.364268"/>
<stop offset="1" stop-color="#E4F5FC" stop-opacity="0.2"/>
</linearGradient>
<linearGradient id="paint10_linear_0_172" x1="145.35" y1="70.6584" x2="145.628" y2="70.6584" gradientUnits="userSpaceOnUse">
<stop offset="0.159" stop-color="#81B5E7"/>
<stop offset="0.506564" stop-color="#5C90C2"/>
<stop offset="0.739284" stop-color="#4176A8"/>
</linearGradient>
<linearGradient id="paint11_linear_0_172" x1="202.929" y1="84.1738" x2="203.826" y2="84.1738" gradientUnits="userSpaceOnUse">
<stop offset="0.159" stop-color="#81B5E7"/>
<stop offset="0.506564" stop-color="#5C90C2"/>
<stop offset="0.739284" stop-color="#4176A8"/>
</linearGradient>
</defs>
</svg>
