<svg preserveAspectRatio="none" width="100%" height="100%" overflow="visible" style="display: block;" viewBox="0 0 19.266 26.6667" fill="none" xmlns="http://www.w3.org/2000/svg">
<g id="hayyai_bot 1" clip-path="url(#clip0_0_90)">
<path id="Vector" d="M4.0076 15.4742C3.60318 15.7831 3.1636 16.1573 2.71623 16.6067C2.13896 17.1865 1.68257 17.7571 1.32609 18.2642C1.32609 18.2642 2.8089 20.9446 6.17375 22.0282C7.5744 22.4793 9.03436 22.5548 10.2615 22.4893C11.518 22.4223 12.2769 23.8598 11.524 24.8678C11.1095 25.4227 10.6532 25.9372 10.1945 26.2771C10.1945 26.2771 12.9034 25.222 17.7796 18.3212C17.6204 18.0236 17.4199 17.7014 17.1665 17.3731C16.4685 16.4685 15.6698 15.9073 15.0778 15.5711C14.5271 16.0289 12.6096 17.5079 9.7486 17.5574C6.60904 17.6118 4.51094 15.9072 4.0076 15.4742Z" fill="url(#paint0_linear_0_90)"/>
<path id="Vector_2" d="M5.23867 19.533C5.62452 19.533 5.93731 19.2202 5.93731 18.8344C5.93731 18.4485 5.62452 18.1357 5.23867 18.1357C4.85283 18.1357 4.54004 18.4485 4.54004 18.8344C4.54004 19.2202 4.85283 19.533 5.23867 19.533Z" fill="var(--fill-0, #191A2E)"/>
<path id="Vector_3" d="M13.3373 19.533C13.7231 19.533 14.0359 19.2202 14.0359 18.8344C14.0359 18.4485 13.7231 18.1357 13.3373 18.1357C12.9515 18.1357 12.6387 18.4485 12.6387 18.8344C12.6387 19.2202 12.9515 19.533 13.3373 19.533Z" fill="var(--fill-0, #191A2E)"/>
<g id="Group">
<path id="Vector_4" d="M8.83024 19.5208L9.04787 19.2941L8.64886 18.496C8.64886 18.496 7.43368 20.9536 7.43368 20.9717C7.43368 20.9899 7.8327 20.9717 7.8327 20.9717L8.62166 19.1308L8.83024 19.5208Z" fill="var(--fill-0, #191A2E)"/>
<path id="Vector_5" d="M10.9163 20.6723C10.9005 20.4991 10.906 20.2474 10.9135 20.0656L11.016 20.1413C11.016 20.1413 11.5329 20.101 11.5692 20.101C11.6054 20.101 9.95498 18.9765 9.95498 18.9765C9.95498 18.9765 8.37708 20.1282 8.33173 20.1373C8.28638 20.1464 8.90304 20.1373 8.90304 20.1373L9.03689 20.0447C9.1473 20.3244 9.42902 21.0532 9.42902 21.0532H9.94955C9.94955 21.0532 9.80083 20.9625 9.7464 20.89C9.70286 20.8319 9.39221 20.1525 9.26989 19.8836L9.99126 19.3846L10.5807 19.8199V20.7358C10.5807 20.7358 10.4628 20.9988 10.218 21.0532H11.2155C11.2155 21.0532 10.9434 20.9716 10.9163 20.6723Z" fill="var(--fill-0, #191A2E)"/>
<path id="Vector_6" d="M10.5538 18.6591C10.6082 18.7498 10.5719 19.167 10.5719 19.167L10.9075 19.43C10.9075 19.43 10.8621 18.7861 10.9075 18.6863C10.9528 18.5866 11.1795 18.4868 11.1433 18.4959C11.107 18.505 10.3634 18.4959 10.3634 18.4959C10.3634 18.4959 10.4994 18.5684 10.5538 18.6591Z" fill="var(--fill-0, #191A2E)"/>
<path id="Vector_7" d="M9.94948 19.9552H9.73071V20.174H9.94948V19.9552Z" fill="var(--fill-0, #191A2E)"/>
<path id="Vector_8" d="M10.3271 19.9552H10.1083V20.174H10.3271V19.9552Z" fill="var(--fill-0, #191A2E)"/>
<path id="Vector_9" d="M9.94948 20.3045H9.73071V20.5232H9.94948V20.3045Z" fill="var(--fill-0, #191A2E)"/>
<path id="Vector_10" d="M10.3271 20.3045H10.1083V20.5232H10.3271V20.3045Z" fill="var(--fill-0, #191A2E)"/>
</g>
<g id="Group_2">
<path id="Vector_11" d="M2.39283 12.1882C2.27655 12.1494 2.16026 12.1107 2.04398 12.072C1.15292 10.2269 1.484 7.51155 1.484 7.51155L1.78778 7.34888C1.67935 7.92947 1.60687 8.66599 1.67814 9.50758C1.74451 10.2912 1.91251 10.8941 2.00735 11.1977C2.13276 11.5989 2.2728 11.9328 2.39283 12.1882Z" fill="var(--fill-0, #2B3056)"/>
<path id="Vector_12" d="M2.04466 12.0719C2.04466 12.0719 0.589789 11.8761 0.382393 10.0133C0.175757 8.14978 1.48468 7.51145 1.48468 7.51145C1.48468 7.51145 1.46855 7.64127 1.45319 7.86403C1.45319 7.86403 0.535253 8.53616 0.667372 9.88349C0.797194 11.2108 1.89488 11.7954 1.92944 11.8131L1.93021 11.8138C1.96554 11.9014 2.00395 11.9874 2.04466 12.0719Z" fill="url(#paint1_linear_0_90)"/>
<path id="Vector_13" d="M1.92953 11.8131C1.89497 11.7954 0.797288 11.2108 0.667466 9.88349C0.535347 8.53616 1.45329 7.86403 1.45329 7.86403C1.40181 8.61221 1.35496 10.4035 1.92953 11.8131Z" fill="url(#paint2_linear_0_90)"/>
</g>
<g id="Group_3">
<path id="Vector_14" d="M16.7305 12.1879C16.8468 12.1492 16.963 12.1105 17.0793 12.0718C17.9704 10.2267 17.6393 7.51131 17.6393 7.51131L17.3355 7.34863C17.4439 7.92922 17.5164 8.66574 17.4452 9.50734C17.3788 10.291 17.2108 10.8939 17.1159 11.1974C16.9905 11.5987 16.8505 11.9326 16.7305 12.1879Z" fill="var(--fill-0, #2B3056)"/>
<path id="Vector_15" d="M17.0791 12.072C17.0791 12.072 18.534 11.8761 18.7414 10.0133C18.948 8.1498 17.6391 7.51147 17.6391 7.51147C17.6391 7.51147 17.6552 7.64129 17.6706 7.86405C17.6706 7.86405 18.5885 8.53618 18.4564 9.88351C18.3266 11.2109 17.2289 11.7954 17.1943 11.8131L17.1936 11.8139C17.1582 11.9014 17.1198 11.9875 17.0791 12.072Z" fill="url(#paint3_linear_0_90)"/>
<path id="Vector_16" d="M17.1945 11.8131C17.2291 11.7954 18.3267 11.2108 18.4566 9.88349C18.5887 8.53616 17.6707 7.86403 17.6707 7.86403C17.7222 8.61221 17.7691 10.4035 17.1945 11.8131Z" fill="url(#paint4_linear_0_90)"/>
</g>
<path id="Vector_17" d="M9.55231 16.7377C13.917 16.7377 17.4552 13.1994 17.4552 8.83479C17.4552 4.47013 13.917 0.931885 9.55231 0.931885C5.18766 0.931885 1.64941 4.47013 1.64941 8.83479C1.64941 13.1994 5.18766 16.7377 9.55231 16.7377Z" fill="url(#paint5_linear_0_90)"/>
<path id="Vector_18" d="M17.0244 8.83471C17.0244 9.02137 17.0174 9.20726 17.0044 9.39008C16.8039 8.62578 16.3807 7.94597 15.7677 7.46203C14.3182 6.31826 12.5276 6.84137 12.1558 6.94968C10.4529 7.44667 9.63403 8.80168 9.45351 9.11816C9.3237 8.88925 8.22678 7.02957 6.10516 6.78376C5.73953 6.74151 4.52355 6.61938 3.38208 7.429C2.64314 7.95288 2.26673 8.63192 2.08392 9.07053C2.08162 8.99218 2.08008 8.91383 2.08008 8.83471C2.08008 4.70823 5.42536 1.36296 9.55183 1.36296C13.6791 1.36296 17.0244 4.70823 17.0244 8.83471Z" fill="var(--fill-0, #191A2E)"/>
<path id="Vector_19" d="M17.0044 9.39009C16.9054 10.7413 16.446 11.9926 15.7232 13.0488V13.0495C14.3774 15.016 12.1152 16.3065 9.55189 16.3065C6.98936 16.3065 4.7287 15.0168 3.38291 13.0503C3.38291 13.0498 3.38266 13.0493 3.38214 13.0488C2.60171 11.9104 2.1293 10.5438 2.08398 9.07054C2.26679 8.63193 2.6432 7.95289 3.38214 7.42901C4.52362 6.61938 5.73959 6.74152 6.10523 6.78377C8.22684 7.02958 9.32376 8.88926 9.45357 9.11817C9.63409 8.80169 10.4529 7.44668 12.1559 6.94969C12.5277 6.84138 14.3182 6.31827 15.7677 7.46204C16.3807 7.94597 16.804 8.62579 17.0044 9.39009Z" fill="url(#paint6_linear_0_90)"/>
<g id="Group_4">
<path id="Vector_20" d="M5.81871 11.8022C6.80909 11.8022 7.61196 10.9993 7.61196 10.0089C7.61196 9.01854 6.80909 8.21568 5.81871 8.21568C4.82833 8.21568 4.02547 9.01854 4.02547 10.0089C4.02547 10.9993 4.82833 11.8022 5.81871 11.8022Z" fill="var(--fill-0, #242136)"/>
<path id="Vector_21" d="M6.36018 9.92488C6.51296 9.95101 6.67293 10.0423 6.70531 10.1939C6.73331 10.325 6.65313 10.4609 6.54155 10.5351C6.36438 10.653 6.13368 10.6409 5.92206 10.6183C5.68112 10.5927 5.43193 10.556 5.22908 10.4235C5.05724 10.3112 4.91803 10.1043 4.93764 9.89195C4.95123 9.74468 5.09341 9.46368 5.27465 9.48558C5.40878 9.50179 5.52203 9.70886 5.62897 9.78069C5.85608 9.93323 6.10596 9.8814 6.36018 9.92488Z" fill="url(#paint7_linear_0_90)"/>
<path id="Vector_22" d="M5.73885 9.92198C5.9927 9.92198 6.19849 9.71619 6.19849 9.46234C6.19849 9.20849 5.9927 9.00271 5.73885 9.00271C5.485 9.00271 5.27922 9.20849 5.27922 9.46234C5.27922 9.71619 5.485 9.92198 5.73885 9.92198Z" fill="var(--fill-0, #FCFDFF)"/>
<path id="Vector_23" d="M6.71401 9.96069C6.70317 9.92736 6.68463 9.89852 6.65843 9.87417C6.63407 9.84795 6.60522 9.82942 6.5719 9.81858C6.53986 9.80175 6.50532 9.79403 6.46831 9.79543C6.44449 9.79863 6.42067 9.80183 6.39684 9.80503C6.3513 9.81781 6.31175 9.84085 6.27821 9.87417C6.26419 9.89231 6.25018 9.91044 6.23617 9.92858C6.21185 9.97052 6.19961 10.0158 6.19946 10.0643V10.081C6.19806 10.118 6.20579 10.1525 6.22261 10.1846C6.23346 10.2179 6.25199 10.2468 6.27821 10.2711C6.30256 10.2973 6.3314 10.3159 6.36473 10.3267C6.39678 10.3435 6.4313 10.3512 6.46831 10.3498C6.49214 10.3467 6.51596 10.3434 6.53978 10.3402C6.58532 10.3275 6.62488 10.3044 6.65843 10.2711C6.67243 10.253 6.68644 10.2348 6.70045 10.2167C6.72478 10.1748 6.73701 10.1295 6.73716 10.081V10.0643C6.73856 10.0273 6.73084 9.99273 6.71401 9.96069Z" fill="var(--fill-0, #A4D7F6)"/>
</g>
<g id="Group_5">
<path id="Vector_24" d="M13.346 11.8021C14.3364 11.8021 15.1392 10.9992 15.1392 10.0088C15.1392 9.01844 14.3364 8.21558 13.346 8.21558C12.3556 8.21558 11.5527 9.01844 11.5527 10.0088C11.5527 10.9992 12.3556 11.8021 13.346 11.8021Z" fill="var(--fill-0, #242136)"/>
<path id="Vector_25" d="M13.8873 9.92478C14.0401 9.95091 14.2 10.0422 14.2324 10.1938C14.2604 10.3249 14.1802 10.4608 14.0686 10.535C13.8915 10.6529 13.6608 10.6408 13.4492 10.6182C13.2082 10.5926 12.959 10.5559 12.7562 10.4234C12.5843 10.3111 12.4451 10.1042 12.4647 9.89185C12.4783 9.74458 12.6205 9.46358 12.8018 9.48548C12.9359 9.50169 13.0491 9.70876 13.1561 9.78059C13.3832 9.93313 13.6331 9.8813 13.8873 9.92478Z" fill="url(#paint8_linear_0_90)"/>
<path id="Vector_26" d="M13.2663 9.92196C13.5201 9.92196 13.7259 9.71617 13.7259 9.46232C13.7259 9.20847 13.5201 9.00269 13.2663 9.00269C13.0124 9.00269 12.8066 9.20847 12.8066 9.46232C12.8066 9.71617 13.0124 9.92196 13.2663 9.92196Z" fill="var(--fill-0, #FCFDFF)"/>
<path id="Vector_27" d="M14.2403 9.96059C14.2295 9.92726 14.2109 9.89842 14.1847 9.87407C14.1604 9.84785 14.1315 9.82932 14.0982 9.81848C14.0661 9.80165 14.0316 9.79393 13.9946 9.79533C13.9708 9.79852 13.947 9.80173 13.9231 9.80493C13.8776 9.8177 13.838 9.84075 13.8045 9.87407C13.7905 9.89221 13.7765 9.91034 13.7625 9.92848C13.7381 9.97041 13.7259 10.0156 13.7257 10.0642V10.0809C13.7243 10.1179 13.7321 10.1524 13.7489 10.1845C13.7597 10.2178 13.7783 10.2467 13.8045 10.271C13.8288 10.2972 13.8577 10.3158 13.891 10.3266C13.9231 10.3434 13.9576 10.3511 13.9946 10.3497C14.0184 10.3465 14.0422 10.3433 14.0661 10.3401C14.1116 10.3274 14.1512 10.3043 14.1847 10.271C14.1987 10.2529 14.2127 10.2347 14.2267 10.2166C14.2511 10.1747 14.2633 10.1294 14.2634 10.0809V10.0642C14.2648 10.0272 14.2571 9.99263 14.2403 9.96059Z" fill="var(--fill-0, #A4D7F6)"/>
</g>
<path id="Vector_28" d="M15.7232 13.0496C14.3775 15.016 12.1153 16.3065 9.55196 16.3065C6.98943 16.3065 4.72877 15.0168 3.38298 13.0503C3.71866 13.426 5.94706 15.8402 9.59881 15.8203C13.1983 15.8003 15.3837 13.4298 15.7232 13.0496Z" fill="url(#paint9_linear_0_90)"/>
<path id="Vector_29" d="M2.73772 5.98733C3.0259 6.03289 3.26011 6.22197 3.36194 6.45332C3.1957 6.26291 2.94312 6.182 2.73254 6.21591C2.55153 6.23514 2.55764 5.96027 2.73772 5.98733Z" fill="var(--fill-0, white)"/>
<path id="Vector_30" d="M3.21193 4.8936C3.54957 4.59674 4.0071 4.48127 4.4167 4.55883C4.43531 4.56213 4.43246 4.5914 4.41322 4.59042C4.00654 4.57874 3.61294 4.76299 3.37547 5.05338C3.26811 5.17729 3.09029 5.00424 3.21193 4.8936Z" fill="var(--fill-0, white)"/>
<path id="Vector_31" d="M12.3002 1.89128C12.7068 2.16334 12.8898 2.70209 12.8112 3.16893C12.8093 3.17908 12.7995 3.18575 12.7894 3.18384C12.7801 3.18209 12.7737 3.17355 12.7742 3.16438C12.7846 2.94042 12.7227 2.71997 12.6206 2.52898C12.5185 2.33947 12.3675 2.17123 12.1917 2.09254C12.0462 2.02136 12.1601 1.80881 12.3002 1.89128Z" fill="var(--fill-0, white)"/>
<path id="Vector_32" d="M15.6515 4.93021C15.5023 4.72607 15.264 4.57923 15.0219 4.49862C14.7721 4.41606 14.4892 4.4153 14.2298 4.50293C14.2085 4.51097 14.1943 4.4774 14.2156 4.46806C14.7407 4.21318 15.427 4.35884 15.829 4.78602C15.9333 4.90605 15.748 5.0572 15.6515 4.93021Z" fill="var(--fill-0, white)"/>
<path id="Vector_33" d="M16.3336 6.29556C16.1983 6.19912 15.9384 6.2162 15.7854 6.30959C15.5793 6.42271 15.4383 6.63069 15.2227 6.75383C15.2037 6.76569 15.1788 6.74456 15.1872 6.7239C15.2781 6.46998 15.4216 6.2484 15.6537 6.09316C15.9037 5.93018 16.2869 5.90306 16.5034 6.14243C16.5921 6.25545 16.4363 6.39394 16.3336 6.29556Z" fill="var(--fill-0, white)"/>
<path id="Vector_34" d="M9.48262 8.7196V2.19027C9.48262 2.19027 9.03239 1.53585 8.07048 1.63478" stroke="var(--stroke-0, white)" stroke-width="0.228639" stroke-linecap="round" stroke-linejoin="round"/>
<path id="Vector_35" d="M9.48242 2.65658V2.1902C9.48242 2.1902 10.015 1.47596 11.15 1.65852" stroke="var(--stroke-0, white)" stroke-width="0.228639" stroke-linecap="round" stroke-linejoin="round"/>
<path id="Vector_36" d="M9.48242 7.36286C9.55421 7.32046 13.0286 3.99927 13.0286 3.99927" stroke="var(--stroke-0, white)" stroke-width="0.228639" stroke-linecap="round" stroke-linejoin="round"/>
<path id="Vector_37" d="M9.48263 6.83992L5.95054 3.16829C5.9054 3.12137 5.87119 3.06516 5.85253 3.00278C5.80414 2.84094 5.84601 2.52895 6.17342 2.31744" stroke="var(--stroke-0, white)" stroke-width="0.228639" stroke-linecap="round" stroke-linejoin="round"/>
<path id="Vector_38" d="M6.92676 3.25024L6.98235 4.24125" stroke="var(--stroke-0, white)" stroke-width="0.228639" stroke-linecap="round" stroke-linejoin="round"/>
<path id="Vector_39" d="M6.55355 5.35598C6.55355 5.35598 6.89812 6.3085 6.92683 6.27742C6.95554 6.24634 8.77357 6.10311 8.77357 6.10311" stroke="var(--stroke-0, white)" stroke-width="0.228639" stroke-linecap="round" stroke-linejoin="round"/>
<path id="Vector_40" d="M8.37687 4.06986C8.4343 4.084 9.48236 4.06986 9.48236 4.06986" stroke="var(--stroke-0, white)" stroke-width="0.228639" stroke-linecap="round" stroke-linejoin="round"/>
<path id="Vector_41" d="M6.79383 5.17435C6.78106 5.12881 6.75801 5.08926 6.72469 5.05572L6.69228 5.0233C6.66792 4.99708 6.63908 4.97855 6.60575 4.96771C6.57371 4.95088 6.53918 4.94316 6.50217 4.94456C6.46516 4.94316 6.43063 4.95088 6.39858 4.96771C6.36526 4.97855 6.33641 4.99708 6.31206 5.0233C6.29804 5.04144 6.28404 5.05957 6.27003 5.07771C6.2457 5.11965 6.23348 5.16488 6.23332 5.21341C6.23651 5.23723 6.23972 5.26105 6.24293 5.28488C6.2557 5.33042 6.27875 5.36997 6.31206 5.40351C6.32287 5.41432 6.33368 5.42512 6.34448 5.43593C6.36883 5.46215 6.39767 5.48068 6.43101 5.49152C6.46304 5.50835 6.49757 5.51607 6.53458 5.51468C6.5716 5.51607 6.60613 5.50835 6.63817 5.49152C6.6715 5.48068 6.70035 5.46215 6.72469 5.43593C6.73871 5.41779 6.75272 5.39965 6.76673 5.38152C6.79106 5.33958 6.80328 5.29435 6.80343 5.24582C6.80024 5.222 6.79704 5.19818 6.79383 5.17435Z" fill="var(--fill-0, #23B1B7)"/>
<path id="Vector_42" d="M6.92377 2.8374C6.57778 2.8374 6.57721 3.3751 6.92377 3.3751C7.26975 3.3751 7.27033 2.8374 6.92377 2.8374Z" fill="var(--fill-0, #23B1B7)"/>
<path id="Vector_43" d="M10.6514 5.27154C10.6386 5.22599 10.6156 5.18645 10.5823 5.1529C10.5641 5.13889 10.546 5.12487 10.5279 5.11086C10.4859 5.08654 10.4407 5.07431 10.3922 5.07416H10.3598C10.3227 5.07276 10.2882 5.08048 10.2562 5.09731C10.2228 5.10815 10.194 5.12668 10.1696 5.1529C10.1434 5.17725 10.1249 5.20609 10.1141 5.23942C10.0972 5.27146 10.0895 5.30599 10.0909 5.34301C10.0941 5.36683 10.0973 5.39065 10.1005 5.41448C10.1133 5.46002 10.1363 5.49957 10.1696 5.53311L10.2241 5.57515C10.266 5.59947 10.3112 5.61171 10.3598 5.61186H10.3922C10.4292 5.61325 10.4637 5.60553 10.4958 5.5887C10.5291 5.57786 10.5579 5.55933 10.5823 5.53311C10.6085 5.50876 10.627 5.47992 10.6379 5.44659C10.6547 5.41455 10.6624 5.38002 10.661 5.34301C10.6578 5.31918 10.6546 5.29536 10.6514 5.27154Z" fill="var(--fill-0, #23B1B7)"/>
<path id="Vector_44" d="M13.3418 3.87766C13.329 3.83212 13.306 3.79257 13.2726 3.75903C13.2618 3.74822 13.251 3.73742 13.2402 3.72661C13.2159 3.70039 13.187 3.68186 13.1537 3.67102C13.1216 3.65419 13.0871 3.64647 13.0501 3.64786C13.0131 3.64647 12.9786 3.65419 12.9465 3.67102C12.9132 3.68186 12.8844 3.70039 12.86 3.72661C12.846 3.74475 12.832 3.76288 12.818 3.78102C12.7936 3.82296 12.7814 3.86819 12.7812 3.91672C12.7845 3.94054 12.7877 3.96436 12.7909 3.98819C12.8036 4.03373 12.8267 4.07328 12.86 4.10683L12.8924 4.13924C12.9168 4.16546 12.9456 4.18399 12.9789 4.19483C13.011 4.21166 13.0455 4.21938 13.0825 4.21799C13.1195 4.21938 13.1541 4.21166 13.1861 4.19483C13.2194 4.18399 13.2483 4.16546 13.2726 4.13924C13.2866 4.1211 13.3006 4.10297 13.3147 4.08483C13.339 4.04289 13.3512 3.99767 13.3514 3.94914C13.3482 3.92531 13.345 3.90149 13.3418 3.87766Z" fill="var(--fill-0, #23B1B7)"/>
<path id="Vector_45" d="M12.1108 5.72241H12.0908C11.7448 5.72241 11.7442 6.26011 12.0908 6.26011H12.1108C12.4568 6.26011 12.4574 5.72241 12.1108 5.72241Z" fill="var(--fill-0, #23B1B7)"/>
<path id="Vector_46" d="M8.37715 2.97599C8.59624 2.97599 8.77384 2.79839 8.77384 2.5793C8.77384 2.36022 8.59624 2.18262 8.37715 2.18262C8.15807 2.18262 7.98047 2.36022 7.98047 2.5793C7.98047 2.79839 8.15807 2.97599 8.37715 2.97599Z" fill="var(--fill-0, #23B1B7)"/>
<path id="Vector_47" d="M4.15728 5.88365C4.2463 5.88365 4.31846 5.81148 4.31846 5.72246C4.31846 5.63344 4.2463 5.56128 4.15728 5.56128C4.06826 5.56128 3.99609 5.63344 3.99609 5.72246C3.99609 5.81148 4.06826 5.88365 4.15728 5.88365Z" fill="var(--fill-0, #23B1B7)"/>
<path id="Vector_48" d="M4.46289 5.72241H4.74411" stroke="var(--stroke-0, #E7FDFA)" stroke-width="0.0768146" stroke-linecap="round" stroke-linejoin="round"/>
<g id="Group_6">
<path id="Vector_49" d="M13.0098 5.22953H13.4632" stroke="var(--stroke-0, #E7FDFA)" stroke-width="0.153629" stroke-linecap="round" stroke-linejoin="round"/>
<path id="Vector_50" d="M13.2364 5.00289V5.45633" stroke="var(--stroke-0, #E7FDFA)" stroke-width="0.153629" stroke-linecap="round" stroke-linejoin="round"/>
</g>
<path id="Vector_51" d="M4.30957 5.45717L4.45018 5.21362" stroke="var(--stroke-0, #E7FDFA)" stroke-width="0.0768146" stroke-linecap="round" stroke-linejoin="round"/>
<path id="Vector_52" d="M4.00373 5.45721L3.86312 5.21366" stroke="var(--stroke-0, #E7FDFA)" stroke-width="0.0768146" stroke-linecap="round" stroke-linejoin="round"/>
<path id="Vector_53" d="M3.85056 5.72249H3.56934" stroke="var(--stroke-0, #E7FDFA)" stroke-width="0.0768146" stroke-linecap="round" stroke-linejoin="round"/>
<path id="Vector_54" d="M4.00373 5.98779L3.86312 6.23134" stroke="var(--stroke-0, #E7FDFA)" stroke-width="0.0768146" stroke-linecap="round" stroke-linejoin="round"/>
<path id="Vector_55" d="M4.30957 5.98779L4.45018 6.23134" stroke="var(--stroke-0, #E7FDFA)" stroke-width="0.0768146" stroke-linecap="round" stroke-linejoin="round"/>
<path id="Vector_56" d="M5.5084 3.82593H4.93586C4.82998 3.82593 4.74414 3.91177 4.74414 4.01765V4.1993C4.74414 4.30518 4.82998 4.39102 4.93586 4.39102H5.5084C5.61429 4.39102 5.70013 4.30518 5.70013 4.1993V4.01765C5.70013 3.91177 5.61429 3.82593 5.5084 3.82593Z" stroke="var(--stroke-0, #23B1B7)" stroke-width="0.153629" stroke-miterlimit="10"/>
<path id="Vector_57" d="M8.24707 4.33557C8.39381 4.33557 8.51277 4.21661 8.51277 4.06986C8.51277 3.92312 8.39381 3.80416 8.24707 3.80416C8.10032 3.80416 7.98136 3.92312 7.98136 4.06986C7.98136 4.21661 8.10032 4.33557 8.24707 4.33557Z" fill="var(--fill-0, #23B1B7)"/>
<g id="Group_7">
<path id="Vector_58" d="M8.24724 4.08473C8.2391 4.08473 8.2325 4.0781 8.2325 4.06996C8.2325 4.06182 8.2391 4.05522 8.24724 4.05522C8.25538 4.05522 8.26202 4.06182 8.26202 4.06996C8.26202 4.0781 8.25538 4.08473 8.24724 4.08473Z" fill="url(#paint10_linear_0_90)"/>
<path id="Vector_59" d="M8.24718 3.93994C8.17539 3.93994 8.11719 3.99814 8.11719 4.06993C8.11719 4.14172 8.17539 4.19992 8.24718 4.19992C8.31897 4.19992 8.37717 4.14172 8.37717 4.06993C8.37717 3.99814 8.31897 3.93994 8.24718 3.93994Z" fill="var(--fill-0, #2B3056)"/>
</g>
<g id="Group_8">
<path id="Vector_60" d="M14.352 6.07784C14.6737 6.07784 14.9345 5.81704 14.9345 5.49534C14.9345 5.17363 14.6737 4.91284 14.352 4.91284C14.0303 4.91284 13.7695 5.17363 13.7695 5.49534C13.7695 5.81704 14.0303 6.07784 14.352 6.07784Z" fill="var(--fill-0, #23B1B7)"/>
<g id="Group_9">
<path id="Vector_61" d="M14.3519 5.54276C14.378 5.54276 14.3992 5.5216 14.3992 5.4955C14.3992 5.4694 14.378 5.44824 14.3519 5.44824C14.3258 5.44824 14.3047 5.4694 14.3047 5.4955C14.3047 5.5216 14.3258 5.54276 14.3519 5.54276Z" fill="url(#paint11_linear_0_90)"/>
<path id="Vector_62" d="M14.3516 5.07935C14.1218 5.07935 13.9355 5.26562 13.9355 5.49541C13.9355 5.7252 14.1218 5.91148 14.3516 5.91148C14.5814 5.91148 14.7677 5.7252 14.7677 5.49541C14.7677 5.26562 14.5814 5.07935 14.3516 5.07935Z" fill="var(--fill-0, #2B3056)"/>
</g>
<path id="Vector_63" d="M14.3518 5.71046C14.4706 5.71046 14.5669 5.61416 14.5669 5.49537C14.5669 5.37657 14.4706 5.28027 14.3518 5.28027C14.233 5.28027 14.1367 5.37657 14.1367 5.49537C14.1367 5.61416 14.233 5.71046 14.3518 5.71046Z" fill="var(--fill-0, #23B1B7)"/>
</g>
<g id="Group_10">
<path id="Vector_64" d="M10.1191 3.49757C10.1457 3.47106 10.9764 2.70219 10.9764 2.70219L11.8513 3.49757" stroke="var(--stroke-0, #F5FFFE)" stroke-width="0.253049" stroke-linecap="round" stroke-linejoin="round"/>
<path id="Vector_65" d="M10.3355 3.74943L10.172 3.58593L10.9851 2.83474L11.7805 3.56826L11.6744 3.77152L10.9763 3.2501L10.3355 3.74943Z" fill="var(--fill-0, #2C3252)"/>
<path id="Vector_66" d="M10.9855 3.09985L10.3359 3.74941V4.25757C10.3359 4.36007 10.419 4.44316 10.5215 4.44316H10.7469V3.91291C10.7469 3.77625 10.8577 3.66546 10.9943 3.66546C11.131 3.66546 11.2418 3.77625 11.2418 3.91291V4.44316H11.4892C11.5917 4.44316 11.6748 4.36007 11.6748 4.25757V3.77151L10.9855 3.09985Z" fill="var(--fill-0, #23B1B7)"/>
</g>
<path id="Vector_67" d="M7.51872 13.2261C7.62195 13.3544 8.29848 14.167 9.46223 14.2209C10.6969 14.278 11.4693 13.4343 11.5696 13.3208" stroke="var(--stroke-0, #02001D)" stroke-width="0.419454" stroke-miterlimit="10" stroke-linecap="round"/>
</g>
<defs>
<linearGradient id="paint0_linear_0_90" x1="9.55286" y1="26.2771" x2="9.55286" y2="15.4742" gradientUnits="userSpaceOnUse">
<stop offset="5e-07" stop-color="#23B1B7"/>
<stop offset="0.216539" stop-color="#48BEC4"/>
<stop offset="0.69594" stop-color="#A5DFE5"/>
<stop offset="1" stop-color="#E4F5FC"/>
</linearGradient>
<linearGradient id="paint1_linear_0_90" x1="1.20247" y1="12.0719" x2="1.20247" y2="7.51145" gradientUnits="userSpaceOnUse">
<stop offset="5e-07" stop-color="#23B1B7"/>
<stop offset="0.216539" stop-color="#48BEC4"/>
<stop offset="0.69594" stop-color="#A5DFE5"/>
<stop offset="1" stop-color="#E4F5FC"/>
</linearGradient>
<linearGradient id="paint2_linear_0_90" x1="1.292" y1="11.8131" x2="1.292" y2="7.86403" gradientUnits="userSpaceOnUse">
<stop offset="5e-07" stop-color="#23B1B7"/>
<stop offset="0.216539" stop-color="#48BEC4"/>
<stop offset="0.69594" stop-color="#A5DFE5"/>
<stop offset="1" stop-color="#E4F5FC"/>
</linearGradient>
<linearGradient id="paint3_linear_0_90" x1="17.9213" y1="12.072" x2="17.9213" y2="7.51147" gradientUnits="userSpaceOnUse">
<stop offset="5e-07" stop-color="#23B1B7"/>
<stop offset="0.216539" stop-color="#48BEC4"/>
<stop offset="0.69594" stop-color="#A5DFE5"/>
<stop offset="1" stop-color="#E4F5FC"/>
</linearGradient>
<linearGradient id="paint4_linear_0_90" x1="17.832" y1="11.8131" x2="17.832" y2="7.86403" gradientUnits="userSpaceOnUse">
<stop offset="5e-07" stop-color="#23B1B7"/>
<stop offset="0.216539" stop-color="#48BEC4"/>
<stop offset="0.69594" stop-color="#A5DFE5"/>
<stop offset="1" stop-color="#E4F5FC"/>
</linearGradient>
<linearGradient id="paint5_linear_0_90" x1="9.55232" y1="16.7377" x2="9.55232" y2="0.931885" gradientUnits="userSpaceOnUse">
<stop offset="5e-07" stop-color="#23B1B7"/>
<stop offset="0.216539" stop-color="#48BEC4"/>
<stop offset="0.69594" stop-color="#A5DFE5"/>
<stop offset="1" stop-color="#E4F5FC"/>
</linearGradient>
<linearGradient id="paint6_linear_0_90" x1="9.54422" y1="16.3065" x2="9.54422" y2="6.73633" gradientUnits="userSpaceOnUse">
<stop offset="5e-07" stop-color="#23B1B7"/>
<stop offset="0.216539" stop-color="#48BEC4"/>
<stop offset="0.69594" stop-color="#A5DFE5"/>
<stop offset="1" stop-color="#E4F5FC"/>
</linearGradient>
<linearGradient id="paint7_linear_0_90" x1="4.93579" y1="10.0587" x2="6.71092" y2="10.0587" gradientUnits="userSpaceOnUse">
<stop stop-color="#485D7C"/>
<stop offset="0.558438" stop-color="#353D57"/>
<stop offset="1" stop-color="#252237"/>
</linearGradient>
<linearGradient id="paint8_linear_0_90" x1="12.4629" y1="-0.000188393" x2="14.238" y2="-0.000188393" gradientUnits="userSpaceOnUse">
<stop stop-color="#485D7C"/>
<stop offset="0.558438" stop-color="#353D57"/>
<stop offset="1" stop-color="#252237"/>
</linearGradient>
<linearGradient id="paint9_linear_0_90" x1="3.38298" y1="14.678" x2="15.7232" y2="14.678" gradientUnits="userSpaceOnUse">
<stop stop-color="#E4F5FC" stop-opacity="0.2"/>
<stop offset="0.5" stop-color="white" stop-opacity="0.5"/>
<stop offset="0.739313" stop-color="#F2FAFD" stop-opacity="0.364268"/>
<stop offset="1" stop-color="#E4F5FC" stop-opacity="0.2"/>
</linearGradient>
<linearGradient id="paint10_linear_0_90" x1="8.2325" y1="4.06998" x2="8.26202" y2="4.06998" gradientUnits="userSpaceOnUse">
<stop offset="0.159" stop-color="#81B5E7"/>
<stop offset="0.506564" stop-color="#5C90C2"/>
<stop offset="0.739284" stop-color="#4176A8"/>
</linearGradient>
<linearGradient id="paint11_linear_0_90" x1="14.3047" y1="5.4955" x2="14.3992" y2="5.4955" gradientUnits="userSpaceOnUse">
<stop offset="0.159" stop-color="#81B5E7"/>
<stop offset="0.506564" stop-color="#5C90C2"/>
<stop offset="0.739284" stop-color="#4176A8"/>
</linearGradient>
<clipPath id="clip0_0_90">
<rect width="19.266" height="26.6667" fill="white"/>
</clipPath>
</defs>
</svg>
