<svg preserveAspectRatio="none" width="100%" height="100%" overflow="visible" style="display: block;" viewBox="0 0 45.5 49" fill="none" xmlns="http://www.w3.org/2000/svg">
<g id="Group">
<path id="Vector" d="M14.5859 4H14.5869C15.4012 4.00005 16.213 4.17599 16.9775 4.52442C17.7427 4.87315 18.4511 5.3905 19.0566 6.05664C19.6625 6.72324 20.1523 7.5251 20.4893 8.41992C20.7841 9.20308 20.955 10.0402 20.9932 10.8926L21.002 11.2588V36.4297C20.9987 37.6113 20.7788 38.776 20.3594 39.8525C19.9394 40.9303 19.33 41.8912 18.5781 42.6826C17.8266 43.4735 16.9487 44.0782 16.0029 44.4707C15.0577 44.8629 14.0565 45.0392 13.0586 44.9932C12.0607 44.9471 11.0741 44.6797 10.1572 44.1992C9.23947 43.7183 8.40587 43.0306 7.71289 42.168C7.01963 41.3049 6.48319 40.2863 6.14551 39.1699C5.80786 38.0535 5.6784 36.8693 5.76562 35.6904L5.8252 34.876L5.29883 34.252C4.54371 33.3581 3.82731 31.8982 3.30273 30.1055C2.7858 28.3388 2.5 26.4027 2.5 24.6689C2.5 22.321 3.02643 20.0084 3.91309 18.082C4.80882 16.1361 6.00682 14.7199 7.24512 13.9785L8.33301 13.3271L8.20801 12.0654C8.10494 11.0255 8.20253 9.97483 8.49219 8.98438C8.78182 7.99413 9.25414 7.0941 9.86914 6.33984C10.4839 5.58603 11.2251 4.99667 12.0361 4.59863C12.8464 4.20102 13.7148 3.99959 14.5859 4ZM31.417 4C32.2313 4.00001 33.043 4.17602 33.8076 4.52442C34.5729 4.87321 35.2821 5.39034 35.8877 6.05664C36.4935 6.72321 36.9824 7.52514 37.3193 8.41992C37.6563 9.31499 37.832 10.2804 37.832 11.2588C37.832 11.5414 37.8195 11.814 37.7949 12.0762L37.6777 13.3301L38.7578 13.9775C39.997 14.7209 41.1932 16.1381 42.0879 18.083C42.9737 20.0088 43.5 22.3206 43.5 24.6689C43.5 26.4034 43.2144 28.3397 42.6982 30.1064C42.1745 31.8992 41.4598 33.3585 40.7051 34.252L40.1777 34.876L40.2383 35.6904C40.3255 36.8693 40.1951 38.0535 39.8574 39.1699C39.5198 40.2863 38.9842 41.305 38.291 42.168C37.598 43.0307 36.7635 43.7183 35.8457 44.1992C34.9288 44.6796 33.9422 44.9471 32.9443 44.9932C31.9465 45.0392 30.9462 44.8629 30.001 44.4707C29.055 44.0782 28.1774 43.4736 27.4258 42.6826C26.6738 41.8912 26.0646 40.9304 25.6445 39.8525C25.2769 38.9091 25.0623 37.8981 25.0127 36.8672L25.002 36.4248V11.2588C25.002 9.27525 25.7195 7.40648 26.9463 6.05664C28.1674 4.71318 29.7806 4 31.417 4Z" fill="var(--fill-0, white)" stroke="var(--stroke-0, #22B1B7)" stroke-width="4"/>
<path id="Vector_2" d="M19.3069 2.7048C18.286 2.23949 17.1917 2 16.0866 2C14.9042 1.99944 13.735 2.27303 12.6552 2.80294C11.5754 3.33284 10.6091 4.10717 9.81951 5.07545C9.02988 6.04373 8.43456 7.18423 8.07236 8.4226C7.71016 9.66098 7.5892 10.9694 7.71737 12.2627C4.3513 14.2779 2 19.4014 2 24.669C2 28.5398 3.26581 33.1693 5.27061 35.5424C5.16533 36.9645 5.32213 38.3953 5.73161 39.7491C6.14109 41.1028 6.79481 42.3517 7.65357 43.4208C8.51234 44.4898 9.55847 45.3571 10.7292 45.9705C11.9 46.5839 13.1713 46.9309 14.4669 46.9907C15.7625 47.0505 17.0558 46.8217 18.2691 46.3183C19.4824 45.8148 20.5908 45.0469 21.5279 44.0607C22.465 43.0744 23.2114 41.8902 23.7224 40.5789C24.2334 39.2675 24.4985 37.8562 24.5018 36.4294V11.259C24.5018 10.0431 24.2841 8.83908 23.8612 7.71573C23.4383 6.59237 22.8184 5.57167 22.037 4.7119C21.2556 3.85212 20.3279 3.17011 19.3069 2.7048Z" fill="var(--fill-0, white)" stroke="var(--stroke-0, #22B1B7)" stroke-width="4" stroke-linecap="round" stroke-linejoin="round"/>
<path id="Vector_3" d="M27.6062 20.2861C28.964 20.0103 32.0634 18.0857 32.6149 14.2028M21.7329 30.4296C16.2375 29.6833 14.1949 23.8371 14.1081 21.4751M32.0493 31.7022C33.3974 32.8121 34.4351 35.2891 34.7396 37.2597" stroke="var(--stroke-0, #22B1B7)" stroke-width="4" stroke-linecap="round" stroke-linejoin="round"/>
</g>
</svg>
