<svg preserveAspectRatio="none" width="100%" height="100%" overflow="visible" style="display: block;" viewBox="0 0 13.5374 17.4993" fill="none" xmlns="http://www.w3.org/2000/svg">
<path id="Vector" fill-rule="evenodd" clip-rule="evenodd" d="M6.23871 0.21934C6.37933 0.0788896 6.56996 0 6.76871 0C6.96746 0 7.15808 0.0788896 7.29871 0.21934L13.2987 6.21934C13.3724 6.288 13.4315 6.3708 13.4725 6.4628C13.5135 6.5548 13.5355 6.65412 13.5373 6.75482C13.5391 6.85552 13.5206 6.95555 13.4828 7.04894C13.4451 7.14233 13.389 7.22716 13.3177 7.29838C13.2465 7.3696 13.1617 7.42574 13.0683 7.46346C12.9749 7.50118 12.8749 7.51971 12.7742 7.51793C12.6735 7.51616 12.5742 7.49411 12.4822 7.45312C12.3902 7.41213 12.3074 7.35303 12.2387 7.27934L7.51871 2.55934V16.7493C7.51871 16.9483 7.43969 17.139 7.29904 17.2797C7.15839 17.4203 6.96762 17.4993 6.76871 17.4993C6.5698 17.4993 6.37903 17.4203 6.23838 17.2797C6.09773 17.139 6.01871 16.9483 6.01871 16.7493V2.55934L1.29871 7.27934C1.23005 7.35303 1.14725 7.41213 1.05525 7.45312C0.963247 7.49411 0.863934 7.51616 0.763231 7.51793C0.662528 7.51971 0.562499 7.50118 0.46911 7.46346C0.375722 7.42574 0.290888 7.3696 0.21967 7.29838C0.148451 7.22716 0.0923064 7.14233 0.0545854 7.04894C0.0168643 6.95555 -0.00166006 6.85552 0.000116722 6.75482C0.00189351 6.65412 0.023935 6.5548 0.064927 6.4628C0.105919 6.3708 0.165021 6.288 0.238708 6.21934L6.23871 0.21934Z" fill="var(--fill-0, #303044)"/>
</svg>
