<svg preserveAspectRatio="none" width="100%" height="100%" overflow="visible" style="display: block;" viewBox="0 0 80 80" fill="none" xmlns="http://www.w3.org/2000/svg">
<g id="ri:building-line">
<path id="Vector" d="M70 63.3333H76.6667V70H3.33333V63.3333H10V13.3333C10 12.4493 10.3512 11.6014 10.9763 10.9763C11.6014 10.3512 12.4493 10 13.3333 10H46.6667C47.5507 10 48.3986 10.3512 49.0237 10.9763C49.6488 11.6014 50 12.4493 50 13.3333V63.3333H63.3333V36.6667H56.6667V30H66.6667C67.5507 30 68.3986 30.3512 69.0237 30.9763C69.6488 31.6014 70 32.4493 70 33.3333V63.3333ZM16.6667 16.6667V63.3333H43.3333V16.6667H16.6667ZM23.3333 36.6667H36.6667V43.3333H23.3333V36.6667ZM23.3333 23.3333H36.6667V30H23.3333V23.3333Z" fill="var(--fill-0, #22B1B7)"/>
</g>
</svg>
