<svg preserveAspectRatio="none" width="100%" height="100%" overflow="visible" style="display: block;" viewBox="0 0 446.5 94" fill="none" xmlns="http://www.w3.org/2000/svg">
<g id="Group 2">
<g id="Rectangle 4">
<mask id="path-1-inside-1_0_254" fill="white">
<path d="M0 4C0 1.79086 1.79086 0 4 0H439C441.209 0 443 1.79086 443 4V90C443 92.2091 441.209 94 439 94H3.99999C1.79085 94 0 92.2091 0 90V4Z"/>
</mask>
<path d="M440.531 93.6963L440.554 93.752C440.064 93.9118 439.543 94 439 94C439.526 94 440.02 93.8184 440.45 93.501L440.531 93.6963ZM444 89C444 90.0092 443.7 90.9476 443.186 91.7334L442.696 91.5312L441.865 91.1865C441.952 90.8116 442 90.4132 442 90V88.0459H444V89ZM444 80.2275V84.1367H442V80.2275H444ZM444 72.4092V76.3184H442V72.4092H444ZM444 64.5908V68.5H442V64.5908H444ZM444 56.7725V60.6816H442V56.7725H444ZM444 48.9541V52.8633H442V48.9541H444ZM444 41.1367V45.0459H442V41.1367H444ZM444 33.3184V37.2275H442V33.3184H444ZM444 25.5V29.4092H442V25.5H444ZM444 17.6816V21.5908H442V17.6816H444ZM444 9.86328V13.7725H442V9.86328H444ZM444 5.9541H442V4C442 3.89294 441.993 3.78747 441.982 3.68359C441.969 3.55521 441.946 3.42968 441.917 3.30664C441.901 3.24081 441.886 3.17532 441.866 3.11133C441.843 3.03791 441.816 2.9664 441.788 2.89551C441.782 2.88118 441.778 2.86577 441.772 2.85156L443.62 2.08594C443.636 2.12522 443.651 2.16531 443.666 2.20508C443.693 2.27501 443.718 2.34559 443.742 2.41699C443.786 2.54793 443.825 2.68103 443.857 2.81641C443.882 2.91719 443.904 3.019 443.922 3.12207C443.929 3.16489 443.937 3.20781 443.943 3.25098C443.98 3.49535 444 3.74539 444 4V5.9541ZM0.303711 2.46875L0.498047 2.54883C0.180585 2.97885 0 3.47365 0 4C0 3.45716 0.0870895 2.93471 0.24707 2.44531L0.303711 2.46875ZM439 -1C439.17 -1 439.339 -0.99126 439.505 -0.974609C439.998 -0.924994 440.472 -0.803427 440.914 -0.620117L440.148 1.22754C440.096 1.20576 440.041 1.18779 439.987 1.16895C439.954 1.15734 439.922 1.14327 439.888 1.13281C439.823 1.11275 439.756 1.09773 439.689 1.08203C439.658 1.07474 439.628 1.06492 439.597 1.05859C439.593 1.05794 439.59 1.05729 439.587 1.05664C439.498 1.03898 439.407 1.02619 439.315 1.0166C439.271 1.01199 439.227 1.00853 439.182 1.00586C439.122 1.00227 439.061 1 439 1H436.985V-1H439ZM6.01367 -1V1H4C3.58656 1 3.18764 1.04645 2.8125 1.13379L2.46875 0.303711L2.26562 -0.185547C3.05153 -0.700014 3.99055 -1 5 -1H6.01367ZM14.0693 -1V1H10.042V-1H14.0693ZM22.125 -1V1H18.0977V-1H22.125ZM30.1807 -1V1H26.1523V-1H30.1807ZM38.2363 -1V1H34.208V-1H38.2363ZM46.292 -1V1H42.2637V-1H46.292ZM54.3477 -1V1H50.3193V-1H54.3477ZM62.4023 -1V1H58.375V-1H62.4023ZM70.458 -1V1H66.4307V-1H70.458ZM78.5137 -1V1H74.4863V-1H78.5137ZM86.5693 -1V1H82.542V-1H86.5693ZM94.625 -1V1H90.5977V-1H94.625ZM102.681 -1V1H98.6523V-1H102.681ZM110.736 -1V1H106.708V-1H110.736ZM118.792 -1V1H114.764V-1H118.792ZM126.848 -1V1H122.819V-1H126.848ZM134.902 -1V1H130.875V-1H134.902ZM142.958 -1V1H138.931V-1H142.958ZM151.014 -1V1H146.986V-1H151.014ZM159.069 -1V1H155.042V-1H159.069ZM167.125 -1V1H163.098V-1H167.125ZM175.181 -1V1H171.152V-1H175.181ZM183.236 -1V1H179.208V-1H183.236ZM191.292 -1V1H187.264V-1H191.292ZM199.347 -1V1H195.319V-1H199.347ZM207.402 -1V1H203.375V-1H207.402ZM215.458 -1V1H211.431V-1H215.458ZM223.514 -1V1H219.486V-1H223.514ZM231.569 -1V1H227.542V-1H231.569ZM239.625 -1V1H235.597V-1H239.625ZM247.681 -1V1H243.652V-1H247.681ZM255.736 -1V1H251.708V-1H255.736ZM263.791 -1V1H259.764V-1H263.791ZM271.847 -1V1H267.819V-1H271.847ZM279.902 -1V1H275.875V-1H279.902ZM287.958 -1V1H283.931V-1H287.958ZM296.014 -1V1H291.986V-1H296.014ZM304.069 -1V1H300.041V-1H304.069ZM312.125 -1V1H308.097V-1H312.125ZM320.181 -1V1H316.152V-1H320.181ZM328.235 -1V1H324.208V-1H328.235ZM336.291 -1V1H332.264V-1H336.291ZM344.347 -1V1H340.319V-1H344.347ZM352.402 -1V1H348.375V-1H352.402ZM360.458 -1V1H356.431V-1H360.458ZM368.514 -1V1H364.485V-1H368.514ZM376.569 -1V1H372.541V-1H376.569ZM384.625 -1V1H380.597V-1H384.625ZM392.68 -1V1H388.652V-1H392.68ZM400.735 -1V1H396.708V-1H400.735ZM408.791 -1V1H404.764V-1H408.791ZM416.847 -1V1H412.819V-1H416.847ZM424.902 -1V1H420.875V-1H424.902ZM432.958 -1V1H428.93V-1H432.958Z" fill="var(--stroke-0, black)" mask="url(#path-1-inside-1_0_254)"/>
</g>
<path id="Vector" d="M446 88.5829L442.217 91.3273L439 88.5829" stroke="var(--stroke-0, black)" stroke-linecap="round" stroke-linejoin="round"/>
</g>
</svg>
