<svg preserveAspectRatio="none" width="100%" height="100%" overflow="visible" style="display: block;" viewBox="0 0 49 49" fill="none" xmlns="http://www.w3.org/2000/svg">
<path id="Vector" d="M24.5 47C27.4547 47 30.3806 46.418 33.1104 45.2873C35.8402 44.1566 38.3206 42.4992 40.4099 40.4099C42.4992 38.3206 44.1566 35.8402 45.2873 33.1104C46.418 30.3806 47 27.4547 47 24.5C47 21.5453 46.418 18.6194 45.2873 15.8896C44.1566 13.1598 42.4992 10.6794 40.4099 8.5901C38.3206 6.50078 35.8402 4.84344 33.1104 3.71271C30.3806 2.58198 27.4547 2 24.5 2M24.5 47C21.5453 47 18.6194 46.418 15.8896 45.2873C13.1598 44.1566 10.6794 42.4992 8.5901 40.4099C6.50078 38.3206 4.84344 35.8402 3.71271 33.1104C2.58198 30.3806 2 27.4547 2 24.5C2 21.5453 2.58198 18.6194 3.71271 15.8896C4.84344 13.1598 6.50078 10.6794 8.5901 8.5901C10.6794 6.50078 13.1598 4.84344 15.8896 3.71271C18.6194 2.58198 21.5453 2 24.5 2M24.5 47C31.4025 47 34.3525 34.0925 34.3525 24.5C34.3525 14.9075 31.4025 2 24.5 2M24.5 47C17.5975 47 14.6475 34.0925 14.6475 24.5C14.6475 14.9075 17.5975 2 24.5 2M3.25 17H45.75M3.25 32H45.75" stroke="var(--stroke-0, #22B1B7)" stroke-width="4" stroke-linecap="round" stroke-linejoin="round"/>
</svg>
