<svg preserveAspectRatio="none" width="100%" height="100%" overflow="visible" style="display: block;" viewBox="0 0 35 35" fill="none" xmlns="http://www.w3.org/2000/svg">
<path id="Vector" d="M17.5 34C19.6668 34 21.8124 33.5732 23.8143 32.744C25.8161 31.9148 27.6351 30.6994 29.1673 29.1673C30.6994 27.6351 31.9148 25.8161 32.744 23.8143C33.5732 21.8124 34 19.6668 34 17.5C34 15.3332 33.5732 13.1876 32.744 11.1857C31.9148 9.18385 30.6994 7.3649 29.1673 5.83274C27.6351 4.30057 25.8161 3.08519 23.8143 2.25599C21.8124 1.42678 19.6668 1 17.5 1M17.5 34C15.3332 34 13.1876 33.5732 11.1857 32.744C9.18385 31.9148 7.36491 30.6994 5.83274 29.1673C4.30057 27.6351 3.08519 25.8161 2.25599 23.8143C1.42679 21.8124 1 19.6668 1 17.5C1 15.3332 1.42679 13.1876 2.25599 11.1857C3.08519 9.18385 4.30057 7.3649 5.83274 5.83274C7.36491 4.30057 9.18385 3.08519 11.1857 2.25599C13.1876 1.42678 15.3332 1 17.5 1M17.5 34C22.5618 34 24.7252 24.5345 24.7252 17.5C24.7252 10.4655 22.5618 1 17.5 1M17.5 34C12.4382 34 10.2748 24.5345 10.2748 17.5C10.2748 10.4655 12.4382 1 17.5 1M1.91667 12H33.0833M1.91667 23H33.0833" stroke="var(--stroke-0, #303044)" stroke-width="2" stroke-linecap="round" stroke-linejoin="round"/>
</svg>
