<svg preserveAspectRatio="none" width="100%" height="100%" overflow="visible" style="display: block;" viewBox="0 0 80 80" fill="none" xmlns="http://www.w3.org/2000/svg">
<g id="fluent:arrow-growth-20-filled">
<path id="Vector" d="M56 11C56 10.2044 56.3161 9.44129 56.8787 8.87868C57.4413 8.31607 58.2043 8 59 8H69C69.7956 8 70.5587 8.31607 71.1213 8.87868C71.6839 9.44129 72 10.2044 72 11V21C72 21.7956 71.6839 22.5587 71.1213 23.1213C70.5587 23.6839 69.7956 24 69 24C68.2043 24 67.4413 23.6839 66.8787 23.1213C66.3161 22.5587 66 21.7956 66 21V18.24L48.12 36.12C47.5575 36.6818 46.795 36.9974 46 36.9974C45.205 36.9974 44.4425 36.6818 43.88 36.12L34 26.24L17.12 43.12C16.8454 43.4147 16.5141 43.6512 16.1462 43.8151C15.7782 43.9791 15.3809 44.0673 14.9781 44.0744C14.5753 44.0815 14.1752 44.0074 13.8016 43.8565C13.4281 43.7056 13.0887 43.481 12.8038 43.1962C12.519 42.9113 12.2944 42.5719 12.1435 42.1984C11.9926 41.8248 11.9185 41.4247 11.9256 41.0219C11.9327 40.6191 12.0209 40.2218 12.1849 39.8538C12.3488 39.4859 12.5853 39.1546 12.88 38.88L31.88 19.88C32.4425 19.3182 33.205 19.0026 34 19.0026C34.795 19.0026 35.5575 19.3182 36.12 19.88L46 29.76L61.76 14H59C58.2043 14 57.4413 13.6839 56.8787 13.1213C56.3161 12.5587 56 11.7956 56 11ZM15 56C15.7956 56 16.5587 56.3161 17.1213 56.8787C17.6839 57.4413 18 58.2044 18 59V69C18 69.7956 17.6839 70.5587 17.1213 71.1213C16.5587 71.6839 15.7956 72 15 72C14.2044 72 13.4413 71.6839 12.8787 71.1213C12.3161 70.5587 12 69.7956 12 69V59C12 58.2044 12.3161 57.4413 12.8787 56.8787C13.4413 56.3161 14.2044 56 15 56ZM34 47C34 46.2044 33.6839 45.4413 33.1213 44.8787C32.5587 44.3161 31.7956 44 31 44C30.2043 44 29.4413 44.3161 28.8787 44.8787C28.3161 45.4413 28 46.2044 28 47V69C28 69.7956 28.3161 70.5587 28.8787 71.1213C29.4413 71.6839 30.2043 72 31 72C31.7956 72 32.5587 71.6839 33.1213 71.1213C33.6839 70.5587 34 69.7956 34 69V47ZM47 52C47.7956 52 48.5587 52.3161 49.1213 52.8787C49.6839 53.4413 50 54.2044 50 55V69C50 69.7956 49.6839 70.5587 49.1213 71.1213C48.5587 71.6839 47.7956 72 47 72C46.2043 72 45.4413 71.6839 44.8787 71.1213C44.3161 70.5587 44 69.7956 44 69V55C44 54.2044 44.3161 53.4413 44.8787 52.8787C45.4413 52.3161 46.2043 52 47 52ZM66 39C66 38.2044 65.6839 37.4413 65.1213 36.8787C64.5587 36.3161 63.7956 36 63 36C62.2043 36 61.4413 36.3161 60.8787 36.8787C60.3161 37.4413 60 38.2044 60 39V69C60 69.7956 60.3161 70.5587 60.8787 71.1213C61.4413 71.6839 62.2043 72 63 72C63.7956 72 64.5587 71.6839 65.1213 71.1213C65.6839 70.5587 66 69.7956 66 69V39Z" fill="var(--fill-0, #22B1B7)"/>
</g>
</svg>
