<svg preserveAspectRatio="none" width="100%" height="100%" overflow="visible" style="display: block;" viewBox="0 0 45 45" fill="none" xmlns="http://www.w3.org/2000/svg">
<g id="fluent:arrow-growth-20-filled">
<path id="Vector" d="M31.5 6.1875C31.5 5.73995 31.6778 5.31072 31.9943 4.99426C32.3107 4.67779 32.7399 4.5 33.1875 4.5H38.8125C39.2601 4.5 39.6893 4.67779 40.0057 4.99426C40.3222 5.31072 40.5 5.73995 40.5 6.1875V11.8125C40.5 12.2601 40.3222 12.6893 40.0057 13.0057C39.6893 13.3222 39.2601 13.5 38.8125 13.5C38.3649 13.5 37.9357 13.3222 37.6193 13.0057C37.3028 12.6893 37.125 12.2601 37.125 11.8125V10.26L27.0675 20.3175C26.7511 20.6335 26.3222 20.811 25.875 20.811C25.4278 20.811 24.9989 20.6335 24.6825 20.3175L19.125 14.76L9.63 24.255C9.47551 24.4208 9.28921 24.5538 9.08221 24.646C8.87521 24.7382 8.65176 24.7878 8.42518 24.7918C8.19859 24.7958 7.97353 24.7541 7.76341 24.6693C7.55328 24.5844 7.36241 24.4581 7.20216 24.2978C7.04192 24.1376 6.9156 23.9467 6.83072 23.7366C6.74585 23.5265 6.70417 23.3014 6.70817 23.0748C6.71217 22.8482 6.76176 22.6248 6.85399 22.4178C6.94622 22.2108 7.0792 22.0245 7.245 21.87L17.9325 11.1825C18.2489 10.8665 18.6778 10.689 19.125 10.689C19.5722 10.689 20.0011 10.8665 20.3175 11.1825L25.875 16.74L34.74 7.875H33.1875C32.7399 7.875 32.3107 7.69721 31.9943 7.38074C31.6778 7.06428 31.5 6.63505 31.5 6.1875ZM8.4375 31.5C8.88505 31.5 9.31427 31.6778 9.63074 31.9943C9.94721 32.3107 10.125 32.7399 10.125 33.1875V38.8125C10.125 39.2601 9.94721 39.6893 9.63074 40.0057C9.31427 40.3222 8.88505 40.5 8.4375 40.5C7.98995 40.5 7.56072 40.3222 7.24426 40.0057C6.92779 39.6893 6.75 39.2601 6.75 38.8125V33.1875C6.75 32.7399 6.92779 32.3107 7.24426 31.9943C7.56072 31.6778 7.98995 31.5 8.4375 31.5ZM19.125 26.4375C19.125 25.9899 18.9472 25.5607 18.6307 25.2443C18.3143 24.9278 17.8851 24.75 17.4375 24.75C16.9899 24.75 16.5607 24.9278 16.2443 25.2443C15.9278 25.5607 15.75 25.9899 15.75 26.4375V38.8125C15.75 39.2601 15.9278 39.6893 16.2443 40.0057C16.5607 40.3222 16.9899 40.5 17.4375 40.5C17.8851 40.5 18.3143 40.3222 18.6307 40.0057C18.9472 39.6893 19.125 39.2601 19.125 38.8125V26.4375ZM26.4375 29.25C26.8851 29.25 27.3143 29.4278 27.6307 29.7443C27.9472 30.0607 28.125 30.4899 28.125 30.9375V38.8125C28.125 39.2601 27.9472 39.6893 27.6307 40.0057C27.3143 40.3222 26.8851 40.5 26.4375 40.5C25.9899 40.5 25.5607 40.3222 25.2443 40.0057C24.9278 39.6893 24.75 39.2601 24.75 38.8125V30.9375C24.75 30.4899 24.9278 30.0607 25.2443 29.7443C25.5607 29.4278 25.9899 29.25 26.4375 29.25ZM37.125 21.9375C37.125 21.4899 36.9472 21.0607 36.6307 20.7443C36.3143 20.4278 35.8851 20.25 35.4375 20.25C34.9899 20.25 34.5607 20.4278 34.2443 20.7443C33.9278 21.0607 33.75 21.4899 33.75 21.9375V38.8125C33.75 39.2601 33.9278 39.6893 34.2443 40.0057C34.5607 40.3222 34.9899 40.5 35.4375 40.5C35.8851 40.5 36.3143 40.3222 36.6307 40.0057C36.9472 39.6893 37.125 39.2601 37.125 38.8125V21.9375Z" fill="var(--fill-0, #22B1B7)"/>
</g>
</svg>
