<svg preserveAspectRatio="none" width="100%" height="100%" overflow="visible" style="display: block;" viewBox="0 0 79 79" fill="none" xmlns="http://www.w3.org/2000/svg">
<g id="vaadin:handshake">
<path id="Vector" d="M64.1875 14.8125C61.4975 17.3856 58.2985 19.3669 54.7964 20.6289C51.1031 21.2806 40.8825 16.5406 35.8463 21.3794C35.0069 22.2187 33.97 23.0581 32.8837 23.8975C30.5137 22.8606 26.86 21.2806 24.1938 19.75C21.5275 18.2194 14.8125 14.8125 14.8125 14.8125L0 32.0938C0 32.0938 3.65375 37.0312 5.925 40.29C7.40625 42.4625 9.23312 45.7706 10.4181 47.9925L8.73937 49.9675C8.34022 50.7668 8.19717 51.6697 8.3297 52.5532C8.46223 53.4368 8.8639 54.258 9.48 54.905C10.1931 55.4426 11.0623 55.7326 11.9553 55.7309C12.8484 55.7291 13.7164 55.4356 14.4274 54.8951C14.1634 55.2042 13.9636 55.5628 13.8397 55.9499C13.7157 56.337 13.6701 56.7449 13.7055 57.1498C13.7409 57.5547 13.8566 57.9485 14.0458 58.3083C14.235 58.668 14.494 58.9865 14.8076 59.2451C15.5625 59.6824 16.4199 59.9119 17.2925 59.9102C18.165 59.9085 19.0215 59.6756 19.7747 59.2352C19.2106 59.9383 18.9019 60.8122 18.8992 61.7137C18.8965 62.6152 19.1999 63.4909 19.7599 64.1974C20.4876 64.4501 21.264 64.5308 22.0281 64.4331C22.7922 64.3355 23.5234 64.0621 24.1641 63.6345C23.8434 64.3902 23.7599 65.2255 23.9248 66.0297C24.0897 66.8339 24.4952 67.569 25.0874 68.1375C25.9231 68.5053 26.8381 68.6565 27.7477 68.5771C28.6573 68.4977 29.5322 68.1903 30.2916 67.6833L32.8393 65.3774C35.1698 67.6981 38.3841 69.1349 41.9342 69.1349L42.2354 69.1299C43.4055 69.0306 44.5264 68.6146 45.478 67.9266C46.4296 67.2385 47.176 66.3044 47.637 65.2244C48.3579 65.5009 49.1775 65.6885 50.0465 65.6885C51.2117 65.6885 52.2931 65.3528 53.2065 64.7751C56.0949 62.8643 55.4037 61.383 55.4037 61.383C56.4308 61.8251 57.5717 61.9299 58.6621 61.6824C59.7526 61.4348 60.7364 60.8477 61.4719 60.0054C62.2362 59.2235 62.7182 58.2092 62.8416 57.1228C62.965 56.0363 62.7228 54.9398 62.1533 54.0064C62.1849 54.0239 62.2208 54.0325 62.2569 54.0311C64.3356 54.0311 66.1427 52.8856 67.0858 51.1969C67.5517 49.9971 67.7095 48.6996 67.5447 47.4231C67.38 46.1466 66.898 44.9317 66.1427 43.8894L66.1576 43.9141C70.2063 43.1241 70.0582 41.0998 72.0332 38.1372C73.9009 35.7175 76.2282 33.6905 78.8815 32.1727L64.1875 14.8125ZM63.9406 49.6713C61.7681 51.8438 60.0894 50.9056 56.3863 48.0912C52.6831 45.2769 45.3263 39.9938 45.3263 39.9938C45.6274 41.4997 46.3236 42.8081 47.3062 43.8499C48.8813 45.6225 53.5719 49.6712 55.7938 51.745C57.1763 53.0287 60.7313 55.5962 58.6575 57.5712C56.5838 59.5462 54.9544 57.5713 51.5475 54.8063C48.1406 52.0413 40.5369 45.2275 40.5369 45.2275C40.4959 45.8806 40.5935 46.5349 40.8233 47.1476C41.053 47.7602 41.4097 48.3174 41.87 48.7825C42.7094 49.77 47.4 54.3125 49.375 56.3863C51.35 58.46 53.0781 59.6944 51.3994 61.3238C49.7206 62.9531 46.3137 60.3856 44.4375 58.46C41.5244 55.6456 35.7475 50.4119 35.7475 50.4119L35.7426 50.6736C35.7426 52.0758 36.2264 53.3596 37.0411 54.3767C38.4631 56.2431 41.2281 58.6624 42.9069 60.5387C44.5856 62.4149 45.5731 63.9949 42.9069 65.4762C40.2406 66.9574 36.2906 63.3037 34.5625 61.5262V61.5163C34.5679 61.0277 34.392 60.5545 34.0688 60.1881C33.477 59.6429 32.7483 59.2686 31.9605 59.1051C31.1726 58.9416 30.3552 58.9951 29.5954 59.2599C29.9072 58.9797 30.1571 58.6375 30.3291 58.2552C30.5011 57.8728 30.5913 57.4588 30.5941 57.0396C30.5969 56.6204 30.5121 56.2052 30.3453 55.8206C30.1784 55.4361 29.9331 55.0906 29.625 54.8063C28.9769 54.3152 28.1858 54.0498 27.3727 54.0507C26.5595 54.0516 25.769 54.3187 25.122 54.8112C25.4492 54.4987 25.7017 54.1165 25.8609 53.6929C26.0201 53.2694 26.0818 52.8155 26.0415 52.3648C26.0012 51.9142 25.8599 51.4784 25.628 51.0899C25.3962 50.7013 25.0798 50.37 24.7023 50.1206C23.8184 49.5652 22.7812 49.3042 21.7398 49.3752C20.6983 49.4462 19.7061 49.8454 18.9057 50.5156C19.4406 49.8672 19.7044 49.0373 19.6418 48.1991C19.5792 47.3609 19.1952 46.5792 18.5699 46.0175C17.7913 45.2971 16.8013 44.8466 15.7466 44.7327C14.6918 44.6189 13.6285 44.8478 12.7141 45.3855L9.43062 39.8407C7.15937 36.2363 4.49313 32.4838 4.49313 32.4838L15.7506 18.8069C15.7506 18.8069 19.75 21.2757 23.0581 23.1519C24.6875 24.0901 27.5019 25.3244 29.625 26.3119C26.2675 28.8301 23.4531 31.2494 24.2925 32.9282C25.7872 34.0046 27.5752 34.5985 29.417 34.6303C31.2587 34.662 33.0661 34.1302 34.5971 33.1059C36.5601 31.7974 38.869 31.1045 41.2281 31.1161C42.9414 31.1161 44.5708 31.4716 46.0471 32.1184C48.7825 33.9651 53.8187 38.5076 58.4106 41.3713C64.1875 45.5682 65.3231 48.2838 63.9406 49.6663V49.6713Z" fill="var(--fill-0, black)"/>
</g>
</svg>
