<svg preserveAspectRatio="none" width="100%" height="100%" overflow="visible" style="display: block;" viewBox="0 0 58.3333 58.3333" fill="none" xmlns="http://www.w3.org/2000/svg">
<g id="Group">
<path id="Vector" d="M2.5 49.1667C2.5 45.6304 3.90476 42.2391 6.40524 39.7386C8.90573 37.2381 12.2971 35.8333 15.8333 35.8333H42.5C46.0362 35.8333 49.4276 37.2381 51.9281 39.7386C54.4286 42.2391 55.8333 45.6304 55.8333 49.1667C55.8333 50.9348 55.131 52.6305 53.8807 53.8807C52.6305 55.131 50.9348 55.8333 49.1667 55.8333H9.16667C7.39856 55.8333 5.70286 55.131 4.45262 53.8807C3.20238 52.6305 2.5 50.9348 2.5 49.1667Z" stroke="var(--stroke-0, #22B1B7)" stroke-width="5" stroke-linejoin="round"/>
<path id="Vector_2" d="M29.1667 22.5C34.6895 22.5 39.1667 18.0228 39.1667 12.5C39.1667 6.97715 34.6895 2.5 29.1667 2.5C23.6438 2.5 19.1667 6.97715 19.1667 12.5C19.1667 18.0228 23.6438 22.5 29.1667 22.5Z" stroke="var(--stroke-0, #22B1B7)" stroke-width="5"/>
</g>
</svg>
